<svg width="150" height="51" viewBox="0 0 150 51" fill="none" xmlns="http://www.w3.org/2000/svg">
<path fill-rule="evenodd" clip-rule="evenodd" d="M108.204 40.784C107.794 40.784 107.446 40.6472 107.16 40.3706C106.873 40.0952 106.73 39.7881 106.73 39.4481V12.0283C106.73 11.6461 106.873 11.3395 107.16 11.1058C107.446 10.8739 107.794 10.7559 108.204 10.7559C108.654 10.7559 109.023 10.8739 109.309 11.1058C109.596 11.3395 109.74 11.6461 109.74 12.0283V39.4481C109.74 39.7881 109.596 40.0952 109.309 40.3706C109.023 40.6472 108.654 40.784 108.204 40.784Z" fill="#00B29A"/>
<path fill-rule="evenodd" clip-rule="evenodd" d="M131.373 50.862C131.012 50.862 130.69 50.7346 130.413 50.4839C130.13 50.2278 129.986 49.8661 129.986 49.4087C129.986 49.0464 130.064 48.7187 130.219 48.4351C130.336 48.2167 130.587 47.9553 131.109 47.9553C131.94 47.9553 132.726 47.6424 133.447 47.0246C134.183 46.3922 134.881 45.5102 135.518 44.4021C136.162 43.2806 136.743 42.0457 137.245 40.7303C137.732 39.4567 138.17 38.1419 138.546 36.8219C138.561 36.7702 138.559 36.7138 138.541 36.6627L130.05 12.8373C129.972 12.6371 129.934 12.4709 129.934 12.3341C129.934 12.0322 130.028 11.7698 130.213 11.5531C130.384 11.3528 130.594 11.1808 130.839 11.0416C131.316 10.7709 131.849 10.7322 132.359 11.0446C132.615 11.2025 132.766 11.421 132.809 11.6952L139.835 31.9181C139.877 32.039 139.99 32.0895 140.064 32.0813C140.148 32.0807 140.251 32.0373 140.293 31.9163L147.124 11.667C147.127 11.6588 147.131 11.6506 147.134 11.6429C147.388 11.1115 147.889 10.7909 148.419 10.829C148.644 10.8455 148.865 10.906 149.078 11.0093C149.28 11.1068 149.46 11.2401 149.613 11.4051C149.883 11.6969 150.02 12.0786 149.989 12.4533C149.977 12.6077 149.937 12.7422 149.873 12.8532L141.551 36.7937C141.094 38.2382 140.561 39.7837 139.969 41.3827C139.37 42.997 138.666 44.5296 137.875 45.9377C137.079 47.3546 136.145 48.539 135.097 49.4574C134.032 50.3893 132.78 50.862 131.373 50.862Z" fill="#00B29A"/>
<mask id="mask0_4112_52" style="mask-type:luminance" maskUnits="userSpaceOnUse" x="0" y="0" width="13" height="41">
<path d="M0 0.924805H12.0357V40.9622H0V0.924805Z" fill="#8AB753"/>
</mask>
<g mask="url(#mask0_4112_52)">
<path fill-rule="evenodd" clip-rule="evenodd" d="M10.6306 40.9625H9.71813C7.98134 40.9625 6.35509 40.5186 4.88523 39.6436C3.42066 38.7698 2.22772 37.6001 1.33992 36.1662C0.450953 34.7281 0 33.1279 0 31.4092V2.13622C0 1.80797 0.136991 1.51965 0.406857 1.27948C0.670256 1.04401 1.00656 0.924805 1.40519 0.924805C1.83556 0.924805 2.20479 1.04166 2.50229 1.27185C2.8139 1.5126 2.97206 1.80327 2.97206 2.13622V31.5131C3.00557 32.6793 3.3307 33.7839 3.93805 34.7897C4.5454 35.7956 5.38263 36.6301 6.42858 37.2695C7.46983 37.9067 8.64866 38.2296 9.93273 38.2296H10.6306C11.0716 38.2296 11.4196 38.3606 11.6654 38.6189C11.9112 38.8761 12.0358 39.1874 12.0358 39.5438C12.0358 39.9319 11.9123 40.2684 11.6695 40.542C11.422 40.821 11.0722 40.9625 10.6306 40.9625Z" fill="#00B29A"/>
</g>
<path fill-rule="evenodd" clip-rule="evenodd" d="M89.5015 37.9783C91.0313 37.9783 92.4324 37.5649 93.7076 36.7369C94.9823 35.9089 96.0118 34.832 96.7984 33.5067C97.5845 32.1813 97.9778 30.7943 97.9778 29.3445V22.1395C97.9778 20.6908 97.5845 19.3244 96.7984 18.0402C96.0118 16.7571 94.9823 15.7019 93.7076 14.8727C92.4324 14.0448 91.0095 13.6302 89.438 13.6302C88.0775 13.6302 86.761 13.972 85.4876 14.6555C84.2129 15.339 83.1716 16.3114 82.3644 17.5739C81.5566 18.8376 81.1538 20.3602 81.1538 22.1395V31.4567C81.1538 32.1197 81.5142 32.9688 82.2368 34.0034C82.9588 35.0393 83.9577 35.9606 85.2324 36.7668C86.5071 37.5748 87.9293 37.9783 89.5015 37.9783ZM79.5934 50.8113C79.1548 50.8176 78.7256 50.6367 78.4287 50.3278C78.1635 50.0519 78.0312 49.7577 78.0312 49.4453V12.3883C78.0312 12.0148 78.1794 11.7159 78.4769 11.4875C78.7738 11.2608 79.1354 11.1457 79.5611 11.1457C80.0273 11.1457 80.3989 11.2608 80.6758 11.4875C80.9516 11.7159 81.0897 12.0148 81.0897 12.3883V15.2392C81.0897 15.3114 81.1856 15.3372 81.2255 15.2756C81.9452 14.1616 82.9835 13.1464 84.3405 12.2332C85.7839 11.2608 87.5477 10.7734 89.629 10.7734C91.7109 10.7734 93.6223 11.2808 95.365 12.2949C97.1065 13.3102 98.497 14.6766 99.5388 16.3942C100.579 18.113 101.099 20.0279 101.099 22.1395V29.3445C101.099 31.3322 100.579 33.2066 99.5388 34.9665C98.497 36.7269 97.1165 38.145 95.3962 39.2208C93.6764 40.2983 91.8168 40.8362 89.8201 40.8362C87.8658 40.8362 86.1131 40.37 84.5633 39.4381C83.107 38.5643 82.0169 37.5343 81.2914 36.3493C81.2526 36.2859 81.1538 36.31 81.1538 36.3834V49.4453C81.1538 49.7759 81.0045 50.0865 80.7082 50.3766C80.4165 50.659 80.0455 50.8041 79.5934 50.8113Z" fill="#00B29A"/>
<path fill-rule="evenodd" clip-rule="evenodd" d="M27.7983 40.7255C27.5896 40.7255 27.4567 40.7184 27.4126 40.7155C27.0963 40.7166 26.7153 40.7031 26.3513 40.6767C21.6172 40.335 17.364 37.9233 14.683 34.0606C11.9726 30.1557 11.3229 25.2977 12.8998 20.7316C14.4449 16.2559 18.1366 12.7667 22.7737 11.3979C27.8506 9.89991 33.0821 10.8289 37.1266 13.9464C37.9532 14.5835 38.6776 15.2529 39.2791 15.9341L39.3431 16.0045C39.5754 16.2541 40.2821 17.0145 41.1181 18.186C41.6979 18.9981 42.0841 20.1226 41.4309 20.8431C41.2199 21.0757 40.7977 21.3276 40.3673 21.3317C40.3638 21.3317 40.3603 21.3317 40.3568 21.3317C40.0604 21.3317 39.7929 21.2137 39.5818 20.9899C39.5501 20.9565 39.5319 20.9207 39.5183 20.8948L39.4707 20.8067C38.9086 19.7985 37.7839 18.5102 37.3606 18.0251L37.2265 17.8701C36.8849 17.4714 36.5139 17.0903 36.1236 16.7362C33.5478 14.4032 30.0389 13.2206 26.4936 13.493C20.3625 13.9634 15.5026 18.6247 14.9376 24.5772C14.623 27.8961 15.6843 31.1246 17.9273 33.6684C20.1391 36.1781 23.2058 37.6931 26.5624 37.9362C26.8775 37.9585 27.1933 37.9703 27.5008 37.9709C27.5049 37.9709 27.5384 37.972 27.5425 37.972C28.572 38.0378 37.738 38.2404 41.7855 25.313C43.6216 19.4503 46.6966 15.2464 50.925 12.8189C54.2587 10.9046 57.3119 10.6979 58.4701 10.6979C58.68 10.6979 58.8176 10.705 58.8705 10.7085C59.034 10.7079 59.2503 10.7108 59.4685 10.7202C67.7508 11.0767 74.2394 17.6616 74.2394 25.7117C74.2394 33.9866 67.2999 40.719 58.7706 40.7196C54.3475 40.7196 50.2742 38.9075 46.9899 35.4799C46.9552 35.4429 46.9059 35.3895 46.86 35.3402L46.7947 35.2691C46.6736 35.1393 46.5578 35.0037 46.4449 34.8716C46.3808 34.7964 46.3179 34.723 46.2556 34.6519C45.7705 34.1029 45.2567 33.3953 44.6834 32.4887C44.4506 32.1193 44.4112 31.6584 44.5788 31.2567C44.781 30.7705 45.2449 30.4434 45.7899 30.4035C46.3309 30.3647 46.8388 30.6178 47.114 31.0659C47.739 32.0847 48.3128 32.8633 48.819 33.3795L48.8708 33.4329C51.5471 36.4018 54.9707 37.9709 58.7706 37.9709C65.7359 37.9709 71.4026 32.4716 71.4026 25.7117C71.4026 19.1361 66.1046 13.7573 59.3409 13.4666C59.1557 13.4578 58.9711 13.4537 58.7876 13.4537C58.7829 13.4537 58.7447 13.4525 58.74 13.4519C57.7111 13.3826 48.5609 13.1419 44.5012 26.1104C40.1592 39.9756 29.9496 40.7255 27.7983 40.7255Z" fill="#8AB753"/>
<mask id="mask1_4112_52" style="mask-type:luminance" maskUnits="userSpaceOnUse" x="116" y="0" width="13" height="41">
<path d="M116.146 0.924805H128.181V40.9623H116.146V0.924805Z" fill="#8AB753"/>
</mask>
<g mask="url(#mask1_4112_52)">
<path fill-rule="evenodd" clip-rule="evenodd" d="M117.551 40.9625C117.151 40.9625 116.816 40.8433 116.552 40.6078C116.282 40.3676 116.146 40.0793 116.146 39.7511V10.4781C116.146 8.75935 116.596 7.1592 117.485 5.72113C118.373 4.28716 119.566 3.11744 121.031 2.24426C122.5 1.36873 124.126 0.924805 125.864 0.924805H126.776C127.218 0.924805 127.567 1.06632 127.815 1.34466C128.058 1.61947 128.181 1.95536 128.181 2.3435C128.181 2.69994 128.057 3.01116 127.81 3.26836C127.565 3.52673 127.216 3.65826 126.776 3.65826H126.078C124.794 3.65826 123.615 3.98123 122.574 4.61776C121.528 5.25723 120.69 6.09166 120.084 7.09755C119.476 8.10344 119.151 9.20739 119.118 10.3795V16.157H124.671C125.039 16.157 125.342 16.2797 125.572 16.5217C125.8 16.7618 125.915 17.0642 125.915 17.4207C125.915 17.7742 125.801 18.0836 125.577 18.3403C125.347 18.6021 125.042 18.7354 124.671 18.7354H119.118V39.7511C119.118 40.0846 118.959 40.3753 118.647 40.616C118.35 40.8456 117.981 40.9625 117.551 40.9625Z" fill="#00B29A"/>
</g>
</svg>
