<svg width="150" height="50" viewBox="0 0 150 50" fill="none" xmlns="http://www.w3.org/2000/svg">
<path fill-rule="evenodd" clip-rule="evenodd" d="M108.204 39.9094C107.794 39.9094 107.446 39.7725 107.16 39.4955C106.873 39.2198 106.73 38.9123 106.73 38.5719V11.1178C106.73 10.7351 106.873 10.4282 107.16 10.1942C107.446 9.96193 107.794 9.84375 108.204 9.84375C108.654 9.84375 109.023 9.96193 109.309 10.1942C109.596 10.4282 109.74 10.7351 109.74 11.1178V38.5719C109.74 38.9123 109.596 39.2198 109.309 39.4955C109.023 39.7725 108.654 39.9094 108.204 39.9094Z" fill="white"/>
<path fill-rule="evenodd" clip-rule="evenodd" d="M131.373 50C131.012 50 130.69 49.8725 130.413 49.6214C130.13 49.3651 129.986 49.0029 129.986 48.5449C129.986 48.1821 130.064 47.854 130.219 47.5701C130.336 47.3513 130.587 47.0897 131.109 47.0897C131.94 47.0897 132.726 46.7763 133.447 46.1578C134.183 45.5246 134.881 44.6415 135.518 43.5321C136.162 42.4091 136.743 41.1726 137.245 39.8556C137.732 38.5804 138.17 37.264 138.546 35.9423C138.561 35.8906 138.559 35.8341 138.541 35.783L130.05 11.9277C129.972 11.7272 129.934 11.5608 129.934 11.4238C129.934 11.1216 130.028 10.8588 130.213 10.6419C130.384 10.4414 130.594 10.2691 130.839 10.1298C131.316 9.85874 131.849 9.81993 132.359 10.1327C132.615 10.2909 132.766 10.5096 132.809 10.7842L139.835 31.0324C139.877 31.1535 139.99 31.2041 140.064 31.1958C140.148 31.1952 140.251 31.1517 140.293 31.0306L147.124 10.7559C147.127 10.7477 147.131 10.7395 147.134 10.7318C147.388 10.1997 147.889 9.87873 148.419 9.91695C148.644 9.93341 148.865 9.99397 149.078 10.0974C149.28 10.195 149.46 10.3285 149.613 10.4937C149.883 10.7859 150.02 11.1681 149.989 11.5432C149.977 11.6978 149.937 11.8325 149.873 11.9436L141.551 35.9141C141.094 37.3604 140.561 38.9079 139.969 40.5089C139.37 42.1251 138.666 43.6596 137.875 45.0695C137.079 46.4882 136.145 47.6741 135.097 48.5937C134.032 49.5267 132.78 50 131.373 50Z" fill="white"/>
<mask id="mask0_4529_2339" style="mask-type:luminance" maskUnits="userSpaceOnUse" x="0" y="0" width="13" height="41">
<path d="M0 0H12.0357V40.0876H0V0Z" fill="#8AB753"/>
</mask>
<g mask="url(#mask0_4529_2339)">
<path fill-rule="evenodd" clip-rule="evenodd" d="M10.6306 40.0878H9.71813C7.98134 40.0878 6.35509 39.6433 4.88523 38.7673C3.42066 37.8924 2.22772 36.7212 1.33992 35.2855C0.450953 33.8456 0 32.2434 0 30.5225V1.21293C0 0.884268 0.136991 0.595587 0.406857 0.355118C0.670256 0.119353 1.00656 0 1.40519 0C1.83556 0 2.20479 0.117001 2.50229 0.347475C2.8139 0.588532 2.97206 0.879564 2.97206 1.21293V30.6266C3.00557 31.7943 3.3307 32.9002 3.93805 33.9073C4.5454 34.9145 5.38263 35.7499 6.42858 36.3902C7.46983 37.0281 8.64866 37.3515 9.93273 37.3515H10.6306C11.0716 37.3515 11.4196 37.4826 11.6654 37.7413C11.9112 37.9988 12.0358 38.3104 12.0358 38.6673C12.0358 39.056 11.9123 39.3928 11.6695 39.6668C11.422 39.9461 11.0722 40.0878 10.6306 40.0878Z" fill="white"/>
</g>
<path fill-rule="evenodd" clip-rule="evenodd" d="M89.5015 37.1002C91.0313 37.1002 92.4324 36.6863 93.7076 35.8573C94.9823 35.0283 96.0118 33.95 96.7984 32.623C97.5845 31.296 97.9778 29.9073 97.9778 28.4556V21.2416C97.9778 19.7911 97.5845 18.423 96.7984 17.1371C96.0118 15.8525 94.9823 14.7959 93.7076 13.9658C92.4324 13.1368 91.0095 12.7217 89.438 12.7217C88.0775 12.7217 86.761 13.0639 85.4876 13.7482C84.2129 14.4326 83.1716 15.4062 82.3644 16.6703C81.5566 17.9356 81.1538 19.4601 81.1538 21.2416V30.5705C81.1538 31.2343 81.5142 32.0844 82.2368 33.1204C82.9588 34.1575 83.9577 35.08 85.2324 35.8873C86.5071 36.6963 87.9293 37.1002 89.5015 37.1002ZM79.5934 49.9493C79.1548 49.9556 78.7256 49.7745 78.4287 49.4652C78.1635 49.1889 78.0312 48.8943 78.0312 48.5816V11.4782C78.0312 11.1042 78.1794 10.805 78.4769 10.5763C78.7738 10.3493 79.1354 10.2341 79.5611 10.2341C80.0273 10.2341 80.3989 10.3493 80.6758 10.5763C80.9516 10.805 81.0897 11.1042 81.0897 11.4782V14.3326C81.0897 14.405 81.1856 14.4308 81.2255 14.3691C81.9452 13.2538 82.9835 12.2372 84.3405 11.323C85.7839 10.3493 87.5477 9.86133 89.629 9.86133C91.7109 9.86133 93.6223 10.3693 95.365 11.3847C97.1065 12.4012 98.497 13.7694 99.5388 15.4891C100.579 17.21 101.099 19.1273 101.099 21.2416V28.4556C101.099 30.4458 100.579 32.3226 99.5388 34.0846C98.497 35.8473 97.1165 37.2672 95.3962 38.3443C93.6764 39.4232 91.8168 39.9617 89.8201 39.9617C87.8658 39.9617 86.1131 39.4949 84.5633 38.5618C83.107 37.687 82.0169 36.6557 81.2914 35.4692C81.2526 35.4057 81.1538 35.4298 81.1538 35.5033V48.5816C81.1538 48.9126 81.0045 49.2236 80.7082 49.514C80.4165 49.7968 80.0455 49.9421 79.5934 49.9493Z" fill="white"/>
<path fill-rule="evenodd" clip-rule="evenodd" d="M27.7983 39.8509C27.5896 39.8509 27.4567 39.8439 27.4126 39.8409C27.0963 39.8421 26.7153 39.8286 26.3513 39.8021C21.6172 39.4599 17.364 37.0453 14.683 33.1778C11.9726 29.2679 11.3229 24.4039 12.8998 19.832C14.4449 15.3507 18.1366 11.8571 22.7737 10.4866C27.8506 8.9868 33.0821 9.91693 37.1266 13.0383C37.9532 13.6762 38.6776 14.3465 39.2791 15.0285L39.3431 15.0991C39.5754 15.3489 40.2821 16.1103 41.1181 17.2833C41.6979 18.0964 42.0841 19.2223 41.4309 19.9437C41.2199 20.1766 40.7977 20.4288 40.3673 20.4329C40.3638 20.4329 40.3603 20.4329 40.3568 20.4329C40.0604 20.4329 39.7929 20.3147 39.5818 20.0907C39.5501 20.0572 39.5319 20.0213 39.5183 19.9955L39.4707 19.9073C38.9086 18.8978 37.7839 17.6078 37.3606 17.1222L37.2265 16.967C36.8849 16.5678 36.5139 16.1862 36.1236 15.8316C33.5478 13.4957 30.0389 12.3116 26.4936 12.5844C20.3625 13.0554 15.5026 17.7225 14.9376 23.6825C14.623 27.0055 15.6843 30.238 17.9273 32.785C20.1391 35.2979 23.2058 36.8148 26.5624 37.0582C26.8775 37.0805 27.1933 37.0923 27.5008 37.0929C27.5049 37.0929 27.5384 37.0941 27.5425 37.0941C28.572 37.1599 37.738 37.3627 41.7855 24.4192C43.6216 18.5491 46.6966 14.34 50.925 11.9095C54.2587 9.99277 57.3119 9.78582 58.4701 9.78582C58.68 9.78582 58.8176 9.79287 58.8705 9.7964C59.034 9.79581 59.2503 9.79875 59.4685 9.80816C67.7508 10.165 74.2394 16.7582 74.2394 24.8184C74.2394 33.1037 67.2999 39.8445 58.7706 39.845C54.3475 39.845 50.2742 38.0306 46.9899 34.5988C46.9552 34.5618 46.9059 34.5083 46.86 34.4589L46.7947 34.3877C46.6736 34.2578 46.5578 34.122 46.4449 33.9897C46.3808 33.9145 46.3179 33.841 46.2556 33.7698C45.7705 33.2201 45.2567 32.5116 44.6834 31.6038C44.4506 31.234 44.4112 30.7725 44.5788 30.3703C44.781 29.8835 45.2449 29.556 45.7899 29.516C46.3309 29.4772 46.8388 29.7306 47.114 30.1792C47.739 31.1993 48.3128 31.9789 48.819 32.4957L48.8708 32.5492C51.5471 35.5219 54.9707 37.0929 58.7706 37.0929C65.7359 37.0929 71.4026 31.5868 71.4026 24.8184C71.4026 18.2346 66.1046 12.849 59.3409 12.558C59.1557 12.5492 58.9711 12.545 58.7876 12.545C58.7829 12.545 58.7447 12.5439 58.74 12.5433C57.7111 12.4739 48.5609 12.2328 44.5012 25.2176C40.1592 39.1001 29.9496 39.8509 27.7983 39.8509Z" fill="white"/>
<mask id="mask1_4529_2339" style="mask-type:luminance" maskUnits="userSpaceOnUse" x="116" y="0" width="13" height="41">
<path d="M116.146 0H128.182V40.0876H116.146V0Z" fill="#8AB753"/>
</mask>
<g mask="url(#mask1_4529_2339)">
<path fill-rule="evenodd" clip-rule="evenodd" d="M117.552 40.0878C117.152 40.0878 116.817 39.9684 116.553 39.7327C116.283 39.4922 116.146 39.2035 116.146 38.8749V9.56526C116.146 7.84435 116.597 6.2422 117.486 4.80233C118.374 3.36657 119.567 2.19538 121.032 1.32111C122.501 0.444486 124.127 0 125.865 0H126.777C127.219 0 127.568 0.141695 127.816 0.42038C128.059 0.695538 128.182 1.03184 128.182 1.42047C128.182 1.77735 128.058 2.08897 127.811 2.34648C127.566 2.60518 127.217 2.73688 126.777 2.73688H126.079C124.795 2.73688 123.616 3.06025 122.575 3.69758C121.529 4.33785 120.691 5.17332 120.085 6.18047C119.477 7.18762 119.152 8.29295 119.119 9.46649V15.2513H124.672C125.04 15.2513 125.343 15.3741 125.573 15.6164C125.801 15.8569 125.916 16.1596 125.916 16.5165C125.916 16.8705 125.802 17.1803 125.578 17.4372C125.348 17.6995 125.043 17.8329 124.672 17.8329H119.119V38.8749C119.119 39.2088 118.96 39.4998 118.648 39.7409C118.351 39.9708 117.982 40.0878 117.552 40.0878Z" fill="white"/>
</g>
</svg>
