<svg width="132" height="40" viewBox="0 0 132 40" fill="none" xmlns="http://www.w3.org/2000/svg">
<path fill-rule="evenodd" clip-rule="evenodd" d="M81.8103 31.2732C74.1461 36.9591 63.0439 40.0004 53.4745 40.0004C40.073 40.0004 27.9854 34.9977 18.854 26.7113C18.1314 26.0501 18.7883 25.1686 19.6423 25.6755C29.4964 31.4495 41.6935 34.9096 54.2847 34.9096C62.7811 34.9096 72.1096 33.1465 80.6936 29.4661C82.0074 28.9151 83.0804 30.3256 81.8103 31.2732Z" fill="white"/>
<path fill-rule="evenodd" clip-rule="evenodd" d="M85.0075 27.6145C84.0221 26.3583 78.5258 27.0195 76.0732 27.306C75.3287 27.3941 75.1973 26.733 75.8761 26.2702C80.2557 23.1628 87.4382 24.0663 88.2922 25.1021C89.1243 26.138 88.0732 33.3886 83.9564 36.8706C83.3214 37.3996 82.7302 37.1131 82.9929 36.4078C83.9126 34.0718 85.9929 28.8707 85.0075 27.6145Z" fill="white"/>
<path fill-rule="evenodd" clip-rule="evenodd" d="M76.2265 4.36579V1.34654C76.2265 0.883733 76.5768 0.575195 76.9929 0.575195H90.4163C90.8542 0.575195 91.1827 0.883733 91.1827 1.34654V3.92502C91.1827 4.36579 90.8104 4.91675 90.1754 5.82033L83.2338 15.8037C85.8177 15.7376 88.555 16.1343 90.8761 17.4566C91.4017 17.7651 91.555 18.2059 91.5988 18.6246V21.8643C91.5988 22.305 91.117 22.8119 90.6134 22.5475C86.4966 20.3657 81.0002 20.1232 76.4454 22.5695C75.9856 22.834 75.4819 22.305 75.4819 21.8863V18.823C75.4819 18.3381 75.4819 17.5007 75.9856 16.7514L84.044 5.13713H77.0367C76.5768 5.13713 76.2265 4.82859 76.2265 4.36579Z" fill="white"/>
<path fill-rule="evenodd" clip-rule="evenodd" d="M27.2846 23.1823H23.2116C22.8175 23.1603 22.5109 22.8517 22.489 22.4771V1.38635C22.489 0.967624 22.8394 0.637057 23.2773 0.637057H27.0657C27.4598 0.659095 27.7883 0.967635 27.8102 1.34229V4.09709H27.8759C28.8613 1.43044 30.7445 0.196289 33.2409 0.196289C35.8029 0.196289 37.4015 1.43044 38.5401 4.09709C39.5255 1.43044 41.781 0.196289 44.1679 0.196289C45.8759 0.196289 47.7591 0.901517 48.8978 2.51032C50.1898 4.27339 49.927 6.85188 49.927 9.12183V22.433C49.927 22.8517 49.5767 23.2044 49.1387 23.2044H45.0876C44.6715 23.1823 44.3431 22.8517 44.3431 22.433V11.2596C44.3431 10.378 44.4307 8.15214 44.2336 7.31468C43.927 5.90423 43.0073 5.50753 41.8248 5.50753C40.8394 5.50753 39.8102 6.16868 39.3942 7.22653C38.9781 8.28437 39.0219 10.0695 39.0219 11.2596V22.433C39.0219 22.8517 38.6715 23.2044 38.2336 23.2044H34.1387C33.7226 23.1823 33.3941 22.8517 33.3941 22.433V11.2596C33.3941 8.90145 33.7883 5.44142 30.8759 5.44142C27.9416 5.44142 28.0511 8.8133 28.0511 11.2596V22.433C28.073 22.8517 27.7226 23.1823 27.2846 23.1823Z" fill="white"/>
<path fill-rule="evenodd" clip-rule="evenodd" d="M102.723 0.196289C108.789 0.196289 112.051 5.44142 112.051 12.097C112.051 18.5322 108.438 23.6231 102.723 23.6231C96.7666 23.6231 93.5476 18.3779 93.5476 11.8546C93.5476 5.30919 96.8323 0.196289 102.723 0.196289ZM102.767 4.49377C99.7666 4.49377 99.5695 8.61494 99.5695 11.1934C99.5695 13.7719 99.5257 19.2815 102.723 19.2815C105.876 19.2815 106.029 14.8518 106.029 12.1411C106.029 10.356 105.964 8.2403 105.416 6.54334C104.978 5.06677 104.059 4.49377 102.767 4.49377Z" fill="white"/>
<path fill-rule="evenodd" clip-rule="evenodd" d="M119.913 23.1823H115.839C115.423 23.1603 115.095 22.8297 115.095 22.411V1.32024C115.139 0.92355 115.467 0.637057 115.883 0.637057H119.694C120.044 0.659095 120.35 0.90152 120.416 1.2321V4.44969H120.482C121.621 1.56267 123.219 0.196289 126.044 0.196289C127.883 0.196289 129.657 0.857438 130.818 2.68662C131.891 4.38358 131.891 7.20449 131.891 9.25406V22.5212C131.847 22.8958 131.496 23.1823 131.102 23.1823H127.007C126.635 23.1603 126.329 22.8738 126.285 22.5212V11.0612C126.285 8.74718 126.548 5.37531 123.723 5.37531C122.737 5.37531 121.818 6.03646 121.358 7.07227C120.788 8.35049 120.701 9.65075 120.701 11.0612V22.411C120.701 22.8517 120.35 23.1823 119.913 23.1823Z" fill="white"/>
<path fill-rule="evenodd" clip-rule="evenodd" d="M65.5402 13.1128C65.5402 14.7216 65.584 16.0439 64.7738 17.4764C64.1169 18.6224 63.0877 19.3497 61.949 19.3497C60.3723 19.3497 59.4526 18.1376 59.4526 16.3745C59.4526 12.8704 62.5621 12.2313 65.5183 12.2313L65.5402 13.1128ZM69.657 23.1183C69.3943 23.3607 69.0001 23.3827 68.6935 23.2064C67.3359 22.0825 67.095 21.5535 66.3505 20.4737C64.1169 22.7657 62.5183 23.4709 59.6278 23.4709C56.1898 23.4709 53.5183 21.3332 53.5183 17.0797C53.5183 13.7519 55.3139 11.482 57.876 10.358C60.0877 9.36631 63.1972 9.21204 65.5621 8.92554V8.39663C65.5621 7.42694 65.6278 6.25891 65.0585 5.42145C64.5548 4.67214 63.6132 4.34156 62.7592 4.34156C61.2045 4.34156 59.8249 5.13495 59.4745 6.80986C59.4088 7.18452 59.1461 7.53712 58.7519 7.55916L54.7884 7.14044C54.4599 7.07433 54.0877 6.78782 54.1752 6.28094C55.0731 1.45453 59.4307 0 63.3067 0C65.2994 0 67.8833 0.528918 69.46 2.04957C71.4527 3.92283 71.2556 6.41317 71.2556 9.12389V15.515C71.2556 17.4324 72.0439 18.2919 72.7884 19.3277C73.0512 19.7023 73.095 20.1431 72.7665 20.4296C71.9563 21.1128 70.4673 22.413 69.657 23.1183Z" fill="white"/>
<path fill-rule="evenodd" clip-rule="evenodd" d="M12.0219 13.1128C12.0219 14.7216 12.0657 16.0439 11.2555 17.4764C10.5986 18.6224 9.56937 19.3497 8.43068 19.3497C6.85403 19.3497 5.95622 18.1376 5.95622 16.3745C5.95622 12.8704 9.06571 12.2313 12.0219 12.2313V13.1128ZM16.1387 23.1183C15.8759 23.3607 15.4818 23.3827 15.1752 23.2064C13.8175 22.0825 13.5767 21.5535 12.8321 20.4737C10.5986 22.7657 9.00002 23.4709 6.1095 23.4709C2.67154 23.4709 0 21.3332 0 17.0797C0 13.7519 1.79563 11.482 4.35768 10.358C6.56936 9.36631 9.67885 9.21204 12.0438 8.92554V8.39663C12.0438 7.42694 12.1095 6.25891 11.5402 5.42145C11.0365 4.67214 10.0949 4.34156 9.2409 4.34156C7.68615 4.34156 6.30658 5.13495 5.95622 6.80986C5.89052 7.18452 5.62775 7.53712 5.25549 7.55916L1.29198 7.14044C0.963508 7.07433 0.591243 6.78782 0.678835 6.28094C1.59854 1.45453 5.93432 0 9.81024 0C11.8029 0 14.3869 0.528918 15.9635 2.04957C17.9562 3.92283 17.7592 6.41317 17.7592 9.12389V15.515C17.7592 17.4324 18.5475 18.2919 19.292 19.3277C19.5548 19.7023 19.6205 20.1431 19.2701 20.4296C18.438 21.1128 16.9708 22.413 16.1387 23.1183Z" fill="white"/>
</svg>
