<svg width="217" height="44" viewBox="0 0 217 44" fill="none" xmlns="http://www.w3.org/2000/svg">
<path d="M157.895 11.0962V26.6483C157.895 26.6483 157.895 32.9891 150.548 33.0533H138.595C138.595 33.0533 136.966 32.9891 136.302 31.7466L134.182 28.3834H147.677C147.677 28.3834 150.655 28.3192 150.655 26.0271V11.0962H157.895Z" fill="white"/>
<path d="M121.071 11.0961L134.631 33.0533H126.17L123.878 29.0689H111.432L113.424 25.7057C113.424 25.7057 114.174 24.399 115.716 24.399H121.2L116.402 16.3016L106.762 33.0319H98.3003L111.86 11.0747H121.071" fill="white"/>
<path d="M180.002 11.0961L193.434 33.0533H185.101L182.744 29.0689H170.234L172.291 25.7057C172.291 25.7057 173.105 24.399 174.647 24.399H180.11L175.311 16.3016L165.543 33.0319H157.081L170.641 11.0747H180.002" fill="white"/>
<path d="M216.698 11.0962V26.6483C216.698 26.6483 216.633 32.9891 209.479 33.0533H197.418C197.418 33.0533 195.747 32.9891 195.062 31.7466L193.005 28.3834H206.565C206.565 28.3834 209.607 28.3192 209.607 26.0271V11.0962H216.698Z" fill="white"/>
<path d="M68.8672 11.0962V33.0533H76.0863V23.7135V15.5733H88.5322C91.0814 15.5733 91.0814 17.437 91.0814 17.437C91.0814 19.1721 88.5322 19.1721 88.5322 19.1721H80.4991C78.9996 19.1721 78.207 20.3503 78.207 20.3503L76.0863 23.7135H88.4037C91.0814 23.7135 91.0814 26.0056 91.0814 26.0056C91.0814 28.2977 88.4037 28.362 88.4037 28.362H80.4991C78.9996 28.2977 78.207 29.6044 78.207 29.6044L76.0863 33.0319H88.5322C99.1145 32.9676 99.1145 27.0553 99.1145 27.0553C99.1145 23.1994 94.1447 21.8284 94.1447 21.8284C99.1145 20.5859 99.1145 16.73 99.1145 16.73C99.1145 11.0105 88.5322 11.0747 88.5322 11.0747H68.8672V11.0962Z" fill="white"/>
<path d="M-0.00341797 9.53262L17.2838 17.5657C17.2838 17.5657 19.6402 16.4518 21.9537 15.3807C21.9537 15.3807 22.3822 15.1237 22.3822 14.631C22.3822 14.631 22.3822 14.074 21.8252 13.8169C21.8252 13.8169 14.0492 10.2181 6.27312 6.66212L20.2186 0.257059L21.3968 0L22.5107 0.257059L43.4182 9.89679C43.4182 9.89679 45.5389 10.8822 45.5389 12.1889C45.5389 12.1889 45.5389 13.4956 43.4182 14.4382L27.0521 21.9572L43.4182 29.4761C43.4182 29.4761 45.5389 30.4187 45.5389 31.8325C45.5389 31.8325 45.5389 33.075 43.4182 34.1246L22.5107 43.6358C22.5107 43.6358 22.0823 44 21.3968 44L20.2186 43.6358L6.27312 37.295L21.8252 30.2045L22.3822 29.3905C22.3822 29.3905 22.3822 29.0263 21.9537 28.5764L17.2838 26.4557L-0.00341797 34.5531V25.4703L7.51557 21.9786L-0.00341797 18.6154V9.53262Z" fill="white"/>
</svg>
