<svg width="106" height="44" viewBox="0 0 106 44" fill="none" xmlns="http://www.w3.org/2000/svg">
<path d="M4.24516 37.9895C2.78391 37.5526 2.15121 37.2664 2.15121 36.4228C2.15121 35.6695 3.14546 35.4134 4.00413 35.4134C4.75735 35.4134 5.55577 35.6394 6.09809 35.9859C6.23367 36.0763 6.38431 36.0913 6.53495 36.0612C6.6856 36.016 6.80612 35.9256 6.88144 35.775L7.12247 35.2779C7.24299 35.0368 7.16766 34.7355 6.9417 34.5849C6.15835 34.0727 5.04358 33.7563 4.03426 33.7563C1.91017 33.7563 0.494114 34.841 0.494114 36.4679C0.494114 38.577 2.27172 39.1042 3.70284 39.526C5.19422 39.978 5.84199 40.2642 5.84199 41.153C5.84199 42.0418 4.78748 42.3581 3.80829 42.3581C2.8743 42.3581 1.84991 41.861 1.21721 41.2886C1.09669 41.1681 0.930983 41.1078 0.765274 41.1229C0.599565 41.1379 0.448921 41.2434 0.358535 41.379L0.072309 41.861C-0.0482065 42.0719 -0.0180767 42.3431 0.162697 42.5239C1.08163 43.4277 2.48262 44.0002 3.79323 44.0002C6.0077 44.0002 7.49908 42.8553 7.49908 41.1379C7.49908 38.9686 5.69135 38.4263 4.24516 37.9895Z" fill="white"/>
<path d="M14.022 34.1025C13.9316 33.9066 13.7358 33.7861 13.5249 33.7861H12.9373C12.7264 33.7861 12.5306 33.9066 12.4402 34.1025L8.29749 43.2315C8.22217 43.3972 8.23724 43.5931 8.32762 43.7437C8.43308 43.8944 8.59878 43.9848 8.77956 43.9848H9.38214C9.59304 43.9848 9.78887 43.8642 9.87926 43.6684L10.9036 41.3937H15.5435L16.5829 43.6835C16.6733 43.8793 16.8692 43.9998 17.0801 43.9998H17.6826C17.8634 43.9998 18.0442 43.9094 18.1346 43.7588C18.24 43.6082 18.24 43.4123 18.1647 43.2466L14.022 34.1025ZM11.6569 39.7667L13.2386 36.2567L14.8355 39.7667H11.6569Z" fill="white"/>
<path d="M20.9064 33.7861H20.3641C20.0628 33.7861 19.8218 34.0272 19.8218 34.3284V43.4575C19.8218 43.7588 20.0628 43.9998 20.3641 43.9998H20.9064C21.2077 43.9998 21.4488 43.7588 21.4488 43.4575V34.3284C21.4488 34.0272 21.2077 33.7861 20.9064 33.7861Z" fill="white"/>
<path d="M32.2952 33.7861H31.7528C31.4516 33.7861 31.2105 34.0272 31.2105 34.3284V40.9719L26.0886 34.0121C25.9832 33.8765 25.8325 33.7861 25.6517 33.7861H25.019C24.7177 33.7861 24.4767 34.0272 24.4767 34.3284V43.4575C24.4767 43.7588 24.7177 43.9998 25.019 43.9998H25.5614C25.8626 43.9998 26.1037 43.7588 26.1037 43.4575V36.8141L31.2105 43.7739C31.316 43.9094 31.4666 43.9998 31.6474 43.9998H32.2801C32.5814 43.9998 32.8224 43.7588 32.8224 43.4575V34.3284C32.8375 34.0272 32.5964 33.7861 32.2952 33.7861Z" fill="white"/>
<path d="M41.6954 33.7861H34.9917C34.6904 33.7861 34.4494 34.0272 34.4494 34.3284V34.8708C34.4494 35.1721 34.6904 35.4131 34.9917 35.4131H37.5376V43.4575C37.5376 43.7588 37.7786 43.9998 38.0799 43.9998H38.6222C38.9235 43.9998 39.1645 43.7588 39.1645 43.4575V35.4131H41.7104C42.0117 35.4131 42.2528 35.1721 42.2528 34.8708V34.3284C42.2377 34.0272 41.9967 33.7861 41.6954 33.7861Z" fill="white"/>
<path d="M45.7176 38.7578H42.8101C42.5088 38.7578 42.2678 38.9988 42.2678 39.3001V39.737C42.2678 40.0383 42.5088 40.2793 42.8101 40.2793H45.7176C46.0189 40.2793 46.2599 40.0383 46.2599 39.737V39.3001C46.2599 38.9988 46.0189 38.7578 45.7176 38.7578Z" fill="white"/>
<path d="M57.046 38.4264H56.5489C56.5489 38.4264 56.5489 38.4264 56.5339 38.4264H54.9069C54.6056 38.4264 54.3646 38.6674 54.3646 38.9687V39.511C54.3646 39.8123 54.6056 40.0534 54.9069 40.0534H55.9915V41.7255C55.3588 42.1624 54.5905 42.4034 53.8223 42.4034C51.8036 42.4034 50.1767 40.8216 50.1767 38.8783C50.1767 36.9501 51.8187 35.3683 53.8223 35.3683C54.7562 35.3683 55.6752 35.7148 56.3531 36.3174C56.4585 36.4228 56.6092 36.468 56.7598 36.453C56.9105 36.4379 57.046 36.3626 57.1364 36.2571L57.4678 35.8504C57.6486 35.6244 57.6185 35.293 57.4076 35.1122C56.4284 34.2535 55.163 33.7715 53.8373 33.7715C50.9299 33.7715 48.5648 36.0613 48.5648 38.8783C48.5648 41.6954 50.9148 44.0002 53.8223 44.0002C55.1329 44.0002 56.4435 43.5182 57.4076 42.6896C57.5281 42.5842 57.5884 42.4335 57.5884 42.2829V38.9838C57.5884 38.6674 57.3473 38.4264 57.046 38.4264Z" fill="white"/>
<path d="M64.6988 33.7715C61.7913 33.7715 59.4413 36.0613 59.4413 38.8783C59.4413 41.6954 61.8064 44.0002 64.6988 44.0002C67.6062 44.0002 69.9563 41.7104 69.9563 38.8783C69.9563 36.0613 67.6062 33.7715 64.6988 33.7715ZM64.6988 42.3883C62.6952 42.3883 61.0682 40.8216 61.0682 38.8783C61.0682 36.9501 62.6952 35.3834 64.6988 35.3834C66.7023 35.3834 68.3293 36.9501 68.3293 38.8783C68.3142 40.8066 66.7023 42.3883 64.6988 42.3883Z" fill="white"/>
<path d="M78.6033 38.5921C79.1456 38.1251 79.4619 37.4171 79.4619 36.5735C79.4619 34.8411 78.1664 33.7715 76.0724 33.7715H72.3364C72.0352 33.7715 71.7941 34.0125 71.7941 34.3138V43.4429C71.7941 43.7441 72.0352 43.9852 72.3364 43.9852H76.1026C78.4978 43.9852 79.9139 42.8704 79.9139 40.9874C79.9139 39.9328 79.4318 39.0892 78.6033 38.5921ZM76.0574 37.9293H73.4211V35.3984H76.0574C76.8708 35.3984 77.835 35.6093 77.835 36.6488C77.8199 37.4924 77.2324 37.9293 76.0574 37.9293ZM73.4211 39.5412H76.0574C76.8859 39.5412 78.2869 39.7219 78.2869 40.9271C78.2869 42.1172 77.0817 42.3733 76.0574 42.3733H73.4211V39.5412Z" fill="white"/>
<path d="M86.5272 34.1025C86.4368 33.9066 86.2409 33.7861 86.03 33.7861H85.4425C85.2316 33.7861 85.0358 33.9066 84.9454 34.1025L80.8027 43.2315C80.7273 43.3972 80.7424 43.5931 80.8479 43.7437C80.9533 43.8944 81.119 43.9848 81.2998 43.9848H81.9024C82.1133 43.9848 82.3091 43.8642 82.3995 43.6684L83.4239 41.3937H88.0637L89.1032 43.6835C89.1936 43.8793 89.3894 43.9998 89.6003 43.9998H90.2029C90.3837 43.9998 90.5644 43.9094 90.6548 43.7588C90.7603 43.6082 90.7603 43.4123 90.6849 43.2466L86.5272 34.1025ZM84.162 39.7667L85.7438 36.2567L87.3406 39.7667H84.162Z" fill="white"/>
<path d="M93.4116 33.7861H92.8693C92.568 33.7861 92.327 34.0272 92.327 34.3284V43.4575C92.327 43.7588 92.568 43.9998 92.8693 43.9998H93.4116C93.7129 43.9998 93.9539 43.7588 93.9539 43.4575V34.3284C93.9539 34.0272 93.7129 33.7861 93.4116 33.7861Z" fill="white"/>
<path d="M104.8 33.7861H104.258C103.957 33.7861 103.716 34.0272 103.716 34.3284V40.9719L98.5938 34.0121C98.4883 33.8765 98.3377 33.7861 98.1569 33.7861H97.5242C97.2229 33.7861 96.9819 34.0272 96.9819 34.3284V43.4575C96.9819 43.7588 97.2229 43.9998 97.5242 43.9998H98.0665C98.3678 43.9998 98.6088 43.7588 98.6088 43.4575V36.8141L103.716 43.7739C103.821 43.9094 103.972 43.9998 104.153 43.9998H104.785C105.087 43.9998 105.328 43.7588 105.328 43.4575V34.3284C105.328 34.0272 105.087 33.7861 104.8 33.7861Z" fill="white"/>
<path d="M91.2273 28.4083H84.7345L84.6893 28.3631L78.9799 22.7139C78.7539 22.488 78.3923 22.4126 78.0911 22.5332C77.7898 22.6687 77.5789 22.955 77.5789 23.2864V28.4234H75.8766V15.6939C75.8766 15.4679 75.7862 15.257 75.6205 15.0913L70.8601 10.6323C70.7095 10.4816 70.5136 10.4063 70.3027 10.4063H67.9226C67.4706 10.4063 67.094 10.7678 67.094 11.2348V28.4384H65.4068V0.810237C65.4068 0.478819 65.211 0.17753 64.8946 0.0570147C64.5933 -0.0635008 64.2318 0.0118209 63.9907 0.237788L56.1271 8.22194C55.9765 8.37259 55.8861 8.58349 55.8861 8.79439V14.9558L52.6623 12.5454C52.3761 12.3345 51.9392 12.3345 51.653 12.5605L44.3316 18.4206C44.1358 18.5712 44.0304 18.8122 44.0304 19.0683V28.4234H42.3733V23.2864C42.3733 21.4787 41.1229 19.5504 38.8181 19.5504C36.5132 19.5504 35.2628 21.4787 35.2628 23.3015V28.4384H33.5907V24.9435C33.5907 23.5274 32.6115 22.021 30.8038 22.021C28.996 22.021 28.0168 23.5274 28.0168 24.9435V28.4384H26.3447V28.2878C26.3447 27.5798 26.3447 26.6759 26.3447 26.3143C26.3447 25.1092 25.1998 24.0547 23.9043 24.0547C22.6087 24.0547 21.4638 25.1092 21.4638 26.2993V28.4384H14.1425C13.6906 28.4384 13.3139 28.8 13.3139 29.267C13.3139 29.4929 13.4043 29.6888 13.555 29.8545C13.7056 30.0202 13.9165 30.0955 14.1425 30.0955H22.2924C22.5183 30.0955 22.7142 30.0051 22.8799 29.8545C23.0305 29.7038 23.1209 29.4929 23.1209 29.267V26.4499C23.1209 26.1486 23.4523 25.6967 23.9043 25.6967C24.3562 25.6967 24.6876 26.1034 24.6876 26.4801C24.6876 26.691 24.7027 29.267 24.7027 29.267C24.7027 29.7189 25.0793 30.0805 25.5312 30.0805H28.8454C29.2973 30.0805 29.6739 29.7038 29.6739 29.2519V24.9435C29.6739 24.5066 29.915 23.663 30.8188 23.663C31.7227 23.663 31.9637 24.5066 31.9637 24.9435V29.267C31.9637 29.7189 32.3253 30.0955 32.7923 30.0955H36.1065C36.3174 30.0955 36.5283 30.0051 36.694 29.8545C36.8446 29.7038 36.935 29.4929 36.935 29.267V23.3015C36.935 22.5784 37.3417 21.1924 38.8482 21.1924C40.2492 21.1924 40.7614 22.4428 40.7614 23.2864V29.267C40.7614 29.7189 41.1229 30.0955 41.5899 30.0955H44.889C45.341 30.0955 45.7176 29.734 45.7176 29.267V19.4751L45.7778 19.4299L52.2254 14.2477L55.9162 17.0045V29.2519C55.9162 29.7038 56.2777 30.0805 56.7447 30.0805H60.0439C60.4958 30.0805 60.8724 29.7189 60.8724 29.2519V19.0533C60.8724 18.7972 60.7519 18.5562 60.541 18.3904L57.5582 16.191V9.12581L57.6034 9.08062L63.7798 2.81381V29.2519C63.7798 29.7038 64.1414 30.0805 64.6084 30.0805H67.9376C68.3896 30.0805 68.7662 29.7189 68.7662 29.2519V12.0634H69.9864L70.0316 12.1086L74.2346 16.0856V29.282C74.2346 29.734 74.5961 30.1106 75.0631 30.1106H78.4074C78.8594 30.1106 79.236 29.749 79.236 29.282V25.29L83.8306 29.8394C83.9813 29.9901 84.1922 30.0805 84.4031 30.0805H91.2423C91.6942 30.0805 92.0709 29.7189 92.0709 29.2519C92.0407 28.7849 91.6792 28.4083 91.2273 28.4083ZM59.2153 19.4751V28.4384H57.5582V18.2398L59.2153 19.4751Z" fill="white"/>
</svg>
