<svg width="84" height="44" viewBox="0 0 84 44" fill="none" xmlns="http://www.w3.org/2000/svg">
<path d="M-0.00341797 17.5733C0.0750134 18.5199 0.859327 19.2549 1.81171 19.2549C2.76409 19.2549 3.55961 18.5199 3.62683 17.5844V17.5733V13.553C3.58202 12.5953 2.7865 11.8269 1.81171 11.8269C0.836918 11.8269 0.0414 12.5953 -0.00341797 13.553V17.5733ZM10.0694 17.5733C10.159 18.5087 10.9322 19.2326 11.8845 19.2326C12.8369 19.2326 13.6212 18.5087 13.7109 17.5844V17.5733V8.56391C13.666 7.60617 12.8705 6.83776 11.8957 6.83776C10.921 6.83776 10.1254 7.60617 10.0806 8.56391L10.0694 17.5733ZM20.075 21.2149C20.1198 22.1726 20.9153 22.941 21.8901 22.941C22.8649 22.941 23.6604 22.1726 23.7053 21.2149V1.72615C23.6604 0.768413 22.8649 0 21.8901 0C20.9153 0 20.1198 0.768413 20.075 1.72615V21.2149ZM30.1815 17.5733C30.2263 18.531 31.0218 19.2994 31.9966 19.2994C32.9714 19.2994 33.7669 18.531 33.8117 17.5733V8.56391C33.7669 7.60617 32.9714 6.83776 31.9966 6.83776C31.0218 6.83776 30.2263 7.60617 30.1815 8.56391V17.5733ZM40.2319 17.5733C40.3327 18.4976 41.1058 19.2103 42.047 19.2103C42.9882 19.2103 43.7725 18.4976 43.8621 17.5844V17.5733V13.553C43.8173 12.5953 43.0218 11.8269 42.047 11.8269C41.0722 11.8269 40.2767 12.5953 40.2319 13.553V17.5733ZM50.3831 17.5733C50.4392 18.531 51.2347 19.2771 52.1983 19.2771C53.1618 19.2771 53.9574 18.531 54.0134 17.5844V17.5733V8.56391C53.9686 7.60617 53.1731 6.83776 52.1983 6.83776C51.2235 6.83776 50.428 7.60617 50.3831 8.56391V17.5733ZM60.3103 21.2149C60.3887 22.1615 61.1731 22.8965 62.1254 22.8965C63.0778 22.8965 63.8733 22.1615 63.9406 21.226V1.73728C63.8957 0.77955 63.1002 0.0111371 62.1254 0.0111371C61.1506 0.0111371 60.3551 0.77955 60.3103 1.73728V21.2149ZM70.4167 17.5733C70.4952 18.5199 71.2795 19.2549 72.2319 19.2549C73.1843 19.2549 73.9798 18.5199 74.047 17.5844V17.5733V8.56391C73.991 7.60617 73.1955 6.86004 72.2319 6.86004C71.2683 6.86004 70.4728 7.60618 70.4167 8.55277V8.56391V17.5733ZM80.3663 17.5733C80.4112 18.531 81.2067 19.2994 82.1815 19.2994C83.1562 19.2994 83.9518 18.531 83.9966 17.5733V13.553C83.9518 12.5953 83.1562 11.8269 82.1815 11.8269C81.2067 11.8269 80.4112 12.5953 80.3663 13.553V17.5733ZM60.9826 36.4829C61.0498 40.6479 64.4672 44 68.6577 44C69.2403 44 69.8117 43.9332 70.3607 43.8107L70.3159 43.8218C73.8117 43.1425 76.4111 40.1245 76.4111 36.5052C76.4111 33.8102 74.9658 31.4381 72.8033 30.1352L72.7697 30.1129C71.6156 29.389 70.2151 28.9658 68.7137 28.9658C64.5008 28.9658 61.0834 32.3179 60.9826 36.4829ZM66.3159 33.5206C66.9658 32.9861 67.8173 32.6631 68.7361 32.6631C70.8537 32.6631 72.568 34.367 72.568 36.4718C72.568 37.6634 72.019 38.7213 71.1562 39.4229L71.1002 39.4675C70.4616 39.9575 69.6436 40.2582 68.7697 40.2582C66.6521 40.2582 64.9266 38.5543 64.9266 36.4495C64.9266 35.269 65.4644 34.2111 66.3159 33.5206ZM23.7501 43.7327H27.4252V29.2331H23.7501V43.7327ZM32.4111 40.2693L32.3999 43.5991L32.6464 43.6436C33.2963 43.7661 34.0918 43.8775 34.8985 43.9332H34.9658C35.3579 43.9666 35.8173 43.9889 36.2767 43.9889C36.5344 43.9889 36.7921 43.9777 37.061 43.9666H37.0274C37.7333 43.9109 38.3943 43.7773 39.0218 43.588L38.9546 43.6102C39.7277 43.3875 40.3999 43.02 40.9602 42.5411L40.949 42.5523C41.4644 42.1068 41.8677 41.55 42.103 40.9152L42.1142 40.8929C42.3047 40.4029 42.428 39.8461 42.428 39.2559C42.428 38.6434 42.3047 38.0532 42.0918 37.5297L42.103 37.5631C41.8677 36.9952 41.5092 36.5052 41.061 36.1265C40.6352 35.7479 40.1198 35.4361 39.5596 35.2468L39.526 35.2356L36.9938 34.3002C36.6913 34.1665 36.4448 33.9438 36.3103 33.6543V33.6431C36.2655 33.5429 36.2319 33.4204 36.2319 33.2868C36.2319 33.1309 36.2767 32.9972 36.3439 32.8747V32.8859C36.4784 32.6743 36.6576 32.5072 36.8817 32.3958H36.8929C37.1506 32.2733 37.4532 32.1731 37.7781 32.1397H37.7893C38.0134 32.1063 38.2711 32.084 38.54 32.084C38.8425 32.084 39.145 32.1063 39.4364 32.162L39.4027 32.1508C40.1086 32.2288 40.7473 32.3513 41.3635 32.5072L41.2739 32.4849L41.4083 32.5072V29.4336L41.1731 29.3779C40.6576 29.2442 40.0078 29.1329 39.3579 29.0549L39.2795 29.0438C38.8985 28.9881 38.4392 28.9547 37.991 28.9547C37.5652 28.9547 37.1394 28.977 36.7361 29.0326L36.7809 29.0215C35.6829 29.1217 34.6969 29.5449 33.8901 30.1797L33.9013 30.1686C33.3523 30.6029 32.9266 31.1708 32.6801 31.8279L32.6688 31.8502C32.4896 32.3179 32.3887 32.8524 32.3887 33.4204C32.3887 33.9884 32.4896 34.5229 32.6801 35.0129L32.6688 34.9795C32.8705 35.5029 33.1618 35.9484 33.5428 36.3047C33.8789 36.6277 34.2487 36.895 34.6632 37.1177L34.6857 37.1288C35.1899 37.3961 35.7613 37.63 36.3663 37.797L36.4224 37.8082C36.624 37.8638 36.8257 37.9306 37.0162 37.9975L37.3075 38.1088L37.3971 38.1422C37.6997 38.2536 37.9686 38.4207 38.1927 38.6322C38.3495 38.777 38.4728 38.9552 38.54 39.1445V39.1557C38.5624 39.2447 38.5736 39.345 38.5736 39.4452C38.5736 39.5454 38.5624 39.6345 38.54 39.7236V39.7125C38.4392 40.0132 38.2375 40.2582 37.9686 40.4029C37.6885 40.5477 37.3635 40.6479 37.0162 40.7036H37.005C36.6801 40.7593 36.2991 40.7927 35.9069 40.7927C35.7725 40.7927 35.6268 40.7927 35.4924 40.7816H35.5148C34.7753 40.7259 34.103 40.6257 33.4532 40.5032L33.5652 40.5254C33.2291 40.4475 32.8929 40.3695 32.5568 40.2916L32.4111 40.2693ZM18.6745 43.4766V39.6122L18.596 39.6457C17.7781 40.0466 16.8257 40.3027 15.8061 40.3473H15.7949C15.6941 40.3584 15.582 40.3584 15.47 40.3584C14.5288 40.3584 13.6548 40.0466 12.9602 39.512L12.9714 39.5232C12.3999 39.0888 11.9742 38.4986 11.7501 37.8193L11.7389 37.797C11.6044 37.4072 11.526 36.9618 11.526 36.494C11.526 36.1377 11.5708 35.7813 11.6604 35.4472L11.6492 35.4695C11.8397 34.6677 12.2767 33.9772 12.8929 33.4984L12.9041 33.4872C13.442 33.0418 14.1142 32.7299 14.8537 32.6409H14.8761C15.089 32.6186 15.3467 32.5963 15.5932 32.5963C16.6913 32.5963 17.7221 32.8636 18.6184 33.3424L18.5848 33.3202L18.6745 33.3647V29.4781L18.4952 29.4336C17.5876 29.1329 16.5344 28.9658 15.4476 28.9658C15.2795 28.9658 15.1002 28.977 14.9322 28.977H14.9546C13.8005 29.0104 12.7249 29.2665 11.7389 29.712L11.7949 29.6897C10.7641 30.1686 9.90134 30.8368 9.21787 31.6608L9.20667 31.672C8.16465 32.9749 7.52599 34.6454 7.52599 36.4718C7.52599 38.2091 8.10863 39.8127 9.07221 41.1045L9.06101 41.0823C10.0806 42.3741 11.4924 43.3095 13.1282 43.6993L13.1731 43.7105C13.8565 43.8886 14.6408 43.9889 15.4588 43.9889C16.5008 43.9889 17.5092 43.8218 18.4504 43.5211L18.3831 43.5434L18.6745 43.4766ZM57.1618 43.4766V39.6122L57.0834 39.6457C56.2655 40.0466 55.3019 40.3027 54.2935 40.3473H54.2711C54.1702 40.3584 54.0694 40.3584 53.9574 40.3584C53.005 40.3584 52.1422 40.0466 51.4364 39.512L51.4476 39.5232C50.8873 39.0888 50.4504 38.4986 50.2263 37.8193L50.2151 37.797C50.0806 37.4072 50.0022 36.9618 50.0022 36.494C50.0022 36.1377 50.047 35.7813 50.1366 35.4472L50.1254 35.4695C50.3159 34.6677 50.7641 33.9772 51.3691 33.4984L51.3803 33.4872C51.9182 33.0418 52.5904 32.7299 53.3299 32.6409H53.3411C53.554 32.6186 53.8117 32.5963 54.0582 32.5963C55.1562 32.5963 56.1871 32.8636 57.0834 33.3424L57.0498 33.3202L57.1394 33.3647V29.4781L56.9602 29.4336C56.0526 29.1329 54.9994 28.9658 53.9125 28.9658C53.7333 28.9658 53.5652 28.977 53.3971 28.977H53.4196C52.2655 29.0104 51.1899 29.2665 50.2039 29.712L50.2487 29.6897C49.2179 30.1686 48.3551 30.8368 47.6717 31.6608L47.6604 31.672C46.6072 32.9749 45.9798 34.6454 45.9798 36.4718C45.9798 38.2091 46.5512 39.8127 47.5372 41.1045L47.526 41.0823C48.5456 42.3741 49.9574 43.3095 51.582 43.6993L51.638 43.7105C52.3215 43.8775 53.1058 43.9777 53.9125 43.9777C54.9546 43.9777 55.963 43.8107 56.9041 43.51L56.8369 43.5323L57.1618 43.4766Z" fill="white"/>
</svg>
