<svg width="208" height="44" viewBox="0 0 208 44" fill="none" xmlns="http://www.w3.org/2000/svg">
<path d="M119.4 27.0085L131.769 14.9881H119.583V9.32704H140.423V15.0795L128.054 27.0584H140.656V32.7194H119.4V27.0085ZM110.604 1.62932H117.051V7.44833H110.604V1.62932ZM110.521 9.39354H116.968V32.7859H110.521V9.39354ZM32.5841 21.0232C32.6091 14.3397 38.0731 8.93633 44.7948 8.95296C51.5165 8.96958 56.9556 14.3979 56.9472 21.0814C56.9389 27.765 51.4832 33.185 44.7615 33.185C41.5214 33.1933 38.4146 31.9131 36.124 29.6271C33.8418 27.341 32.5674 24.2486 32.5841 21.0232ZM50.6919 21.0232C50.6919 17.6981 48.0599 14.9382 44.7698 14.9382C41.4298 14.9382 38.8894 17.6981 38.8894 21.0232C38.8894 24.3484 41.4298 27.1083 44.7698 27.1083C48.0599 27.0999 50.6919 24.3401 50.6919 21.0232ZM86.0247 9.32704H92.4216V11.9456C93.9292 10.0253 96.2281 8.86152 98.9101 8.86152C104.466 8.86152 107.797 12.4194 107.797 18.4546V32.7194H101.259V19.2858C101.259 16.1519 99.8013 14.3231 96.9361 14.3231C94.4872 14.3231 92.4715 16.0023 92.4715 19.9259V32.6945H86.033L86.0247 9.32704ZM141.023 21.0232C141.023 12.7436 147.145 8.8532 152.459 8.8532C155.516 8.8532 157.915 9.97544 159.464 11.6131V9.32704H165.902V32.7194H159.464V30.1009C157.915 31.9214 155.416 33.185 152.359 33.185C147.378 33.185 141.023 29.2613 141.023 21.0232ZM159.647 20.9734C159.647 17.5069 157.107 14.7055 153.625 14.7055C150.052 14.7055 147.32 17.3739 147.32 20.9734C147.32 24.5728 150.043 27.2911 153.625 27.2911C157.115 27.2911 159.655 24.4315 159.647 20.9734ZM168.509 9.32704H174.906V11.9456C176.414 10.0253 178.713 8.86152 181.395 8.86152C186.942 8.86152 190.282 12.4194 190.282 18.4546V32.7194H183.744V19.2858C183.744 16.1519 182.294 14.3231 179.421 14.3231C176.972 14.3231 174.956 16.0023 174.956 19.9259V32.6945H168.518L168.509 9.32704ZM119.4 32.7194V27.0085L131.769 14.9881H119.583V9.32704H140.423V15.0795L128.054 27.0584M25.7041 20.8154L25.6125 20.9983C23.83 24.7308 20.565 26.8672 16.6336 26.8672C10.953 26.8755 6.49683 22.3949 6.49683 16.6839C6.49683 10.8234 10.9197 6.40922 16.7835 6.40922C20.5816 6.40922 23.4719 8.17986 25.3626 11.6713L25.4626 11.8541L31.2014 8.2048L31.1015 8.04685C28.1279 3.00926 22.7722 0 16.7835 0C7.21315 0 0 7.174 0 16.6922C0 26.3601 7.05489 33.3845 16.7835 33.3845C23.0554 33.3845 28.5861 29.9263 31.6012 24.1239L31.6929 23.9494L25.7041 20.8154ZM58.5714 21.0232C58.5714 12.7436 64.6934 8.8532 70.0075 8.8532C73.0644 8.8532 75.4632 10.1168 77.0124 11.8458V9.32704H83.451V32.071C83.451 38.6715 79.2613 44 71.3152 44C65.3431 44 60.9703 40.9076 59.0795 37.2666L64.7684 34.0828C65.9928 36.5184 68.1501 38.0563 71.3069 38.0563C74.7885 38.0563 76.9958 35.3463 76.9958 32.3038V30.1009C75.4465 31.9214 72.9477 33.185 69.8992 33.185C64.9183 33.185 58.5714 29.2613 58.5714 21.0232ZM77.1957 20.9734C77.1957 17.5069 74.6553 14.7055 71.1736 14.7055C67.6004 14.7055 64.8684 17.3739 64.8684 20.9734C64.8684 24.5728 67.592 27.2911 71.1736 27.2911C74.6553 27.2911 77.1957 24.4315 77.1957 20.9734ZM206.158 15.0795V9.32704H201.735V1.60438H195.296V9.31872H191.298V15.0712H195.288V22.5528C195.288 30.1757 197.737 32.7028 205.217 32.7028H206.158V26.7176C202.21 26.7176 201.735 26.1523 201.735 22.5112V15.0712L206.158 15.0795ZM207.524 4.39751C206.882 5.0376 205.841 5.0376 205.2 4.39751C204.883 4.08993 204.708 3.67429 204.717 3.2337C204.717 2.49386 205.217 1.84546 205.941 1.65426C206.658 1.46306 207.415 1.77895 207.79 2.41904C208.148 3.06745 208.04 3.8738 207.524 4.39751ZM205.358 2.24447C205.092 2.50217 204.942 2.86794 204.95 3.24202C204.942 3.6161 205.092 3.98186 205.358 4.24787C205.908 4.79652 206.807 4.80484 207.357 4.25619C207.357 4.25619 207.357 4.25619 207.366 4.24787C207.632 3.98186 207.782 3.62441 207.782 3.24202C207.79 2.66843 207.44 2.15303 206.907 1.9369C206.374 1.71245 205.758 1.83714 205.358 2.24447ZM206.324 2.33592C206.491 2.3276 206.658 2.35254 206.816 2.40242C206.999 2.47723 207.116 2.66012 207.099 2.85963C207.107 3.00094 207.041 3.13395 206.924 3.21708C206.841 3.26696 206.757 3.29189 206.666 3.30021C206.791 3.30852 206.899 3.37502 206.974 3.47478C207.032 3.55791 207.066 3.64935 207.074 3.7491V4.01511C207.074 4.04837 207.082 4.08162 207.091 4.10656L207.099 4.13149H206.799C206.799 4.12318 206.799 4.12318 206.799 4.11487V3.89873C206.824 3.74079 206.757 3.58285 206.633 3.48309C206.524 3.43321 206.399 3.41659 206.274 3.4249H206.024V4.13149H205.7V2.33592H206.324ZM206.666 2.61855C206.541 2.56868 206.416 2.54374 206.283 2.55205H206.008V3.20045H206.299C206.399 3.20877 206.508 3.19214 206.599 3.15889C206.757 3.08407 206.832 2.89288 206.757 2.73493C206.741 2.69337 206.707 2.6518 206.666 2.61855Z" fill="white"/>
</svg>
