<svg width="134" height="44" viewBox="0 0 134 44" fill="none" xmlns="http://www.w3.org/2000/svg">
<path d="M57.2197 23.1592C57.2197 29.4977 52.2623 34.1591 46.1951 34.1591C40.1278 34.1591 35.1704 29.4977 35.1704 23.1592C35.1704 16.7959 40.1278 12.1592 46.1951 12.1592C52.2623 12.1592 57.2197 16.7713 57.2197 23.1592ZM52.3856 23.1592C52.3856 19.213 49.5246 16.5 46.1951 16.5C42.8655 16.5 40.0045 19.213 40.0045 23.1592C40.0045 27.0807 42.8655 29.8183 46.1951 29.8183C49.5246 29.8183 52.3856 27.056 52.3856 23.1592Z" fill="white"/>
<path d="M80.9953 23.1592C80.9953 29.4977 76.0379 34.1591 69.9707 34.1591C63.9034 34.1591 58.946 29.4731 58.946 23.1592C58.946 16.7959 63.9034 12.1592 69.9707 12.1592C76.0379 12.1592 80.9953 16.7713 80.9953 23.1592ZM76.1613 23.1592C76.1613 19.213 73.3003 16.5 69.9707 16.5C66.6411 16.5 63.7801 19.213 63.7801 23.1592C63.7801 27.0807 66.6411 29.8183 69.9707 29.8183C73.3003 29.8183 76.1613 27.056 76.1613 23.1592Z" fill="white"/>
<path d="M103.785 12.8251V32.556C103.785 40.6703 98.9999 43.9999 93.3273 43.9999C87.9999 43.9999 84.7937 40.4484 83.5852 37.5134L87.778 35.7623C88.5179 37.5627 90.3677 39.6591 93.3026 39.6591C96.9282 39.6591 99.1726 37.4147 99.1726 33.2219V31.6435H98.9999C97.9147 32.9753 95.843 34.1345 93.204 34.1345C87.704 34.1345 82.6726 29.3497 82.6726 23.1838C82.6726 16.9686 87.704 12.1592 93.204 12.1592C95.8183 12.1592 97.9147 13.3184 98.9999 14.6255H99.1726V12.8251H103.785ZM99.5425 23.1838C99.5425 19.3116 96.9528 16.4753 93.6726 16.4753C90.343 16.4753 87.556 19.3116 87.556 23.1838C87.556 27.0067 90.343 29.7937 93.6726 29.7937C96.9775 29.8183 99.5425 27.0313 99.5425 23.1838Z" fill="white"/>
<path d="M111.356 1.25781V33.4685H106.646V1.25781H111.356Z" fill="white"/>
<path d="M129.681 26.7601L133.43 29.2511C132.222 31.0515 129.311 34.1098 124.28 34.1098C118.04 34.1098 113.379 29.2758 113.379 23.1098C113.379 16.574 118.089 12.1099 123.737 12.1099C129.435 12.1099 132.222 16.648 133.134 19.0897L133.628 20.3475L118.928 26.4394C120.063 28.6345 121.814 29.769 124.255 29.769C126.746 29.8184 128.448 28.6098 129.681 26.7601ZM118.163 22.8139L127.98 18.7444C127.437 17.3632 125.809 16.426 123.91 16.426C121.444 16.4013 118.04 18.5717 118.163 22.8139Z" fill="white"/>
<path d="M17.3385 20.2982V15.6368H33.0493C33.1973 16.4507 33.2712 17.4125 33.2712 18.4484C33.2712 21.9506 32.3094 26.2668 29.2264 29.3497C26.2174 32.482 22.3946 34.1345 17.3139 34.1345C7.91703 34.1345 0 26.4641 0 17.0672C0 7.67039 7.91703 0 17.3139 0C22.5179 0 26.2174 2.04708 29.0044 4.71076L25.7242 7.99102C23.7264 6.11659 21.0134 4.66143 17.3139 4.66143C10.4574 4.66143 5.08071 10.1861 5.08071 17.0672C5.08071 23.9484 10.4574 29.473 17.3139 29.473C21.778 29.473 24.2937 27.6726 25.9215 26.0695C27.2287 24.7623 28.1165 22.8632 28.4372 20.2982H17.3385Z" fill="white"/>
</svg>
