<svg width="206" height="44" viewBox="0 0 206 44" fill="none" xmlns="http://www.w3.org/2000/svg">
<path d="M72.7153 25.3454L71.4876 28.8226H71.3887C71.1827 28.0398 70.8119 26.845 70.194 25.4113L63.6104 8.86602H57.167V35.233H61.4269V18.9679C61.4269 17.9462 61.4269 16.7844 61.394 15.3507C61.361 14.6338 61.2951 14.09 61.2539 13.678H61.3528C61.5587 14.6997 61.7977 15.4495 61.9707 15.9274L69.8808 35.1671H72.8801L80.7243 15.7626C80.8973 15.3177 81.0621 14.4361 81.2351 13.678H81.334C81.2351 15.6226 81.161 17.3611 81.128 18.4158V35.1259H85.6681V8.8001H79.4636L72.7153 25.3454ZM89.9775 16.2323H94.4104V35.1259H89.9775V16.2323ZM92.2269 8.25628C91.4771 8.25628 90.8591 8.52819 90.3482 9.00609C89.8374 9.48399 89.5655 10.0937 89.5655 10.8518C89.5655 11.5686 89.8374 12.1784 90.3482 12.6563C90.8591 13.1342 91.4771 13.3731 92.2269 13.3731C92.9767 13.3731 93.6276 13.1012 94.1055 12.6563C94.6164 12.1784 94.8883 11.5686 94.8883 10.8518C94.8883 10.1349 94.6164 9.52519 94.1055 9.00609C93.6606 8.52819 93.0097 8.25628 92.2269 8.25628ZM110.132 16.0675C109.316 15.8945 108.459 15.7956 107.643 15.7956C105.633 15.7956 103.787 16.2405 102.255 17.1222C100.722 18.0121 99.4943 19.2398 98.7033 20.7724C97.8876 22.3379 97.4756 24.1507 97.4756 26.2271C97.4756 28.0316 97.8876 29.6383 98.6703 31.105C99.4531 32.5387 100.549 33.7005 102.016 34.4832C103.416 35.266 105.048 35.678 106.894 35.678C109.011 35.678 110.816 35.2331 112.249 34.4173L112.282 34.3844V30.2892L112.109 30.4293C111.458 30.9072 110.709 31.3192 109.959 31.5581C109.176 31.8301 108.459 31.9701 107.841 31.9701C106.07 31.9701 104.669 31.4593 103.68 30.3304C102.658 29.2428 102.147 27.7349 102.147 25.8645C102.147 23.9199 102.658 22.3874 103.713 21.2585C104.768 20.1297 106.168 19.5529 107.874 19.5529C109.308 19.5529 110.774 20.0308 112.101 20.9866L112.274 21.1267V16.7926L112.241 16.7596C111.673 16.5125 111.022 16.2323 110.132 16.0675ZM124.765 15.9274C123.678 15.9274 122.648 16.2653 121.766 16.9821C121.016 17.6001 120.506 18.4817 120.061 19.5364H120.028V16.2323H115.595V35.1259H120.028V25.4772C120.028 23.8375 120.365 22.478 121.115 21.4892C121.865 20.4675 122.821 19.9566 123.983 19.9566C124.395 19.9566 124.798 20.0555 125.309 20.1297C125.787 20.2698 126.125 20.4016 126.364 20.5746L126.537 20.7147V16.2817L126.438 16.2488C126.133 16.0346 125.515 15.9274 124.765 15.9274ZM136.837 15.8286C133.73 15.8286 131.242 16.7514 129.503 18.5559C127.732 20.3604 126.875 22.857 126.875 25.9881C126.875 28.9214 127.765 31.311 129.47 33.0495C131.176 34.7551 133.491 35.645 136.392 35.645C139.424 35.645 141.846 34.7222 143.585 32.8847C145.356 31.039 146.213 28.5836 146.213 25.5514C146.213 22.5522 145.398 20.1626 143.725 18.4241C142.127 16.6772 139.77 15.8286 136.837 15.8286ZM140.388 30.3551C139.572 31.4098 138.27 31.9207 136.672 31.9207C135.065 31.9207 133.771 31.4098 132.849 30.281C131.926 29.2263 131.481 27.6855 131.481 25.7409C131.481 23.7304 131.959 22.1896 132.849 21.102C133.771 20.0143 135.032 19.4623 136.631 19.4623C138.196 19.4623 139.424 19.9731 140.314 21.0278C141.204 22.0825 141.682 23.6233 141.682 25.6338C141.616 27.6937 141.237 29.3005 140.388 30.3551ZM156.109 24.0847C154.709 23.508 153.827 23.063 153.415 22.684C153.077 22.3462 152.904 21.8683 152.904 21.2503C152.904 20.7394 153.11 20.2286 153.621 19.8825C154.132 19.5447 154.709 19.3716 155.565 19.3716C156.315 19.3716 157.098 19.5117 157.848 19.7095C158.598 19.9072 159.282 20.2203 159.825 20.6323L159.998 20.7724V16.6113L159.9 16.5784C159.389 16.3724 158.705 16.1664 157.889 16.0016C157.073 15.8615 156.324 15.7956 155.706 15.7956C153.588 15.7956 151.849 16.3065 150.49 17.4353C149.122 18.49 148.479 19.9237 148.479 21.5963C148.479 22.4862 148.619 23.269 148.924 23.9117C149.229 24.5626 149.674 25.1724 150.292 25.6832C150.91 26.1611 151.792 26.705 153.019 27.2158C154.041 27.6608 154.824 27.9986 155.302 28.2705C155.78 28.5424 156.085 28.8473 156.324 29.0862C156.497 29.3581 156.595 29.7042 156.595 30.1409C156.595 31.4016 155.64 32.0196 153.695 32.0196C152.945 32.0196 152.162 31.8795 151.24 31.5746C150.317 31.2698 149.468 30.8248 148.751 30.3139L148.578 30.1739V34.508L148.677 34.5409C149.328 34.8458 150.111 35.0518 151.067 35.2907C152.022 35.4638 152.871 35.5956 153.621 35.5956C155.903 35.5956 157.782 35.0847 159.109 33.9559C160.476 32.8683 161.193 31.4675 161.193 29.6548C161.193 28.3941 160.855 27.2653 160.106 26.4166C159.117 25.6173 157.889 24.7604 156.109 24.0847ZM172.894 15.8286C169.787 15.8286 167.299 16.7514 165.56 18.5559C163.822 20.3604 162.932 22.857 162.932 25.9881C162.932 28.9214 163.822 31.311 165.527 33.0495C167.233 34.7551 169.548 35.645 172.449 35.645C175.481 35.645 177.903 34.7222 179.642 32.8847C181.413 31.039 182.27 28.5836 182.27 25.5514C182.27 22.5522 181.455 20.1626 179.782 18.4241C178.183 16.6772 175.827 15.8286 172.894 15.8286ZM176.404 30.3551C175.588 31.4098 174.286 31.9207 172.688 31.9207C171.048 31.9207 169.787 31.4098 168.864 30.281C167.941 29.2263 167.497 27.6855 167.497 25.7409C167.497 23.7304 167.974 22.1896 168.864 21.102C169.787 20.0143 171.048 19.4623 172.646 19.4623C174.179 19.4623 175.44 19.9731 176.329 21.0278C177.219 22.0825 177.697 23.6233 177.697 25.6338C177.706 27.6937 177.261 29.3005 176.404 30.3551ZM205.976 19.8825V16.2323H201.51V10.6376L201.37 10.6705L197.143 11.9312L197.044 11.9641V16.2323H190.362V13.8428C190.362 12.7552 190.634 11.8982 191.111 11.3544C191.589 10.8106 192.306 10.5387 193.196 10.5387C193.814 10.5387 194.457 10.6787 195.174 10.9836L195.347 11.0825V7.23456L195.248 7.2016C194.63 6.9956 193.814 6.86377 192.759 6.86377C191.433 6.86377 190.271 7.16864 189.208 7.6795C188.153 8.25628 187.362 9.04729 186.786 10.102C186.209 11.1237 185.896 12.2855 185.896 13.6121V16.2323H182.789V19.8495H185.896V35.1342H190.362V19.8907H197.044V29.6136C197.044 33.6016 198.923 35.6203 202.672 35.6203C203.29 35.6203 203.932 35.5214 204.55 35.4143C205.201 35.2742 205.679 35.1095 205.951 34.9694L205.984 34.9364V31.2862L205.811 31.4263C205.539 31.5993 205.3 31.7312 204.888 31.8383C204.55 31.9372 204.237 31.9784 203.998 31.9784C203.108 31.9784 202.499 31.7724 202.054 31.2615C201.642 30.7836 201.436 30.0008 201.436 28.839V19.8825H205.976Z" fill="white"/>
<path d="M0 0H20.9124V20.9124H0V0Z" fill="white"/>
<path d="M23.0876 0H44V20.9124H23.0876V0Z" fill="white"/>
<path d="M0 23.0879H20.9124V44.0002H0V23.0879Z" fill="white"/>
<path d="M23.0876 23.0879H44V44.0002H23.0876V23.0879Z" fill="white"/>
</svg>
