<svg width="185" height="24" viewBox="0 0 185 24" fill="none" xmlns="http://www.w3.org/2000/svg">
<path d="M79.6311 15.585H91.8271L85.3718 5.21037L73.5447 23.977H68.1729L82.536 1.45245C83.1585 0.553311 84.196 0 85.3487 0C86.4784 0 87.5159 0.530255 88.1153 1.42939L102.548 23.977H97.1758L94.6398 19.781H82.3055L79.6311 15.585ZM135.539 19.781V0.230548H130.974V21.6945C130.974 22.2709 131.205 22.8473 131.643 23.2853C132.081 23.7233 132.657 23.977 133.303 23.977H154.144L156.842 19.781H135.539ZM59.9654 16.2767C64.3919 16.2767 68.0115 12.7032 68.0115 8.2536C68.0115 3.82709 64.415 0.207491 59.9654 0.207491H39.977V23.9539H44.5418V4.40345H59.6657C61.7868 4.40345 63.4928 6.13256 63.4928 8.2536C63.4928 10.3746 61.7868 12.1037 59.6657 12.1037L46.7781 12.0807L60.4035 23.9539H67.0432L57.8674 16.2536H59.9654V16.2767ZM11.8732 23.977C5.32565 23.977 0 18.6744 0 12.1037C0 5.5562 5.32565 0.230548 11.8732 0.230548H25.683C32.2306 0.230548 37.5562 5.5562 37.5562 12.1037C37.5562 18.6513 32.2306 23.977 25.683 23.977H11.8732ZM25.3833 19.781C29.6254 19.781 33.0605 16.3458 33.0605 12.1037C33.0605 7.86167 29.6254 4.40345 25.3833 4.40345H12.1729C7.93084 4.40345 4.49568 7.86167 4.49568 12.1037C4.49568 16.3458 7.93084 19.781 12.1729 19.781H25.3833ZM112.115 23.977C105.568 23.977 100.242 18.6744 100.242 12.1037C100.242 5.5562 105.568 0.230548 112.115 0.230548H128.507L125.833 4.42651H112.415C108.173 4.42651 104.715 7.88472 104.715 12.1268C104.715 16.3689 108.173 19.804 112.415 19.804H128.876L126.179 24H112.115V23.977ZM167.977 19.781C164.473 19.781 161.499 17.4294 160.576 14.1787H180.104L182.801 9.98271H160.576C161.476 6.75504 164.473 4.3804 167.977 4.3804H181.372L184.092 0.184435H167.677C161.13 0.184435 155.804 5.51009 155.804 12.0576C155.804 18.6052 161.13 23.9308 167.677 23.9308H181.764L184.461 19.7349H167.977V19.781Z" fill="white"/>
</svg>
