<svg width="104" height="52" viewBox="0 0 104 52" fill="none" xmlns="http://www.w3.org/2000/svg">
<path fill-rule="evenodd" clip-rule="evenodd" d="M103.167 36.4732C103.213 36.3882 103.184 36.2464 103.111 36.1954C73.2932 15.4837 32.1476 14.911 0.873145 33.4172C0.788099 33.5363 0.799438 33.7404 0.918504 33.8254C1.5195 33.8028 2.02978 33.9105 2.65345 33.3662C3.12972 32.6291 3.71937 32.5611 4.33171 32.7198C4.39408 32.8956 4.37707 33.094 4.27501 33.2188C3.94049 33.3492 3.64567 33.0487 3.31115 33.2698C3.05034 33.712 2.41532 33.7857 1.98442 34.0295C0.878815 34.8573 1.19632 34.3527 0.578317 34.6135C0.277819 34.7496 0.0170093 35.0104 0 35.2939C0.277819 35.3733 1.29271 34.6476 1.49682 34.8687C1.46847 35.0955 0.0680373 35.43 0.0963862 35.7191C0.164423 35.9062 0.51595 35.6454 0.646354 35.7702C0.742741 35.8666 0.419563 36.4505 0.583987 36.5469C0.646354 36.5923 0.918504 36.3485 1.05458 36.2464C1.32673 36.2011 1.49115 36.15 1.78598 36.065C2.95395 35.9856 3.43021 34.5512 4.35439 34.2507C4.79096 34.0409 5.44865 34.5058 5.62442 33.6497C6.80373 34.0862 6.94547 33.077 7.73924 32.8332C8.35725 33.4569 8.59538 32.5951 8.89021 32.958C8.88454 33.2528 8.69744 33.4512 8.11345 33.5079C7.68822 33.5476 6.57127 34.0692 5.82853 34.846C5.02909 34.8347 4.67756 34.914 4.8023 35.3393C5.44865 36.0423 5.90791 35.2429 6.4522 35.1068C7.1099 35.0501 7.43875 34.4718 7.96603 34.3244C8.32323 34.262 8.33457 34.6929 8.69177 34.5342C9.15102 34.4208 9.13968 34.0636 9.35513 33.8708C9.50821 33.7347 9.83139 33.7971 10.0015 33.559C10.251 33.2131 10.5798 33.1054 10.7556 33.1791C10.9427 33.5306 10.0185 33.4229 9.67831 34.1486C9.34946 34.6192 8.60105 35.0558 8.69177 35.2826C8.76547 35.4243 9.16803 35.3733 9.36647 35.2996C9.65563 35.1918 10.0015 34.8517 10.37 34.4378C10.7726 33.8821 11.1978 33.644 11.4983 33.3775C11.8215 33.094 11.9859 32.9353 12.088 32.9239C12.1787 32.9126 12.2977 32.8672 12.3601 33.2018C12.3885 33.3662 12.7286 33.1847 12.8704 33.2925C12.9668 33.3662 12.859 33.5646 12.6549 33.8198C12.5019 34.0012 11.9462 33.8084 11.6684 34.0239C11.1468 34.4264 11.0731 35.0614 10.2396 35.4356C10.0752 35.5094 9.24173 36.048 9.92778 36.065C9.9788 36.065 10.1546 35.9629 10.319 35.8949C10.4891 35.8269 10.8576 36.0423 11.0844 35.7702C11.4756 35.3052 11.6741 35.43 11.7705 35.3846C11.9292 35.3109 11.6741 34.6816 11.9519 34.5965C12.2751 34.4945 12.7967 33.9955 12.8591 34.4434C12.8704 34.5342 12.5529 34.9537 12.791 34.9481C13.2786 34.9424 13.6301 34.6646 14.0384 34.6986C14.2765 34.7156 14.2311 34.3584 14.4806 34.3017C14.7528 34.2393 14.8151 34.3811 15.127 34.33C15.4898 34.2677 15.4388 33.7971 15.8357 33.7177C16.1929 33.6497 16.1248 33.9048 16.5331 33.8765C16.9526 33.8481 17.3609 33.3889 17.8881 33.4569C18.6479 33.5476 18.5118 33.1564 18.9881 32.8105C19.3339 32.5611 19.6118 33.1507 20.0823 32.8616C20.7797 32.442 20.5813 33.0373 21.0859 32.9353C21.2333 32.9069 21.1086 32.4363 21.3637 32.374C21.6018 32.3173 21.6132 32.8275 22.458 31.9487C23.042 31.4555 22.6961 32.0621 23.2291 32.0451C23.4729 32.0395 23.4162 31.5859 23.7167 31.4781C24.1816 31.3137 24.1646 31.9487 24.5218 31.9034C24.879 31.8637 24.9413 31.5008 25.2702 31.6426C25.6557 31.807 25.5423 31.0472 26.1717 31.24C26.8917 31.4781 26.8917 30.8942 27.3907 30.7581C27.7195 30.6674 27.6345 31.0983 27.9066 31.1153C28.2582 31.1323 28.0937 30.7297 28.6324 30.7071C28.8705 30.6957 28.6777 30.5029 28.8988 30.4066C29.103 30.3158 29.3921 30.5426 29.7493 30.4859C29.9591 30.4519 30.0611 30.1911 30.2709 30.089C30.4977 29.9813 30.8039 30.1401 30.9797 30.0664C31.2972 29.9473 31.059 30.4292 31.3255 30.4122C31.643 30.3895 31.8244 29.7489 32.0739 29.7035C32.4368 29.6355 32.1079 30.2818 32.4481 30.2818C32.7089 30.2818 33.1342 29.6808 33.3666 29.5674C33.48 29.5107 33.7011 29.6355 33.8486 29.6355C33.996 29.6355 34.0867 29.5221 34.1944 29.5731C34.3362 29.6468 34.3418 29.7659 34.4949 29.7659C34.8011 29.7659 34.8068 29.2839 35.0676 29.2839C35.3227 29.2839 35.1129 29.8793 35.5438 29.8963C36.0201 29.9133 36.1391 29.5674 36.553 29.4824C36.7231 29.4484 37.1824 29.1309 37.3468 29.2216C37.4942 29.3066 37.4545 29.7432 37.5963 29.7205C37.8684 29.6695 37.8457 29.0288 38.0782 29.0004C38.1689 28.9891 38.4638 28.8814 38.6112 29.0175C38.7586 29.1535 38.4127 29.5221 38.855 29.5164C39.4163 29.5107 39.2462 28.9097 40.4142 28.6886C40.6523 28.6433 41.0378 28.5639 41.3667 28.5582C41.5935 28.5582 41.7976 28.6319 41.9053 28.6206C42.3816 28.5866 43.113 28.1216 43.1413 28.4051C43.1753 28.7 41.7579 28.9211 41.945 29.2896C42.1661 29.7205 43.1073 28.7566 43.5722 28.7056C44.5418 28.4561 44.3093 29.0628 45.1654 28.9834C46.2654 28.8814 46.1123 27.9289 46.7643 27.8268C47.5184 27.7191 46.7303 28.3031 47.3029 28.4448C48.3745 28.8304 48.9302 27.9856 49.9961 28.0366C50.4043 27.9175 50.8465 27.6567 51.2208 27.6737C51.4589 27.8948 50.9826 28.2861 51.6346 28.3314C52.0315 28.2804 52.5361 28.3031 52.831 28.116C53.0011 27.6851 53.2732 27.3619 53.7211 27.3449C54.4468 27.1521 54.4185 27.6227 54.1804 27.8438C53.9819 28.0252 53.9139 28.1727 54.2031 28.3654C54.4298 28.3711 54.5773 27.9912 54.7473 28.0196C54.9061 28.0196 54.9118 28.2804 55.1839 28.3711C55.5581 28.3314 55.5014 27.6624 56.1081 28.1897C56.2895 28.3484 56.4766 27.9629 56.7148 28.0139C56.9019 28.0536 57.225 27.9856 57.3611 28.1443C57.4972 28.3031 57.14 28.6659 57.5879 28.717C57.8317 28.7283 57.8034 28.3654 57.9848 28.1897C58.0982 28.0819 58.1946 28.0876 58.2683 27.9232C58.3193 27.7247 57.5085 27.3222 58.5574 27.016C59.493 26.982 58.7219 27.4923 59.2435 27.7928C59.6744 27.8608 60.23 27.3619 60.247 28.0026C60.2527 28.2634 59.5156 28.1783 59.6234 28.5355C59.9068 28.819 60.4228 28.1727 61.2789 28.0706C61.5397 28.0423 61.7495 27.9856 61.8119 28.1273C61.8346 28.4335 61.4944 28.3824 61.5227 28.6262C61.6191 28.802 61.9026 28.6603 62.1124 28.6659C62.2995 28.6433 62.3052 28.5299 62.3278 28.3428C62.2371 28.1103 63.1783 28.4505 64.2726 28.3598C64.5334 28.3371 64.7091 28.5242 64.8906 28.5355C65.4972 28.6036 66.24 28.0933 66.6425 28.5979C66.7843 28.8304 69.1996 28.5355 69.1939 28.9041C69.3697 29.2953 68.2698 29.1762 67.8445 29.3236C67.5384 29.3803 67.2379 29.4824 67.4647 29.7885C67.5554 29.936 67.7481 29.919 67.9749 29.9019C68.3321 29.4143 69.1032 29.7489 69.6078 29.5107C69.8063 29.3123 69.948 28.9438 70.5263 28.9948C70.8438 28.9891 70.9629 29.1479 71.048 29.3123C71.5526 29.3803 72.386 29.0345 72.6525 29.8793C72.9247 29.8056 73.3726 29.2613 73.7298 30.021C74.3591 29.6638 75.3116 29.9246 75.6065 30.3725C76.3379 30.4859 76.9559 30.3555 77.6589 30.8828C78.2712 30.8601 79.1047 30.8261 79.7454 30.9565C80.3577 30.8885 80.4031 31.1493 80.2897 31.4498C80.4541 31.5405 80.5562 31.5802 80.6639 31.9544C81.6107 32.0338 82.3308 31.6993 83.1529 31.9884C83.5611 32.1869 84.2302 32.3116 84.3776 32.5838C84.3549 32.7425 83.1586 32.3513 83.2493 32.6518C83.2833 32.7879 84.0034 32.8899 84.3266 33.2074C84.7064 33.3945 84.559 33.1677 84.9559 33.1337C85.0466 33.128 85.2167 33.2698 85.3698 33.2755C85.5796 33.2811 85.778 33.1677 85.8517 33.2244C85.9708 33.3208 85.7667 33.5079 86.0445 33.678C86.2373 33.7971 86.5378 33.678 86.7419 33.8368C86.8666 33.9332 87.0197 33.8084 87.1218 33.8935C87.2238 33.9785 87.2522 34.1996 87.3656 34.2393C87.6547 34.4094 87.9722 34.3187 88.3181 34.3924C88.8907 34.5228 89.4634 35.0671 89.9226 35.5434C90.4499 35.6568 90.9999 35.6228 91.4478 35.7815C91.7029 35.8722 91.9524 35.8325 92.457 36.1444C92.7292 36.3145 93.1034 36.0763 93.5173 36.1671C94.1353 36.3031 94.6682 36.2918 94.6852 36.2067C94.759 35.8269 93.8688 35.6908 93.3699 35.8155C92.5194 36.1784 92.4003 35.413 92.0998 35.3563C91.2834 35.2032 91.255 34.9084 91.4648 34.177C91.5839 34.0182 91.89 34.0579 92.0545 34.5228C92.0998 34.6419 92.4457 34.5115 92.5534 34.5909C92.7405 34.7383 92.7745 35.0274 92.9843 35.1352C93.1998 35.2429 93.3925 34.9821 93.574 35.0955C93.8801 35.2826 94.2033 35.2939 94.2997 35.1975C94.4414 34.914 94.0276 34.4491 93.2054 34.4491C92.8539 34.4491 92.372 33.7064 92.1055 33.644C91.5725 33.5136 91.0396 33.5533 90.9035 33.5136C90.518 33.3152 90.3932 33.2585 90.0134 33.06C89.8376 32.9409 89.4861 32.9466 89.3613 33.1507C89.3897 33.4966 88.9758 33.2981 88.681 33.2585C88.2841 33.1507 87.8305 33.0203 87.6264 32.7935C87.513 32.6631 87.8702 32.2776 87.3769 32.2266C86.895 32.1982 86.5718 32.2719 86.0842 31.9998C85.6646 31.4498 86.6909 32.0848 86.6342 31.6256C86.8496 31.3137 82.9375 31.0529 83.3797 30.4576C83.7709 30.5143 84.1338 30.5483 84.525 30.6107C84.7518 30.4973 84.6724 30.2365 84.3663 30.1457C83.822 30.1004 83.3797 29.8056 82.7957 29.8396C82.1947 29.8056 81.8602 30.2818 81.1912 30.2308C80.8397 30.1684 80.0686 29.8963 80.6185 29.7205C80.9247 29.6241 80.8567 29.335 80.5051 29.2329C80.3804 29.2159 80.0742 29.3293 79.9325 29.2386C79.7737 29.1365 79.8304 28.8814 79.598 28.87C79.3995 28.8644 79.1727 29.2216 78.997 29.1592C78.8156 29.0912 78.8722 28.8077 78.7135 28.717C78.6001 28.6546 78.43 28.7226 78.2826 28.7113C78.0388 28.6886 77.8007 28.6262 77.6192 28.7056C76.7858 29.0628 76.1167 28.7113 75.2719 28.5979C74.9884 28.5072 74.8807 28.3428 75.1869 28.2123C75.3626 28.2294 75.8559 28.3031 75.9466 28.116C76.0033 28.0026 75.6291 27.617 75.7539 27.5773C75.8276 27.549 76.2415 27.9232 76.3208 27.8892C76.4626 27.8268 76.593 27.6964 76.7461 27.6624C76.8595 27.6397 77.0806 27.9799 77.194 27.9515C77.3811 27.9119 77.5398 27.6851 77.6986 27.6851C78.3393 27.6964 78.6284 28.3371 79.2578 28.4108C79.5073 28.4391 79.8474 28.2747 80.0969 28.2577C80.6809 28.2294 80.1026 28.6659 80.5732 28.819C81.1061 28.9891 81.7978 28.6489 82.3081 28.734C82.5859 28.785 82.3081 29.3803 82.6767 29.403C82.9885 29.5051 83.1416 29.0968 83.4251 29.0685C83.6178 29.0515 83.7879 29.3803 83.9297 29.403C84.1792 29.4484 84.3606 29.0798 84.5647 29.1592C84.6611 29.1989 84.7575 29.3293 84.8879 29.369C85.0126 29.4087 85.1714 29.352 85.2848 29.4427C85.5399 29.6581 85.0977 29.9643 85.6533 30.0323C85.8631 30.055 86.1125 29.7432 86.311 29.7205C86.6285 29.6865 86.5094 29.9983 86.6058 30.055C86.6909 30.1061 86.9063 29.7205 87.0537 29.9133C87.2011 30.1174 86.6342 30.5143 87.014 30.6957C87.1615 30.7638 87.4506 30.4236 87.6831 30.3782C87.8418 30.3442 87.9722 30.5823 88.0459 30.6447C88.114 30.7014 88.5562 30.7127 88.7206 30.7637C88.9418 30.8375 89.3046 30.8998 89.2309 31.0983C89.1856 31.223 88.3181 31.0699 88.0403 31.1266C87.7681 31.1833 88.0856 31.4498 88.1253 31.4668C88.7093 31.4668 89.2479 31.875 89.8943 31.5008C90.2855 31.3194 90.1438 31.739 90.4783 31.756C90.7107 31.8183 91.1133 31.6596 91.2153 31.9374C91.3004 32.1585 90.7277 32.2606 90.9035 32.7482C91.1643 32.9296 91.2494 32.5327 91.4138 32.5384C91.5782 32.5441 91.754 32.8332 91.9127 32.8446C92.0488 32.9353 92.2189 32.8616 92.338 32.9466C92.457 33.0373 92.5194 33.2981 92.6555 33.3889C92.8312 33.3945 92.99 33.2641 93.1657 33.2641C93.3415 33.2698 93.5003 33.4739 93.7044 33.4115C93.7214 33.3889 93.7894 33.0373 93.625 32.9523C93.4719 32.8729 93.0864 33.0714 92.8709 32.9636C92.2983 32.6688 91.6803 32.3059 91.9184 32.0565C91.9864 31.9828 92.2076 31.875 92.406 31.9317C92.5024 31.9601 92.5818 32.0451 92.6668 32.1358C92.7519 32.2266 92.8426 32.3229 92.9616 32.3796C93.1487 32.4704 93.4322 32.3399 93.608 32.4193C93.9425 32.5667 94.1126 32.8786 94.1353 32.8446C94.4074 32.9693 94.3904 32.3966 94.878 32.9013C94.9801 33.0827 95.2466 33.1224 95.3713 33.2811C95.513 33.4626 95.5074 33.8708 95.7909 33.8595C95.9893 33.8538 95.6831 33.1791 95.8816 33.1734C96.0347 33.1677 96.5279 33.7914 96.8568 33.8254C97.1119 34.0012 97.5258 33.7404 97.7809 33.9161C97.9794 34.0522 98.0191 34.6135 98.2175 34.7496C98.4727 34.8233 98.5917 34.5115 98.8525 34.5852C99.1077 34.6589 99.4989 35.1238 99.754 35.1975C100.032 35.3393 100.65 35.2542 100.933 35.379C101.37 35.5717 101.064 35.9289 101.415 36.0423C101.67 36.1047 101.858 35.9006 102.113 35.9573C102.407 36.0366 102.606 36.6547 103.167 36.4732ZM53.2165 26.4717C53.6984 26.5057 53.9309 25.9444 54.3051 26.1882C54.5943 26.3413 54.2768 26.4717 54.186 26.6588C54.1067 26.8233 53.8742 26.8573 53.7551 26.9366C53.3696 27.0841 52.8763 26.7042 53.2165 26.4717ZM61.7042 27.1011C62.2825 27.2315 62.6397 26.5001 63.1556 26.8403C63.4448 26.9933 63.4448 27.1975 63.3541 27.3846C63.2747 27.549 62.651 27.5547 62.5376 27.634C62.2711 27.6907 62.2768 27.532 62.0897 27.5263C61.6191 27.498 61.4887 27.2428 61.7042 27.1011ZM75.1756 27.2145C75.0678 27.5036 74.9771 27.7588 74.5689 27.8155C74.4215 27.8325 74.172 27.7644 73.9509 27.7814C73.5597 27.8098 73.2308 27.9062 73.1344 27.8268C73.0154 27.498 73.3556 27.4526 73.571 27.3732C73.7694 27.1804 73.588 27.0274 73.8148 26.9026C74.1607 26.7892 74.4838 26.7269 74.7843 26.8516C75.0735 26.897 75.1926 27.0557 75.1756 27.2145ZM62.7304 24.5837C62.8268 24.3059 63.167 24.2152 63.6546 24.2548C64.0004 24.3285 64.3179 24.5497 64.2329 24.7538C64.1932 24.9806 63.9834 25.0373 63.8473 24.9976C63.6659 24.9579 63.6092 24.7765 63.4278 24.7538C63.269 24.7595 63.269 24.9692 63.0082 24.8955C62.7984 24.8955 62.7134 24.7198 62.7304 24.5837ZM67.8502 24.8445C67.8785 25.0259 67.6234 24.9352 67.5497 25.0713C67.391 25.3548 67.1585 25.4115 66.7956 25.3775C66.4441 25.3038 66.24 25.094 66.291 24.9409C66.3307 24.7141 66.5405 24.6517 66.6766 24.6857C67.0394 24.7084 66.9884 24.9239 67.1698 24.9466C67.3229 24.9409 67.3739 24.5157 67.6348 24.5894C67.8445 24.5894 67.8672 24.7084 67.8502 24.8445ZM65.6787 25.9558C65.7751 25.678 66.1323 25.9388 66.8637 25.8991C67.1925 25.8821 67.527 25.7857 67.7652 25.7914C68.0713 25.8027 68.2301 25.8877 68.1394 26.1656C68.0316 26.347 67.51 26.4434 67.3796 26.4094C67.0734 26.364 66.9544 26.33 66.7786 26.3016C66.6255 26.3073 66.0699 26.4094 65.8148 26.3357C65.5936 26.3357 65.622 26.0578 65.6787 25.9558ZM75.0565 26.0748C75.1529 25.797 75.4704 25.7176 75.975 26.0748C76.4796 26.0805 76.7971 26.3583 76.7461 26.5114C76.7007 26.7382 76.5646 26.7382 76.4286 26.6985C76.0714 26.6758 76.1621 26.4377 75.8729 26.4377C75.7142 26.4434 75.5781 26.6021 75.3173 26.5284C75.1075 26.5228 75.0338 26.2109 75.0565 26.0748ZM72.0458 26.1882C71.8134 26.1769 71.9098 25.9558 71.8134 25.8537C71.6943 25.729 71.5072 25.8027 71.5072 25.5702C71.6546 25.2074 72.8169 25.3718 72.8396 25.7006C72.8623 25.9388 72.7092 26.0295 72.5504 26.0352C72.3577 26.0465 72.2726 26.2223 72.0458 26.1882ZM70.464 26.5454C70.2599 26.5114 70.2882 26.4264 70.1918 26.3243C70.0671 26.1939 70.2485 26.0068 70.4243 25.9047C70.7815 25.8027 71.082 25.8764 71.116 26.0805C71.1443 26.1712 71.082 26.3753 70.9005 26.4207C70.7078 26.4661 70.6851 26.5795 70.464 26.5454Z" fill="white"/>
<path fill-rule="evenodd" clip-rule="evenodd" d="M51.5609 0C56.3292 0 60.2186 3.88947 60.2186 8.65209C60.2186 13.4204 56.3292 17.3042 51.5609 17.3042C46.7926 17.3042 42.9031 13.4147 42.9031 8.65209C42.9031 3.88947 46.7926 0 51.5609 0Z" fill="white"/>
<path fill-rule="evenodd" clip-rule="evenodd" d="M63.2293 37.3472C64.1195 37.3472 64.8509 37.8858 64.8509 38.5435C64.8509 39.2012 64.1252 39.7398 63.2293 39.7398C62.3335 39.7398 61.6078 39.2012 61.6078 38.5435C61.6135 37.8801 62.3392 37.3472 63.2293 37.3472Z" fill="white"/>
<path fill-rule="evenodd" clip-rule="evenodd" d="M22.4013 38.7924C24.4991 38.679 27.2376 38.9682 27.2546 41.4799C27.2433 44.2978 24.4764 44.4395 22.4013 44.3885C22.4013 42.5458 22.4013 40.6294 22.4013 38.7924ZM19.1241 51.1922C19.1978 51.5551 19.3793 51.6458 19.5607 51.6685C20.2694 51.6685 21.1482 51.6685 21.857 51.6685C22.1631 51.6401 22.3389 51.5041 22.4069 51.2716C22.4069 49.4856 22.4069 47.6996 22.4069 45.908C23.5012 45.908 24.2893 45.84 25.3836 45.84C28.4963 45.6585 30.3957 44.0937 30.5828 42.0185C30.7925 39.7109 29.3071 37.6528 25.5877 37.4033C23.66 37.4033 21.7039 37.4373 19.7762 37.4373C19.3056 37.5451 19.2149 37.5848 19.1185 38.0667C19.1241 42.4438 19.1241 46.8152 19.1241 51.1922Z" fill="white"/>
<path fill-rule="evenodd" clip-rule="evenodd" d="M32.641 41.2476H34.9089C35.13 41.2476 35.3114 41.429 35.3114 41.6501V51.2944C35.3114 51.5155 35.13 51.697 34.9089 51.697H32.641C32.4198 51.697 32.2384 51.5155 32.2384 51.2944V41.6501C32.2384 41.429 32.4198 41.2476 32.641 41.2476Z" fill="white"/>
<path fill-rule="evenodd" clip-rule="evenodd" d="M33.7749 37.3472C34.665 37.3472 35.3964 37.8858 35.3964 38.5435C35.3964 39.2012 34.6707 39.7398 33.7749 39.7398C32.8847 39.7398 32.159 39.2012 32.159 38.5435C32.1533 37.8801 32.879 37.3472 33.7749 37.3472Z" fill="white"/>
<path fill-rule="evenodd" clip-rule="evenodd" d="M50.9203 41.2476H53.1882C53.4093 41.2476 53.5907 41.429 53.5907 41.6501V51.2944C53.5907 51.5155 53.4093 51.697 53.1882 51.697H50.9203C50.6991 51.697 50.5177 51.5155 50.5177 51.2944V41.6501C50.5177 41.429 50.6991 41.2476 50.9203 41.2476Z" fill="white"/>
<path fill-rule="evenodd" clip-rule="evenodd" d="M52.0542 37.3472C52.9443 37.3472 53.6757 37.8858 53.6757 38.5435C53.6757 39.2012 52.95 39.7398 52.0542 39.7398C51.1583 39.7398 50.4326 39.2012 50.4326 38.5435C50.4326 37.8801 51.1583 37.3472 52.0542 37.3472Z" fill="white"/>
<path fill-rule="evenodd" clip-rule="evenodd" d="M62.0954 41.2476H64.3633C64.5844 41.2476 64.7658 41.429 64.7658 41.6501V51.2944C64.7658 51.5155 64.5844 51.697 64.3633 51.697H62.0954C61.8742 51.697 61.6928 51.5155 61.6928 51.2944V41.6501C61.6985 41.429 61.8742 41.2476 62.0954 41.2476Z" fill="white"/>
<path fill-rule="evenodd" clip-rule="evenodd" d="M56.4143 37.3584H58.6822C58.9033 37.3584 59.0847 37.5398 59.0847 37.761V51.2947C59.0847 51.5158 58.9033 51.6973 58.6822 51.6973H56.4143C56.1932 51.6973 56.0117 51.5158 56.0117 51.2947V37.761C56.0117 37.5398 56.1932 37.3584 56.4143 37.3584Z" fill="white"/>
<path fill-rule="evenodd" clip-rule="evenodd" d="M44.9216 43.4307C43.1243 42.2344 40.3234 43.5328 40.3121 46.4924C40.3234 50.7221 43.9237 51.1019 44.9216 49.8092C44.9216 47.7114 44.9216 45.5286 44.9216 43.4307ZM45.3185 37.3584H47.5864C47.8075 37.3584 47.9889 37.5398 47.9889 37.761V50.4386C47.9889 50.6597 47.8415 50.7504 47.6601 50.8752C46.9797 51.3628 46.0669 51.6236 45.0917 51.8504C44.9102 51.89 37.2107 53.2281 37.3864 46.9233C37.772 40.4824 44.4056 41.3443 44.9159 42.5973V37.761C44.9159 37.5398 45.0973 37.3584 45.3185 37.3584Z" fill="white"/>
<path fill-rule="evenodd" clip-rule="evenodd" d="M67.8558 38.43L70.1067 37.2734C70.3562 37.143 70.5263 37.3924 70.5263 37.6022V41.2366C71.2123 41.2366 71.9041 41.2366 72.5901 41.2366C72.6638 41.2479 72.7092 41.2876 72.7148 41.367C72.7148 41.6108 72.7148 41.8602 72.7148 42.104C72.7205 42.1947 72.6638 42.2401 72.5901 42.2344L70.5263 42.2401C70.5263 44.5534 70.5263 46.8723 70.5263 49.1856C70.583 50.6257 71.8814 50.5577 72.7035 50.62C73.3952 50.6541 73.3498 51.3458 72.4937 51.6803C71.5525 52.0488 69.7439 52.1395 68.4342 51.2324C67.578 50.569 67.4533 49.7696 67.4533 49.0608V42.2458C66.9884 42.2458 66.5291 42.2401 66.0642 42.2401C65.9848 42.2344 65.9451 42.1891 65.9395 42.121C65.9395 41.8602 65.9451 41.5994 65.9451 41.3386C65.9508 41.2706 66.0018 41.2195 66.0699 41.2195L67.4533 41.2366V38.8212C67.4533 38.6114 67.6574 38.5321 67.8558 38.43Z" fill="white"/>
<path fill-rule="evenodd" clip-rule="evenodd" d="M80.8057 44.9043C81.0268 43.9121 80.0289 42.6931 78.4641 42.8745C76.6724 43.09 76.1961 44.6662 76.2925 45.3976C77.6759 45.2615 79.4222 45.0347 80.8057 44.9043ZM76.3662 46.5486C76.5023 50.1319 80.7603 50.7896 82.7674 48.3742C83.2834 47.4841 84.3266 48.0907 83.9411 49.0716C83.5725 50.4947 81.4067 52.0709 79.2408 51.9972C75.992 51.8385 73.9396 50.2793 73.7638 46.9511C73.6447 44.3373 74.9545 41.5705 79.1898 41.355C81.6845 41.2473 83.7086 42.9142 83.9184 44.8193C84.0431 45.5393 83.6179 45.7661 83.221 45.8115C80.9474 46.0383 78.6455 46.3161 76.3662 46.5486Z" fill="white"/>
</svg>
