<svg width="119" height="41" viewBox="0 0 119 41" fill="none" xmlns="http://www.w3.org/2000/svg">
<path d="M108.146 0.514316C108.612 0.263385 109.152 0.227539 109.654 0.227539C109.51 0.765249 109.331 1.30552 109.116 1.80738C110.767 3.96334 113.282 5.11301 115.223 6.94379C116.91 8.45193 118.6 10.4287 118.564 12.833C118.564 17.3933 118.493 21.9203 118.493 26.4806C118.493 28.2396 116.841 29.2459 115.333 29.6761C113.356 30.2497 111.346 31.6144 109.19 31.005C107.213 30.1421 106.532 27.8812 106.066 25.9761C105.6 23.0315 105.923 19.9768 106.858 17.1398C107.288 15.8109 108.079 14.5537 109.264 13.7266C110.45 12.792 111.994 12.3618 112.929 11.1405C111.277 8.94867 108.763 7.61977 106.786 5.75315C105.815 4.81855 104.737 3.92237 104.128 2.701C105.488 1.87908 106.817 1.16213 108.146 0.514316ZM111.451 16.0669C110.806 18.9398 110.301 21.8486 110.481 24.7957C110.624 25.9454 110.624 27.2743 111.523 28.1372C111.953 28.6391 112.708 28.8209 113.282 28.3882C114.467 27.7429 114.181 26.1963 114.217 25.0825C114.109 21.2392 114.396 17.36 114.109 13.5166C112.598 13.194 111.738 14.8456 111.451 16.0669Z" fill="#FDFDFD"/>
<path d="M3.23069 7.51739C4.16528 7.05138 5.02562 6.08094 6.13945 6.26018C7.28912 6.6545 7.75514 7.91171 8.25956 8.88215C9.55262 8.09095 10.7023 7.12307 11.9954 6.36772C12.9658 5.75831 14.0079 6.61865 14.6532 7.30231C16.3047 9.24062 17.0601 11.7909 17.3468 14.2695C17.4185 15.5984 17.3827 17.2499 16.1972 18.1128C15.1192 18.9399 13.8261 19.5134 13.0016 20.6273C13.9362 23.8586 16.1613 26.4448 17.9947 29.1768C17.311 30.0756 16.3073 30.685 15.2293 31.0435C13.6495 31.1152 12.6073 29.6787 11.7444 28.529C10.308 26.5907 9.58847 24.2555 8.25956 22.2788C8.00863 24.5423 8.29541 26.8391 8.11617 29.1384C6.60802 29.7837 5.09987 30.324 3.51747 30.79C3.48162 24.3964 3.44578 18.0027 3.44578 11.6091C3.48163 10.9639 3.37408 10.2085 2.76212 9.85003C2.04261 9.63494 1.28982 9.63494 0.570312 9.49155C1.07474 8.48783 2.3678 8.1652 3.23069 7.51739ZM9.87525 9.78089C8.83311 10.6796 8.11617 12.0085 8.22371 13.4092C8.25956 15.3116 8.08032 17.2525 8.40295 19.155C9.40923 19.4776 10.4514 19.5134 11.4909 19.3342C12.318 19.0116 12.7123 18.077 12.7482 17.2499C12.8915 15.1657 12.9991 12.9047 11.7777 11.1072C11.3475 10.4646 10.774 9.45827 9.87525 9.78089Z" fill="#FDFDFD"/>
<path d="M67.0568 6.94357C67.7405 6.33417 68.8517 6.33417 69.5712 6.90772C71.4737 8.20079 72.6234 10.5718 72.4083 12.8353C71.9064 17.7925 71.5454 22.7497 71.0435 27.7043C71.5812 27.9194 72.1215 28.1344 72.6592 28.3495C72.0498 28.8155 71.3662 29.1766 70.6466 29.4634C69.246 30.0369 67.8813 30.7564 66.409 31.1507C66.6958 26.4087 67.236 21.705 67.5945 16.9629C67.7737 14.8786 68.314 12.5818 67.236 10.641C66.8417 9.88561 65.7996 9.77807 65.1159 10.2108C64.1813 10.8202 63.3927 11.8982 63.4285 13.0479C63.3568 17.7182 63.3927 22.3861 63.3927 27.0565C63.321 27.5942 63.5002 28.3495 62.9267 28.6722C61.777 29.4992 60.5915 30.3237 59.2984 30.8998C59.1192 29.4275 59.2267 27.9194 59.1909 26.4471C59.2267 22.1736 59.1192 17.8975 59.155 13.624C59.155 12.6177 59.1192 11.468 58.3997 10.6794C57.6802 10.1058 56.8198 10.7152 56.3513 11.3246C55.5959 12.1875 55.8135 13.4089 55.7777 14.4843C55.7419 19.2264 55.8494 24.0018 55.7419 28.7439C54.4488 29.6068 53.1199 30.5388 51.6476 31.079C51.5042 24.9722 51.6476 18.8679 51.5759 12.7611C51.4683 11.8265 51.1099 10.6051 50.0319 10.4617C49.4583 10.2108 48.3804 10.4617 48.5237 9.56298C49.7093 8.77178 51.0382 8.26992 52.2595 7.55041C52.7973 7.29948 53.4809 6.72336 54.0903 7.15609C54.9174 7.91145 55.3117 8.98687 55.8852 9.88561C57.0708 8.95102 57.9695 7.72965 59.1909 6.86932C59.8745 6.33161 60.8783 6.51084 61.4544 7.0844C62.2814 7.8756 62.8908 8.87933 63.6462 9.77807C64.865 8.95614 65.8713 7.87816 67.0568 6.94357Z" fill="#FDFDFD"/>
<path d="M98.6639 6.80018C99.2733 6.15493 100.315 6.04483 101.035 6.5851C102.866 7.80647 104.23 10.0341 103.944 12.2951C103.514 17.2522 103.224 22.2094 102.794 27.1282C103.224 27.4149 103.657 27.7376 104.087 28.0628C102.292 29.2483 100.495 30.4696 98.4847 31.1507C98.6639 25.9426 99.2759 20.7345 99.5985 15.4906C99.6702 13.8749 100.208 12.1133 99.3475 10.5693C98.9532 9.74222 97.8036 9.81392 97.1557 10.2466C95.8985 11.1812 94.8205 12.6177 94.8922 14.2692C94.8922 19.1189 94.9281 23.9659 94.8922 28.8514C93.5992 29.7501 92.3778 30.8281 90.8697 31.2583C90.6187 25.3307 90.9414 19.3698 90.6904 13.4063C90.6904 12.3642 90.8338 10.9277 89.6841 10.4259C88.8571 10.2825 87.9609 10.3542 87.1697 9.99571C87.3489 9.56555 87.6357 9.20451 88.0685 9.02528C89.3257 8.41587 90.5829 7.80391 91.8401 7.2662C92.4137 7.01527 93.3124 6.90773 93.6709 7.51713C94.2803 8.41587 94.5696 9.49385 95.0356 10.4259C96.4004 9.35046 97.4425 7.98571 98.6639 6.80018Z" fill="#FDFDFD"/>
<path d="M18.2814 11.0382C19.2877 9.45835 20.4374 7.98605 21.6588 6.58545C23.8147 6.6213 25.9681 6.6213 28.1241 6.6213C28.6618 8.05775 28.8436 9.60174 29.2021 11.1099C30.3159 16.0671 31.3939 21.0242 32.4693 25.9788C32.7202 27.2002 33.5114 28.2065 34.2284 29.2102C33.0787 29.9656 31.929 30.6825 30.6718 31.2228C29.9165 30.5033 29.3071 29.6071 28.6592 28.78C27.9397 29.5354 27.4379 30.5391 26.5033 31.0794C22.875 31.7989 19.321 29.031 18.1713 25.7279C17.6336 23.9688 17.5261 21.7053 18.9267 20.3047C20.8292 18.328 23.5254 17.5394 25.7146 15.9954C25.6071 14.3797 25.0694 12.8357 24.6725 11.2891C22.5191 11.0023 20.399 11.2891 18.2814 11.0382ZM22.6983 20.3047C21.9071 21.1676 21.9071 22.4248 22.1606 23.5003C22.6625 25.4386 23.9914 27.021 25.538 28.2782C25.8247 28.565 26.365 28.6725 26.6159 28.314C27.1895 27.6304 27.7298 26.8776 27.8732 25.9788C27.7298 24.4707 27.2996 22.9984 27.0103 21.4902C26.7593 20.484 26.7235 19.406 26.0757 18.5456C24.8543 18.9041 23.5971 19.3727 22.6983 20.3047Z" fill="#FDFDFD"/>
<path d="M45.8301 8.165C46.1886 6.97948 47.625 6.65686 48.7388 6.54932C48.5955 7.94992 48.1294 9.31468 47.8043 10.6794C45.6124 18.9755 43.4232 27.31 41.2672 35.6061C40.9446 36.8633 40.3326 38.0847 39.3289 38.9117C38.1076 40.0973 36.2051 40.2407 34.6227 39.7746C32.7561 39.091 31.6781 37.1168 31.463 35.2502C31.3555 34.7125 31.6781 34.2798 32.1083 34.0288C33.2579 33.2735 34.551 32.8433 35.9157 32.6641C36.3818 33.6704 36.5994 34.82 37.3164 35.6804C38.0359 36.3999 39.2188 35.8954 39.6157 35.1068C40.261 33.9571 40.4069 32.5924 40.5503 31.2993C40.0484 30.905 39.5082 30.4723 39.3289 29.827C37.0654 23.5409 34.912 17.1832 32.6127 10.8996C31.7498 10.7563 30.8536 10.6846 29.9907 10.577C29.9549 10.2902 29.9549 9.96761 29.919 9.67827C31.8957 8.56445 33.9057 7.48647 36.0259 6.66198C37.6774 10.8996 39.0063 15.2833 40.5503 19.5926C41.088 21.0649 41.4132 22.6806 42.2735 24.0454C43.6024 18.8321 44.537 13.4448 45.8301 8.165Z" fill="#FDFDFD"/>
<path d="M81.5314 6.9077C82.3585 6.69261 83.3264 6.72846 84.0459 7.26617C85.9125 8.45169 86.8112 10.7152 87.0263 12.8686C87.3848 17.1063 87.7458 21.454 86.632 25.62C86.3094 27.1281 85.1597 28.2778 83.8666 29.0332C82.5377 29.7885 81.2088 30.5413 79.7724 31.0457C78.3718 31.6193 76.7919 30.759 75.9649 29.6093C75.1737 28.4238 74.636 27.0949 74.3492 25.6942C73.8832 22.3169 73.919 18.8346 74.4567 15.4573C74.8869 13.0862 75.7856 10.6793 77.7239 9.13535C78.9095 8.27245 80.1308 7.40956 81.5314 6.9077ZM79.5906 10.9661C78.6201 13.5164 78.5126 16.2818 78.405 18.9754C78.5126 21.8483 78.6201 24.7929 79.6623 27.4866C79.8773 28.1703 80.4535 28.6363 81.0987 28.8872C82.7144 27.1998 82.8578 24.7212 83.1471 22.4936C83.3981 18.9012 83.3981 15.2371 82.4276 11.7548C82.2125 10.856 81.744 10.0315 81.0987 9.38372C80.3459 9.60136 79.8415 10.2492 79.5906 10.9661Z" fill="#FDFDFD"/>
</svg>
