<svg width="151" height="44" viewBox="0 0 151 44" fill="none" xmlns="http://www.w3.org/2000/svg">
<path d="M14.8689 44C14.8353 43.9664 14.8018 43.9664 14.7682 43.9328C14.2313 43.2611 10.9764 39.1634 7.62089 33.8901C6.61422 32.2107 5.97667 30.9008 6.11089 30.5649C6.44644 29.6916 12.2516 29.1878 14.0636 29.9939C14.6004 30.229 14.6004 30.5649 14.6004 30.7328C14.6004 31.5389 14.5669 33.6885 14.5669 33.6885C14.5669 34.1252 14.936 34.4947 15.3722 34.4947C15.8084 34.4947 16.1776 34.1252 16.1776 33.6885V28.3145C16.1776 27.8443 15.6742 27.7435 15.5736 27.7099C14.634 27.7099 12.7549 27.7099 10.708 27.7099C6.21156 27.7099 5.20489 27.9114 4.43311 27.4076C2.78889 26.3328 0.0708889 19.0107 0.00377783 14.913C-0.130444 9.10229 3.32578 4.06412 8.15778 1.57863C10.1711 0.570992 12.4529 0 14.8689 0C22.5196 0 28.828 5.7771 29.6669 13.2C29.6669 13.2 29.6669 13.2 29.6669 13.2336C29.8347 15.0473 19.9358 15.4168 17.956 14.8794C17.654 14.8122 17.5869 14.4763 17.5869 14.3756C17.5869 12.9985 17.5869 9.16947 17.5869 9.16947C17.5869 8.73282 17.2178 8.36336 16.7816 8.36336C16.3453 8.36336 15.9762 8.73282 15.9762 9.16947V16.2565C15.9762 16.6931 16.3789 16.8275 16.4796 16.8275C17.5869 16.8275 20.2042 16.8275 22.6202 16.8275C25.9087 16.8275 27.2844 17.1969 28.1904 17.9023C28.7944 18.3725 29.0293 19.2458 28.828 20.4214C26.9489 30.7328 15.3051 43.4626 14.8689 44ZM46.4782 19.9847C49.4311 21.2611 51.2431 22.6382 51.2431 25.7282C51.2431 28.8519 48.8607 30.9008 45.2031 30.9008C42.2167 30.9008 39.8342 29.5573 38.6598 27.2061L38.4584 26.8366L41.9482 24.8214L42.1831 25.1908C42.9549 26.4672 43.8609 27.0382 45.136 27.0382C46.2433 27.0382 46.9816 26.5344 46.9816 25.829C46.9816 25.0229 46.4447 24.7206 44.8004 23.9817L43.9616 23.6122C41.7133 22.6382 39.6329 21.3282 39.6329 18.1038C39.6329 15.2153 41.8476 13.2 45.0353 13.2C47.4513 13.2 49.0956 14.1405 50.2364 16.1221L50.4378 16.4916L47.0487 18.6748L46.8138 18.2718C46.2433 17.2641 45.7064 17.0626 45.0353 17.0626C44.3307 17.0626 43.8609 17.4656 43.8609 18.0702C43.8609 18.7756 44.1964 19.0779 45.6729 19.716L46.4782 19.9847ZM71.2422 20.5557L73.7253 13.6702H77.9533L71.6784 31.1359H70.7389L66.9136 22.9405C66.7458 22.571 66.5444 22.1008 66.4102 21.6641C66.2424 22.1008 66.0747 22.571 65.8733 22.9405L61.9138 31.1359H60.9742L54.5987 13.6702H59.1287L61.6118 20.5557C61.7796 20.9924 61.9473 21.5298 62.0816 22.0336C62.2493 21.5298 62.4507 20.9588 62.652 20.5221L65.9404 13.5359H66.8464L70.1684 20.5221C70.3698 20.9588 70.5711 21.5298 70.7389 22.0336C70.9067 21.5634 71.0744 21.026 71.2422 20.5557ZM82.886 30.6656V13.3344H87.1811V30.6656H82.886ZM101.207 24.8214V20.9588H109.16V28.7176L108.992 28.8519C108.086 29.5908 105.67 30.8672 102.415 30.8672C96.9122 30.8672 93.0533 27.2061 93.0533 22C93.0533 16.8611 96.778 13.1328 101.878 13.1328C104.697 13.1328 106.744 13.9389 108.187 15.5511L108.455 15.8534L105.536 18.742L105.234 18.4061C104.429 17.5664 103.59 17.029 101.878 17.029C99.2611 17.029 97.4156 19.0443 97.4156 21.9328C97.4156 24.9557 99.3618 26.9038 102.382 26.9038C103.388 26.9038 104.429 26.7359 105.133 26.4672V24.7878H101.207V24.8214ZM122.884 24.8214V20.9588H130.837V28.7176L130.669 28.8519C129.763 29.5908 127.347 30.8672 124.092 30.8672C118.556 30.8672 114.73 27.2061 114.73 22C114.73 16.8611 118.455 13.1328 123.555 13.1328C126.374 13.1328 128.421 13.9389 129.864 15.5511L130.132 15.8534L127.213 18.742L126.911 18.4061C126.106 17.5664 125.267 17.029 123.555 17.029C120.938 17.029 119.126 19.0443 119.126 21.9328C119.126 24.9557 121.072 26.9038 124.092 26.9038C125.099 26.9038 126.139 26.7359 126.844 26.4672V24.7878H122.884V24.8214ZM146.507 13.3344H150.97L144.83 24.855V30.6656H140.534V25.0901L133.991 13.3008H138.756L141.776 18.8427C142.112 19.4473 142.447 20.2534 142.682 20.8916C142.917 20.2534 143.252 19.4809 143.588 18.8427L146.507 13.3344Z" fill="white"/>
</svg>
