<svg width="147" height="40" viewBox="0 0 147 40" fill="none" xmlns="http://www.w3.org/2000/svg">
<g clip-path="url(#clip0_5536_9274)">
<path d="M90.017 8.24316H70.6487V14.5596H77.1263V28.0756H83.4428V14.5596H90.0235L90.017 8.24316ZM108.947 28.024L102.843 8.24316H95.154L89.0502 28.024H95.3667L98.9954 13.9602L102.631 28.024H108.947ZM128.283 8.24316H108.915V14.5596H115.392V28.0756H121.709V14.5596H128.283V8.24316ZM147.001 28.024L140.897 8.24316H133.214L127.11 28.024H133.427L137.055 13.9602L140.684 28.024H147.001ZM23.5459 29.4549C24.9187 23.6089 25.9436 17.9048 25.9436 17.9048C25.9436 17.9048 26.4592 16.0227 25.4279 14.7401C24.4031 13.4575 21.2384 13.8829 21.2384 13.8829C21.2384 13.8829 16.3206 13.9409 11.3126 14.5467C6.85236 15.0817 2.29548 15.9712 0.619683 16.3128C0.271633 17.5116 0.0911622 18.7556 0.0847168 20.006C0.0847168 28.8104 8.88265 36.287 21.1031 38.9554C21.7476 36.6157 22.708 33.0127 23.5459 29.4549Z" fill="white"/>
<path d="M32.6274 25.7751C32.5693 18.6916 32.7692 12.0851 32.7692 12.0851C32.7692 12.0851 32.5436 11.0925 33.1752 10.6026C33.8262 10.1063 35.3344 10.1192 35.3344 10.1192C35.3344 10.1192 41.1933 10.2868 47.7547 11.1247C52.5436 11.7435 57.7256 12.7296 60.0653 13.1937C55.7663 5.49791 44.3773 0 30.9967 0C17.5645 0 6.13686 5.54302 1.87646 13.2904C3.92609 12.8779 9.50134 11.7886 14.6383 11.1312C21.1997 10.2868 27.0585 10.1192 27.0585 10.1192C27.0585 10.1192 28.5668 10.1063 29.2178 10.6026C29.8494 11.086 29.6238 12.0851 29.6238 12.0851C29.6238 12.0851 29.8236 18.6916 29.7656 25.7751C29.7205 31.2021 29.5529 36.8998 29.4498 39.9742C29.9654 39.9936 30.4746 40 30.9967 40C31.6541 40 32.2986 39.9807 32.9496 39.9549C32.8401 36.874 32.6789 31.1956 32.6274 25.7751Z" fill="white"/>
<path d="M51.0804 14.5474C46.0724 13.9416 41.1546 13.8836 41.1546 13.8836C41.1546 13.8836 37.9899 13.4582 36.9651 14.7408C35.9403 16.0234 36.4559 17.9055 36.4559 17.9055C36.4559 17.9055 37.4678 23.6096 38.8471 29.4556C39.6786 32.9748 40.626 36.5326 41.2706 38.8658C53.2912 36.1266 61.9087 28.7144 61.9087 20.0002C61.9087 18.7047 61.7153 17.4479 61.3479 16.2232C59.4079 15.8365 55.2055 15.0437 51.0804 14.5474Z" fill="white"/>
</g>
<defs>
<clipPath id="clip0_5536_9274">
<rect width="146.916" height="40" fill="white" transform="translate(0.0847168)"/>
</clipPath>
</defs>
</svg>
