<svg width="108" height="24" viewBox="0 0 108 24" fill="none" xmlns="http://www.w3.org/2000/svg">
<path d="M60.4519 0.118164C53.8715 0.118164 48.5356 5.44941 48.5356 12.0241C48.5356 18.5987 53.8715 23.9299 60.4519 23.9299C67.0322 23.9299 72.3681 18.5987 72.3681 12.0155C72.3681 5.4409 67.0322 0.118164 60.4519 0.118164ZM60.4519 19.2034C56.4798 19.2034 53.2578 15.9842 53.2578 12.0155C53.2578 8.04691 56.4798 4.82772 60.4519 4.82772C64.424 4.82772 67.646 8.04691 67.646 12.0155C67.646 15.9842 64.424 19.2034 60.4519 19.2034Z" fill="white"/>
<path d="M24.4305 23.2759V23.9998H5.4225C3.31713 23.9998 1.61237 22.2965 1.61237 20.1929V19.171L15.9408 4.86345H4.46784C2.20051 4.86345 0.359375 3.02392 0.359375 0.75856V0.034668H19.3674C21.4728 0.034668 23.1775 1.73794 23.1775 3.84149V4.86345L8.90873 19.1795H20.3306C22.5979 19.1795 24.4305 21.0105 24.4305 23.2759Z" fill="white"/>
<path d="M107.265 9.03587V23.948H106.319C104.222 23.948 102.517 22.2533 102.517 20.1497V10.5433C102.517 10.3304 102.764 4.94801 97.701 4.79472C95.0246 4.79472 92.851 6.96639 92.851 9.64053C92.851 9.64905 92.851 9.65757 92.851 9.6746V23.9651H91.9049C89.808 23.9651 88.1033 22.2703 88.1033 20.1668L88.1203 9.64053C88.1203 6.96639 85.9468 4.79472 83.2703 4.79472C80.5938 4.79472 78.4202 6.96639 78.4202 9.64053C78.4202 9.64905 78.3776 20.1668 78.3776 20.1668C78.3776 22.2618 76.6814 23.9651 74.576 23.9651H73.6299V0.00851637C73.6299 0.00851637 76.3149 0.119229 77.9344 1.73734C77.9344 1.73734 84.08 -2.89557 90.4729 3.29584C90.4729 3.29584 93.4051 0 97.8204 0C98.9199 0 99.9258 0.204393 100.795 0.510982C103.028 1.29449 104.87 2.92112 105.986 4.99911C106.455 5.8763 107.197 6.77903 107.265 9.03587Z" fill="white"/>
<path d="M35.1789 0.118164C28.5986 0.118164 23.2627 5.44941 23.2627 12.0241C23.2627 18.5987 28.5986 23.9299 35.1789 23.9299C41.7593 23.9299 47.0952 18.5987 47.0952 12.0241C47.0952 5.4409 41.7593 0.118164 35.1789 0.118164ZM35.1789 19.2034C31.2069 19.2034 27.9849 15.9842 27.9849 12.0155C27.9849 8.04691 31.2069 4.82772 35.1789 4.82772C39.151 4.82772 42.373 8.04691 42.373 12.0155C42.373 15.9842 39.151 19.2034 35.1789 19.2034Z" fill="white"/>
<path d="M101.102 4.71541L103.625 8.18158H107.205C106.728 3.59125 102.747 0.00585938 97.897 0.00585938C92.7316 0.00585938 88.5464 4.07669 88.5464 9.10135C88.5464 9.32277 88.5549 9.55271 88.572 9.77414L94.2999 4.09372L101.102 4.71541Z" fill="white"/>
</svg>
