<svg width="98" height="40" viewBox="0 0 98 40" fill="none" xmlns="http://www.w3.org/2000/svg">
<path d="M38.4605 9.87939C42.0523 9.82289 45.4827 11.413 47.7588 14.1895C50.2368 17.063 51.4798 20.6548 51.4798 24.9488C51.4798 29.2267 50.2368 32.7942 47.7588 35.6596C43.3599 40.8011 35.6274 41.4065 30.4859 37.0156C30.0016 36.604 29.5496 36.152 29.1299 35.6596C26.6278 32.7942 25.3767 29.2267 25.3767 24.9488C25.3767 20.6467 26.6278 17.063 29.1299 14.1895C31.4303 11.413 34.8607 9.82289 38.4605 9.87939ZM38.4605 36.943C41.2613 36.9833 43.933 35.7242 45.6845 33.5287C49.5588 28.4599 49.5507 21.4296 45.6683 16.3688C43.933 14.1573 41.2694 12.882 38.4605 12.9062C35.6355 12.8658 32.9558 14.133 31.1962 16.3365C27.3058 21.4054 27.3058 28.4599 31.1962 33.5287C32.9639 35.7161 35.6436 36.9752 38.4605 36.943Z" fill="white"/>
<path d="M86.1142 0.0078125V9.8227H95.6386V12.3975H86.1142V29.9933C86.1142 32.8263 86.3806 34.6908 86.9053 35.5787C87.4299 36.4666 88.8585 36.9105 91.167 36.9105C93.3059 36.8298 95.4126 36.3374 97.3658 35.4657V38.4844C95.1543 39.453 92.7651 39.9696 90.3518 39.9938C88.35 40.0664 86.3725 39.4772 84.7421 38.3149C83.265 37.2495 82.4175 35.5061 82.4902 33.6819V12.3975H73.3452L76.2832 9.8227H82.4982V2.77632L84.9762 0.0078125H86.1142Z" fill="white"/>
<path d="M80.8194 39.8003H71.2063L73.9506 34.4812H55.3055L58.1386 39.8003H48.469L60.2291 9.98438H69.0996L80.8194 39.8003ZM69.3741 30.5262L64.7007 17.6845L58.9457 33.9808L69.3741 30.5262Z" fill="white"/>
<path d="M0 37.9116V0H0.992788L2.83308 2.76851L2.84115 13.9152C5.05273 11.3 8.30552 9.7826 11.7278 9.77453C14.1493 9.71803 18.3706 10.9933 20.5661 13.4551C23.0924 16.2317 24.4646 19.8719 24.3919 23.6332C24.3919 28.6214 23.0924 32.7378 20.3804 35.7485C17.6684 38.7591 13.9152 39.9375 9.42745 39.9375C6.17466 39.9456 2.95415 39.2595 0 37.9116ZM2.84115 17.1599L2.78465 35.8615C4.84287 36.6767 7.0383 37.048 9.24988 36.9592C12.6883 36.9592 16.2236 35.9099 18.4675 33.4239C20.445 31.5755 21.7203 27.6851 21.801 23.8834C21.8978 20.9373 20.9212 18.0558 19.0486 15.7797C17.3375 13.6246 14.7223 12.3816 11.97 12.422C8.72524 12.3735 5.8518 13.2937 2.84115 17.1599Z" fill="white"/>
</svg>
