<svg width="167" height="32" viewBox="0 0 167 32" fill="none" xmlns="http://www.w3.org/2000/svg">
<path fill-rule="evenodd" clip-rule="evenodd" d="M96.2706 6.52875C100.776 6.4368 104.362 10.2987 104.27 15.9076C104.27 21.5165 100.776 25.1944 96.2706 25.2864C91.6732 25.2864 88.363 21.4245 88.2711 15.9076C88.1791 10.3906 91.7651 6.6207 96.2706 6.52875ZM94.2478 0.460112L93.788 0.552063L93.0524 0.644011C84.777 2.20715 79.9957 9.37917 80.9151 17.7465L81.0071 18.2982L81.099 18.758C82.3863 27.1253 89.2825 32.0906 97.7418 31.355L98.3855 31.2631L98.8452 31.1711L99.305 31.0792L99.5808 30.9872C106.385 29.7919 111.166 24.4588 111.81 17.5626L111.902 16.827V14.8042L111.81 14.0686C111.534 10.7584 110.155 7.26435 107.856 4.96562L107.764 4.87367L107.672 4.78172C105.374 2.48299 102.707 1.19571 99.4889 0.644011L99.1211 0.552063L98.6613 0.460112L98.0177 0.368164H94.8914L94.2478 0.460112Z" fill="white"/>
<path fill-rule="evenodd" clip-rule="evenodd" d="M38.8023 6.52842C43.3078 6.43647 46.8938 10.2983 46.8019 15.9072C46.8019 21.5161 43.3078 25.1941 38.8023 25.286C34.2049 25.286 30.8947 21.4242 30.8027 15.9072C30.7108 10.3903 34.2968 6.62037 38.8023 6.52842ZM36.8714 0.459778L36.4116 0.551729L35.9519 0.643677H35.5841L35.3083 0.735624C32.4578 1.28732 29.6994 2.66656 27.6765 4.78139H27.5845V4.87333L27.4926 4.96528C27.2167 5.24113 26.9409 5.60893 26.665 5.88478L26.5731 5.97672L26.4811 6.16062C26.3892 6.34452 26.2053 6.43647 26.1133 6.62037L26.0214 6.71232L25.9294 6.80427C25.8375 6.98816 25.6536 7.26401 25.4697 7.44791L25.3777 7.53986L25.2858 7.63181C24.2744 9.37884 23.6307 11.3098 23.3549 13.2407L23.2629 13.7004C23.079 15.1716 23.079 16.6428 23.2629 18.114L23.3549 18.5737C23.5388 19.6771 23.8146 20.6886 24.1824 21.792L24.2744 21.9759L24.3663 22.0678C24.6422 22.7115 24.918 23.4471 25.2858 24.0907L25.3777 24.1826L25.4697 24.2746C25.5616 24.5504 25.7455 24.7343 25.9294 25.0102L26.0214 25.1021L26.1133 25.1941C26.2972 25.378 26.3892 25.5619 26.5731 25.7458L26.665 25.8377L26.757 25.9297C27.0328 26.2975 27.3087 26.6653 27.6765 26.9411L27.7684 27.0331C27.9523 27.4009 28.3201 27.4928 28.504 27.7687L28.596 27.8606C28.7799 28.1365 28.7799 28.0445 28.9638 28.1365L29.0557 28.2284L29.1477 28.3204L29.2396 28.4123L29.3316 28.5043C29.5155 28.7801 29.5155 28.5962 29.6994 28.7801L29.7913 28.872L29.8833 28.964C30.1591 29.0559 29.9752 29.0559 30.343 29.2398L30.4349 29.3318L30.5269 29.4237L30.6188 29.5157L30.7108 29.6076C32.3659 30.6191 34.2049 31.2627 36.0438 31.5386L36.4116 31.6305C38.1587 31.9064 39.9057 31.9064 41.6527 31.6305L42.0205 31.5386C45.2387 30.9869 47.8133 29.6996 50.1121 27.5848L50.204 27.4928L50.2959 27.4009L50.3879 27.3089L50.4799 27.217C50.7557 26.9411 51.0315 26.6653 51.3074 26.2975L51.3993 26.2055L51.4913 26.1136C51.7671 25.7458 52.043 25.378 52.3188 25.0102L52.4108 24.7343L52.5027 24.6424L52.5947 24.5504L52.6866 24.4585C52.9625 23.9068 53.2383 23.3551 53.5142 22.8034L53.6061 22.6195L53.6981 22.5276C54.0659 21.6081 54.4337 20.5966 54.6176 19.5852L54.7095 19.3093L54.8015 19.0335L54.8934 18.5737L54.9854 18.114L55.0773 17.4704V14.436C54.8015 10.85 53.4222 7.44791 50.9396 4.78139L50.8476 4.68944L50.7557 4.59749L50.6637 4.50554L50.5718 4.41359C50.2959 4.04579 50.0201 3.95384 49.7443 3.58605L49.6523 3.4941L49.5604 3.40215L49.4684 3.3102C49.2845 3.1263 49.2845 3.21825 49.1006 3.03435L49.0087 2.9424L48.9167 2.85046C48.8248 2.75851 48.5489 2.66656 48.457 2.57461L48.365 2.48266L48.2731 2.39071L48.1811 2.29876L48.0892 2.20681L47.9972 2.11486C47.4455 1.83901 46.8938 1.56317 46.3421 1.28732L46.1582 1.19537L46.0663 1.10342C45.1468 0.735626 44.2273 0.459777 43.3078 0.275879L42.2964 0.643677H42.0205L41.5608 0.551729L41.101 0.459778L40.4574 0.36783H37.3311L36.8714 0.459778Z" fill="white"/>
<path fill-rule="evenodd" clip-rule="evenodd" d="M6.89618 18.1144C11.7695 17.2868 14.6199 18.6661 15.0797 21.0567C15.5394 23.9991 12.9648 25.8381 6.89618 25.2864M6.89618 6.71268C11.4936 5.97709 14.436 7.17243 14.528 9.37921C14.7118 12.4135 12.597 13.7928 6.89618 13.2411V6.71268ZM5.79279 0.644043L4.8733 0.735991L4.04576 0.827942L3.31017 0.91989L2.66652 1.01184L2.02288 1.10379L1.47118 1.19574L1.01144 1.28769L0.551693 1.37963L0.0919477 1.47159L0 1.56353V30.8033L0.275847 30.8953L1.37924 30.9872C7.53982 31.5389 17.0106 32.5504 21.3322 26.7576L21.4241 26.6656L21.5161 26.5737L21.608 26.4817C23.0792 24.0911 23.1712 20.7809 21.5161 18.5741L21.4241 18.4822L21.3322 18.1144L21.2402 18.0224C20.9644 17.7466 21.0563 17.7466 20.7805 17.5627L20.6885 17.4707L20.5966 17.3788C20.3207 17.1029 20.4127 17.1029 20.1369 16.919L20.0449 16.8271L19.9529 16.7351L19.861 16.6432C19.2174 16.0915 18.3898 15.8156 17.5623 15.4478L17.3784 15.3559L17.1945 15.2639L17.1025 15.3559H16.9186V15.2639L17.1025 15.172L17.1945 15.08L17.2864 14.9881C18.4818 14.4364 19.4932 13.7008 20.4127 12.7813L20.5046 12.6894L20.5966 12.5974L20.6885 12.5055C21.0563 12.1377 21.4241 11.4021 21.608 10.8504L21.7 10.6665L21.7919 10.4826C22.2517 8.82751 22.1597 7.26438 21.3322 5.70124L21.2402 5.60929L21.1483 5.51734L21.0563 5.4254L20.9644 5.33345L20.8724 5.2415L20.7805 5.14955L20.6885 5.0576C20.4127 4.8737 20.5966 4.8737 20.4127 4.6898L20.3207 4.59785C20.2288 4.5059 20.0449 4.32201 19.9529 4.23006L19.861 4.13811L19.7691 4.04616L19.6771 3.95421C19.5852 3.86226 19.4013 3.67836 19.3093 3.58641L19.2174 3.49446L19.1254 3.40252L19.0335 3.31057V3.40252L18.9415 3.31057L18.8496 3.21862L18.7576 3.12667L18.6657 3.03472L18.5737 2.94277L18.4818 3.03472L18.3898 2.94277C16.3669 1.65548 13.9763 1.01184 11.5856 0.735991L10.9419 0.644043H10.1144H6.98813H5.79279Z" fill="white"/>
<path fill-rule="evenodd" clip-rule="evenodd" d="M64.1805 7.08014V15.3556C68.3182 15.9073 70.0653 14.8958 70.8928 13.8844C72.272 12.1373 72.1801 9.28692 70.2492 7.81573C68.3182 6.34455 65.0081 7.08014 64.1805 7.08014ZM62.4335 0.735653L61.3301 0.827604L60.3187 0.919552L59.4911 1.0115L58.2038 1.10345L57.6521 1.1954L57.1924 1.28735V30.9869H64.1805V21.1484L64.2725 21.2403L65.7437 21.3323H67.5826L67.9504 21.2403V21.3323L68.0424 21.4242C68.8699 22.8954 69.6055 24.4585 70.4331 26.0217L70.525 26.1136L70.617 26.2056C71.4445 27.7687 72.272 29.2399 73.0076 30.803L73.0996 30.895H81.0991V30.803L81.0072 30.7111L80.9153 30.6191C79.536 28.3204 78.1568 26.0217 76.7775 23.7229L76.6856 23.631L76.5936 23.539L76.5017 23.4471C75.858 22.4356 75.2144 21.3323 74.5708 20.2289L74.4788 20.1369L74.3869 20.045L74.2949 19.953L74.203 19.8611C74.111 19.6772 74.0191 19.4933 73.9271 19.4013V19.3094L74.0191 19.2174C74.203 19.1255 74.3869 19.0335 74.4788 18.9416L74.5708 18.8496L74.6627 18.7577L74.7547 18.6657C75.1225 18.4818 75.5822 18.0221 75.95 17.7462L76.0419 17.6543C76.2258 17.4704 76.3178 17.3784 76.5017 17.1945L76.5936 17.1026C76.8695 16.8267 77.2373 16.367 77.4212 16.0912L77.5131 15.9992L77.6051 15.9073C77.9729 15.4475 78.1568 14.8958 78.4326 14.4361L78.5246 14.3441L78.6165 14.1602L78.7085 14.0683C79.8119 11.3098 79.536 7.90768 77.9729 5.42506L77.8809 5.33311L77.789 5.24116L77.697 5.14921C75.7661 2.29879 72.1801 1.0115 68.8699 0.735653L68.2263 0.643705L67.0309 0.551758H64.4564L62.4335 0.735653Z" fill="white"/>
<path fill-rule="evenodd" clip-rule="evenodd" d="M122.016 0.459745L121.557 0.551697L121.189 0.643644L120.913 0.735592L120.637 0.827543C115.948 1.83898 112.637 5.70084 113.465 10.85L113.557 11.1258L113.649 11.4017L113.741 11.5856L113.833 11.8614C114.017 12.5051 114.476 13.4246 114.936 13.9763L115.028 14.0682L115.12 14.1602C115.396 14.6199 115.856 14.9877 116.223 15.3555L116.315 15.4474L116.407 15.5394L116.499 15.6313C117.603 16.6428 119.166 17.4703 120.545 18.022L120.729 18.114L120.821 18.2059L121.005 18.2979L121.097 18.3898L121.189 18.4818L121.373 18.5737C122.752 19.2174 124.407 19.861 125.418 20.9644L125.51 21.0563L125.602 21.1483L125.694 21.2402L125.786 21.3322C126.154 21.7919 126.154 22.8953 126.062 23.447L125.97 23.6309L125.878 23.7229C125.694 24.0907 125.694 24.0907 125.418 24.3665L125.326 24.4585L125.235 24.5504L125.143 24.6424L125.051 24.7343C124.683 24.9182 124.407 25.1021 124.039 25.194L123.763 25.286L123.396 25.378C122.108 25.4699 120.821 25.286 119.626 25.0102L119.35 24.9182C118.982 24.8263 118.706 24.7343 118.338 24.6424L118.154 24.5504C117.327 24.2746 116.407 23.9068 115.672 23.447L115.58 23.3551L115.488 23.2631L115.396 23.1712C115.212 23.0792 114.936 22.8953 114.752 22.7114L114.66 22.6195L114.568 22.5275L114.476 22.4356L114.385 22.3436L114.293 22.2517H114.201L114.109 22.3436L114.017 22.6195L113.925 22.8034L113.833 22.9873L113.741 23.0792L113.649 23.2631L113.557 23.447L113.465 23.539C113.189 24.3665 112.729 25.1021 112.362 25.8377L112.27 25.9296L112.178 26.2055C112.086 26.3894 111.902 26.6652 111.718 26.8491L111.626 26.9411L111.534 27.033C111.442 27.2169 111.258 27.4008 111.166 27.5847L111.074 27.6767L110.982 27.7686L110.89 27.8606L110.798 27.9525L110.707 28.0445V28.2284L110.798 28.3203L110.89 28.4123L110.982 28.5042L111.074 28.5962L111.166 28.6881C113.005 29.7915 115.028 30.619 117.051 31.1707L117.235 31.2627L117.511 31.3546C121.097 32.458 125.326 32.1822 128.637 30.2512L128.729 30.1593L128.821 30.0674L128.912 29.9754L129.004 29.8835L129.096 29.7915C129.556 29.4237 129.924 29.0559 130.384 28.6881L130.476 28.5962L130.568 28.5042L130.66 28.4123L130.751 28.3203L130.843 28.2284L130.935 28.1364L131.027 28.0445L131.119 27.9525L131.211 27.8606L131.303 27.7686L131.395 27.6767C131.487 27.4928 131.763 27.2169 131.855 27.033L131.947 26.9411L132.039 26.8491L132.131 26.7572L132.223 26.6652C133.694 24.0907 133.694 19.953 131.855 17.5623L131.763 17.4703L131.671 17.3784L131.579 17.2864L131.487 17.1945L131.395 17.1025L131.303 17.0106C130.476 15.9991 129.28 15.1716 128.177 14.528L128.085 14.436L127.993 14.3441C126.246 13.4246 124.407 12.7809 122.568 11.8614L122.476 11.7695L122.2 11.6775L122.108 11.5856L122.016 11.4936L121.924 11.4017C121.373 11.1258 120.913 10.6661 120.637 10.1144L120.545 10.0224L120.453 9.9305C120.085 8.91906 120.453 7.81567 121.373 7.26398L121.465 7.17203L121.557 7.08008L121.648 6.98813C124.499 5.88474 127.533 7.26398 130.016 8.73516L130.108 8.82711L130.2 8.91906L130.292 9.01101L130.568 8.91906H130.751L130.843 8.64322L130.935 8.45932L131.027 8.18347C131.303 7.26398 131.579 6.34449 131.855 5.425L131.947 5.2411L132.039 4.96525L132.131 4.78135C132.223 4.41356 132.315 4.04576 132.407 3.67796L132.498 3.40212L132.59 3.21822L132.682 2.94237L132.774 2.75847V2.48263L132.682 2.39068L132.59 2.29873L132.498 2.20678L132.407 2.11483L132.315 2.02288L132.223 1.93093C130.568 0.919493 128.177 0.275849 126.246 0.0919512L125.602 0H122.844" fill="white"/>
<path fill-rule="evenodd" clip-rule="evenodd" d="M147.762 30.8029H166.888V24.4584H154.842V0.919434H147.762" fill="white"/>
<path d="M142.889 0.919434H135.901V30.8948H142.889V0.919434Z" fill="white"/>
<path d="M162.75 8.45956C160.635 8.45956 158.888 6.71253 158.888 4.5977C158.888 2.48287 160.635 0.73584 162.75 0.73584C164.865 0.73584 166.612 2.48287 166.612 4.5977C166.612 6.71253 164.957 8.45956 162.75 8.45956ZM162.75 1.01169C160.727 1.01169 159.164 2.66677 159.164 4.5977C159.164 6.62058 160.819 8.18372 162.75 8.18372C164.773 8.18372 166.336 6.52863 166.336 4.5977C166.428 2.66677 164.773 1.01169 162.75 1.01169Z" fill="white"/>
<path fill-rule="evenodd" clip-rule="evenodd" d="M162.382 3.4942V4.59759C162.934 4.68954 163.21 4.50564 163.302 4.41369C163.485 4.13784 163.485 3.77005 163.21 3.58615C162.934 3.40225 162.474 3.4942 162.382 3.4942ZM162.106 2.57471H161.922C161.738 2.57471 161.555 2.57471 161.463 2.57471H161.371V6.52852H162.29V5.24123H162.474H162.75H162.842C162.934 5.33318 162.934 5.42513 162.934 5.51708C163.026 5.60903 163.026 5.70098 163.118 5.79293C163.21 5.97682 163.302 6.25267 163.485 6.43657H164.589C164.405 6.16072 164.221 5.79293 164.037 5.51708C163.945 5.33318 163.853 5.24123 163.761 5.05733V4.96539H163.853H163.945L164.037 4.87343L164.129 4.78149L164.221 4.59759C164.405 4.22979 164.313 3.77005 164.129 3.40225C164.129 3.3103 164.037 3.3103 164.037 3.21835C163.945 3.1264 163.945 3.1264 163.853 3.03445C163.577 2.85055 163.302 2.75861 163.026 2.75861H162.934H162.842H162.658H162.29L162.106 2.57471Z" fill="white"/>
</svg>
