<svg width="75" height="56" viewBox="0 0 75 56" fill="none" xmlns="http://www.w3.org/2000/svg">
<path d="M38.107 35.4162C38.107 35.7526 37.7707 35.7526 37.7707 35.7526H36.3245H34.8782C34.8782 35.7526 34.5419 35.7526 34.5419 35.4162C34.5419 35.2817 36.2908 33.4655 36.2908 33.4655C36.2908 33.4655 36.3245 33.4318 36.3581 33.4318C36.3917 33.4318 36.4254 33.4655 36.4254 33.4655C36.4254 33.4655 38.107 35.2817 38.107 35.4162ZM67.7383 17.1532C67.7383 22.1982 54.3857 26.2679 37.6698 26.5033C37.6362 26.4697 37.1317 25.9315 36.7953 25.5616C36.6608 25.427 36.5935 25.3261 36.5599 25.2925C36.4254 25.1243 36.4254 24.8889 36.4254 24.7207C36.4254 24.5526 36.3917 15.1015 36.3917 8.81201C36.3917 8.47567 36.3917 8.17297 36.3917 7.87027C36.3917 7.803 36.3917 7.76937 36.3917 7.7021C36.3917 7.63483 36.3245 7.63483 36.3245 7.63483C36.3245 7.63483 36.2572 7.63483 36.2572 7.7021C36.2572 7.76937 36.2572 7.803 36.2572 7.87027C36.2572 8.17297 36.2572 8.50931 36.2572 8.81201C36.2572 15.1015 36.2236 24.5862 36.2236 24.7207C36.2236 24.8889 36.2236 25.1243 36.089 25.2925C36.0554 25.3261 35.9545 25.427 35.8536 25.5616C35.5173 25.9315 34.9791 26.5033 34.9791 26.5033C18.2632 26.3015 4.91064 22.1982 4.91064 17.1532C4.91064 12.0408 18.6668 7.9039 35.7863 7.803C35.7863 6.86126 35.82 6.08769 35.82 5.58318C35.3491 5.41501 35.1473 5.04504 35.1473 4.91051C35.1473 4.2042 35.82 0 36.3581 0C36.8962 0 37.5689 4.2042 37.5689 4.91051C37.5689 5.04504 37.3671 5.41501 36.8962 5.58318C36.8962 6.08769 36.8962 6.89489 36.9299 7.803C53.9821 7.87027 67.7383 12.0408 67.7383 17.1532ZM35.719 8.74474C21.7611 8.84564 10.5275 12.579 10.5275 17.1532C10.5275 21.6264 21.3239 25.2925 34.9455 25.5279C34.9455 25.0907 34.9455 24.5526 34.9455 24.048C34.9455 22.9718 35.3491 21.8619 35.5173 19.1712C35.6182 17.4895 35.6854 12.3772 35.719 8.74474ZM62.0878 17.1532C62.0878 12.579 50.8542 8.87928 36.8962 8.77838C36.9299 12.4108 37.0308 17.5231 37.1317 19.2048C37.2998 21.9291 37.7034 23.0054 37.7034 24.0817C37.7034 24.5526 37.7034 25.0907 37.7034 25.5616C51.2578 25.2925 62.0878 21.6264 62.0878 17.1532ZM34.9118 26.806L34.8782 27.8823L36.0218 26.6715C36.1899 26.5033 36.1899 26.2679 36.1899 26.2679V25.4607L34.9118 26.806ZM36.1899 26.7724V27.6132C36.1899 27.6132 36.1899 27.815 36.0218 28.0168C35.8872 28.1514 34.8446 29.2949 34.8446 29.2949L34.9118 28.2186L36.1899 26.7724ZM36.1563 28.0841V28.8913C36.1563 28.8913 36.1563 29.1267 35.9545 29.3285C35.7191 29.564 34.71 30.6402 34.71 30.6402L34.7437 29.5976L36.1563 28.0841ZM34.6764 32.0529L34.7437 30.9766L36.1899 29.4294V30.2366C36.1899 30.2366 36.1899 30.4384 36.0218 30.6402C35.7863 30.842 34.6764 32.0529 34.6764 32.0529ZM36.1563 30.7748V31.582C36.1563 31.582 36.1563 31.8174 35.9881 31.9856C35.82 32.1874 34.6428 33.4318 34.6428 33.4318L34.71 32.3892L36.1563 30.7748ZM36.1227 32.8601C36.1227 33.1291 35.9545 33.2973 35.9545 33.2973L34.5082 34.8444L34.5755 33.7682L36.1227 32.0865C36.1227 32.1201 36.1227 32.6246 36.1227 32.8601ZM36.4254 25.427V26.2342C36.4254 26.2342 36.4254 26.4697 36.5935 26.6378L37.7371 27.8486L37.7034 26.7724L36.4254 25.427ZM37.7707 28.185L37.838 29.2613C37.838 29.2613 36.7953 28.1177 36.6608 27.9832C36.459 27.7814 36.4926 27.5796 36.4926 27.5796V26.7387L37.7707 28.185ZM37.838 29.5976L37.8716 30.6402C37.8716 30.6402 36.8626 29.564 36.6272 29.3285C36.4254 29.1267 36.4254 28.8913 36.4254 28.8913V28.0841L37.838 29.5976ZM36.6272 30.6402C36.459 30.4384 36.459 30.2366 36.459 30.2366V29.4294L37.9052 30.9766L37.9725 32.0529C37.9389 32.0529 36.829 30.842 36.6272 30.6402ZM37.9725 32.3892L38.0398 33.4318C38.0398 33.4318 36.8626 32.1538 36.6944 31.9856C36.5263 31.7838 36.5263 31.582 36.5263 31.582V30.7748L37.9725 32.3892ZM36.4926 32.1201L38.0398 33.8018L38.107 34.8781L36.6608 33.3309C36.6608 33.3309 36.4926 33.1628 36.4926 32.8937C36.4926 32.6246 36.4926 32.1201 36.4926 32.1201Z" fill="white"/>
<path d="M5.04504 43.7573C3.43063 43.7573 3.16156 43.7573 2.21982 43.7573C1.54715 43.7573 0 43.791 0 43.791C0.269069 50.484 0 55.9327 0 55.9327C1.27808 55.7645 2.25345 55.9327 2.25345 55.9327C2.08529 54.4192 2.05165 50.3159 2.05165 50.3159C2.05165 50.3159 2.95976 50.4504 4.40601 50.4504C6.55856 50.4504 9.92192 49.5759 9.92192 46.6834C9.88829 45.8426 9.48468 43.7573 5.04504 43.7573ZM3.53153 49.8114C2.72432 49.8114 2.01802 49.6768 2.01802 49.6768C1.98438 46.0108 2.08529 44.5309 2.08529 44.5309C2.08529 44.5309 2.69069 44.4636 4.03604 44.4636C4.80961 44.4636 7.76937 44.2955 7.76937 46.818C7.803 49.0042 5.78498 49.8114 3.53153 49.8114ZM16.4805 44.5645C13.3862 50.3495 10.2583 55.9327 10.2583 55.9327C11.1327 55.7645 11.8727 55.9327 11.8727 55.9327C12.5117 54.0156 13.6889 51.6612 13.6889 51.6612H18.2967C19.3057 53.3429 20.3147 55.9327 20.3147 55.9327C21.5592 55.8318 22.5345 55.9327 22.5345 55.9327C19.8438 51.0895 16.4805 44.5645 16.4805 44.5645ZM14.0589 50.9213C14.0589 50.9213 15.0679 48.836 16.0096 47.2216C16.0769 47.1207 16.0096 47.0534 16.1105 47.2216C16.6823 48.2642 18.0276 50.9213 18.0276 50.9213H14.0589ZM29.9676 50.5177C31.1111 50.5177 33.8354 49.7105 33.8354 47.457C33.8354 45.5735 31.9183 44.8672 29.1604 44.8672C28.7231 44.8672 28.185 44.8672 27.3441 44.8672C26.5033 44.8672 25.4607 44.8672 25.4607 44.8672C25.7634 52.233 25.3934 55.8991 25.3934 55.8991C26.5369 55.7982 27.4787 55.8991 27.4787 55.8991C27.3441 54.5537 27.3105 50.5849 27.3105 50.5849C27.6132 50.5849 27.8823 50.5849 27.8823 50.5849C30.2703 52.7375 32.6919 55.8991 32.6919 55.8991C33.6336 55.8318 35.3153 55.8991 35.3153 55.8991C31.9856 52.6366 29.9676 50.5177 29.9676 50.5177ZM28.4541 49.9795C27.7814 49.9795 27.3105 49.9459 27.3105 49.9459C27.3105 46.8516 27.445 45.7081 27.445 45.7081C27.445 45.7081 28.3532 45.6408 29.0595 45.6408C30.5393 45.6408 31.9856 46.078 31.9856 47.7934C31.952 49.1723 30.4721 49.9795 28.4541 49.9795ZM38.4432 50.2486C38.4432 47.2889 38.3423 44.8672 38.3423 44.8672C39.2841 45.0354 40.2931 44.8672 40.2931 44.8672C40.2931 44.8672 40.1249 46.8516 40.1249 50.2822C40.1249 52.3003 40.2931 55.9327 40.2931 55.9327C39.3177 55.8318 38.3423 55.9327 38.3423 55.9327C38.3423 55.9327 38.4432 53.2756 38.4432 50.2486ZM40.8649 50.5177C44.2282 53.5783 46.2126 55.9663 46.2126 55.9663C47.0871 55.8654 48.7688 55.9663 48.7688 55.9663C47.188 54.621 43.3538 50.854 43.152 50.6859C42.3784 49.9795 42.2775 49.9459 42.2438 49.9459C42.2775 49.9459 42.6138 49.6768 43.3538 49.0042C45.0354 47.457 48.567 44.9345 48.567 44.9345C47.5916 45.0018 46.549 44.9345 46.549 44.9345C43.421 47.9279 41.2012 49.6432 40.8649 49.9123C40.5285 50.1813 40.4613 50.1477 40.4276 50.215C40.4276 50.2486 40.8649 50.5177 40.8649 50.5177ZM58.388 44.9009C58.388 45.5399 58.4553 46.0444 58.4553 46.0444C55.4282 45.5735 53.4775 45.809 53.4775 45.809C53.2757 47.4907 53.3429 49.7441 53.3429 49.7441C55.2264 49.7441 57.9844 49.6096 57.9844 49.6096C57.9171 50.215 57.9844 50.7195 57.9844 50.7195C54.5201 50.4841 53.3429 50.5177 53.3429 50.5177C53.2757 53.5783 53.4775 55.0246 53.4775 55.0246C56.5045 55.2264 58.5562 54.7555 58.5562 54.7555C58.4553 55.2264 58.4553 55.9327 58.4553 55.9327C54.251 55.7645 51.4595 55.9327 51.4595 55.9327C51.6613 53.6792 51.5267 44.8672 51.5267 44.8672C54.4192 44.9345 58.388 44.9009 58.388 44.9009ZM68.1081 49.8786C68.1081 49.8786 72.5477 49.4414 72.6487 46.6834C72.7495 44.3627 70.6306 43.791 68.0072 43.791C66.3928 43.791 65.8883 43.8246 64.9129 43.8246C63.9375 43.8246 62.8276 43.8246 62.8276 43.8246C62.8276 43.8246 62.9958 45.9099 62.9958 49.5087C62.9958 53.0066 62.7267 55.9663 62.7267 55.9663C62.7267 55.9663 63.8366 55.7645 65.0474 55.9663C65.0474 55.9663 64.8793 51.3922 64.8793 50.0804C64.8793 50.0804 65.5856 50.0804 65.7201 50.0804C65.7201 50.0804 68.2763 52.0648 71.3706 56C71.3706 56 72.4805 55.8654 74.2631 56C74.2631 55.9327 70.5297 52.4684 68.1081 49.8786ZM64.8793 49.4078C64.8793 46.4816 65.0138 44.5645 65.0138 44.5645C65.0138 44.5645 66.0564 44.43 67.5027 44.43C68.9489 44.43 70.5634 45.1363 70.5634 46.7171C70.5634 49.1723 67.0318 49.4414 66.2919 49.4414C65.5519 49.4414 64.8793 49.4078 64.8793 49.4078Z" fill="white"/>
</svg>
