<svg width="55" height="56" viewBox="0 0 55 56" fill="none" xmlns="http://www.w3.org/2000/svg">
<path d="M10.5157 0.134837C10.7604 0.398293 10.9448 0.578949 11.1104 0.774659C11.4792 1.21124 11.7126 1.21877 12.0777 0.804769C12.789 -0.00818226 13.1014 0.0746181 13.4966 1.08328C13.5944 1.33544 13.8993 1.64783 14.1477 1.68547C18.3441 2.33281 21.7277 4.59854 24.972 7.11266C27.0721 8.73857 29.0781 10.4924 31.182 12.1108C32.5858 13.191 34.1478 14.0115 35.8678 14.5196C38.5701 15.3137 40.7982 14.5459 42.68 12.5474C43.6736 11.4936 44.3172 10.2252 44.8591 8.9004C45.5742 7.16159 46.2818 5.42654 47.3507 3.8571C48.3744 2.35916 49.7067 1.23759 51.3025 0.417111C52.0063 0.0557998 52.7967 -0.271638 53.4892 0.345602C54.1817 0.966606 54.0425 1.83601 53.7188 2.57369C53.4967 3.08178 53.0978 3.58235 52.6462 3.90603C51.9574 4.40283 51.1746 4.7679 50.4068 5.14051C48.5927 6.02497 47.2792 7.40247 46.3985 9.19773C45.8716 10.2704 45.4162 11.3769 44.9231 12.4684C44.2871 13.876 43.4628 15.133 42.0966 15.9535C42.0326 15.9911 41.9724 16.0438 41.9122 16.089C41.1745 16.6686 41.1632 16.7401 41.709 17.5004C42.8004 19.0096 43.0902 20.7672 43.2558 22.555C43.3687 23.7819 43.4026 25.0202 43.4929 26.2509C43.5795 27.4364 44.0612 28.4112 45.1075 29.0435C45.7963 29.4613 46.1124 30.0108 46.1538 30.8576C46.1877 31.4861 46.4926 32.1297 46.7974 32.7018C47.1399 33.3416 47.2829 33.9099 47.0345 34.6401C46.8577 35.1557 46.9405 35.7617 46.9216 36.3262C46.8991 36.9886 46.8012 37.0902 46.1388 37.03C45.0963 36.9322 44.3774 36.3262 44.0838 35.3853C43.8166 34.5309 43.6397 33.6051 43.6623 32.7131C43.6886 31.6367 43.4101 30.9178 42.488 30.2592C40.0228 28.5053 38.2727 26.1304 37.0232 23.3792C36.5904 22.4308 36.1463 21.4861 35.6532 20.564C34.8365 19.0284 33.5117 18.1628 31.8143 17.9219C30.1809 17.6886 28.5286 17.5794 26.8952 17.3423C24.6445 17.0149 22.7326 15.9836 21.1067 14.3953C20.4029 13.7066 19.6577 13.0592 18.9125 12.4119C18.6678 12.1974 18.3931 12.1296 18.107 12.4119C16.6204 13.8985 14.8741 13.8007 13.0788 13.1646C12.2771 12.8786 11.5056 12.4985 10.7152 12.1748C10.3464 12.0242 9.97 11.8812 9.58611 11.7834C8.91994 11.6102 8.79197 11.6968 8.62637 12.3554C8.45325 13.0555 8.12581 13.2625 7.42576 13.1157C6.10096 12.8372 5.55899 11.5049 6.32301 10.387C6.83487 9.63432 7.60266 9.29935 8.46453 9.25419C9.40921 9.20526 10.3614 9.26548 11.3061 9.28053C12.0814 9.29559 12.2809 9.16386 12.3712 8.56544C12.4465 8.06111 12.1793 7.61323 11.5658 7.50409C11.0012 7.40247 10.3991 7.40999 9.82322 7.47774C9.30007 7.53796 8.91994 7.42881 8.53981 7.06374C8.11828 6.65726 7.62524 6.32982 7.16607 5.96475C6.5413 5.46795 6.4999 5.04265 7.09833 4.51574C7.52362 4.13937 7.85482 3.75548 7.95268 3.16082C7.99408 2.90489 8.24624 2.59627 8.48712 2.47583C9.2135 2.11452 9.66514 1.54621 10.0001 0.838641C10.1205 0.616585 10.2974 0.43593 10.5157 0.134837Z" fill="white"/>
<path d="M29.7215 55.9687C28.1407 55.9687 26.6466 55.9687 25.0734 55.9687C25.0734 55.2273 25.0771 54.5084 25.0734 53.7934C25.0583 49.6721 25.0433 45.5509 25.0282 41.4297C25.0282 41.3356 25.0282 41.2415 25.0282 41.1437C25.0545 39.6307 25.5438 39.1075 27.0531 39.1C29.9398 39.0774 32.8265 39.0887 35.7132 39.085C37.0418 39.085 38.3704 39.085 39.7027 39.085C39.9097 39.085 40.1205 39.085 40.3275 39.0963C41.9045 39.164 42.39 39.6608 42.3862 41.2378C42.3749 45.9499 42.3599 50.6582 42.3448 55.3703C42.3448 55.5547 42.326 55.7429 42.3147 55.9612C40.7528 55.9612 39.2247 55.9612 37.6139 55.9612C37.6139 55.7241 37.6139 55.5021 37.6139 55.28C37.6139 50.948 37.6139 46.6198 37.6139 42.2878C37.6139 42.1373 37.6214 41.983 37.5988 41.8324C37.5386 41.4222 37.294 41.1776 36.88 41.1512C36.4396 41.1249 36.1536 41.3507 36.0595 41.7797C36.0181 41.9642 36.0256 42.1561 36.0256 42.3443C36.0256 46.6198 36.0256 50.8916 36.0256 55.1671C36.0256 55.4117 36.0256 55.6564 36.0256 55.9499C34.4562 55.9499 32.9319 55.9499 31.306 55.9499C31.306 55.7429 31.306 55.5246 31.306 55.3063C31.306 50.9744 31.306 46.6462 31.306 42.3142C31.306 42.2201 31.3098 42.1222 31.306 42.0281C31.2834 41.4598 30.9748 41.1249 30.493 41.1399C30.0376 41.1512 29.729 41.4824 29.7252 42.0169C29.714 43.1761 29.7215 44.3353 29.7215 45.4945C29.7215 48.7425 29.7215 51.9906 29.7215 55.2386C29.7215 55.4569 29.7215 55.6827 29.7215 55.9687Z" fill="white"/>
<path d="M54.8591 55.9574C53.2783 55.9574 51.7653 55.9574 50.1921 55.9574C50.1921 54.5686 50.1921 53.2099 50.1921 51.8023C49.6577 51.8023 49.1797 51.8023 48.6377 51.8023C48.6377 53.1647 48.6377 54.5234 48.6377 55.9348C47.0495 55.9348 45.5252 55.9348 43.9256 55.9348C43.9106 55.7579 43.8842 55.5584 43.8842 55.3589C43.8729 50.6506 43.8617 45.9385 43.8541 41.2301C43.8541 41.042 43.8617 40.85 43.8805 40.6618C43.9896 39.6042 44.3585 39.1601 45.4236 39.1413C48.0619 39.0924 50.7002 39.0886 53.3386 39.13C54.43 39.1488 54.8704 39.6607 54.8929 40.8274C54.9231 42.6867 54.8929 44.5497 54.8929 46.4089C54.8892 49.4086 54.8929 52.412 54.8892 55.4116C54.8892 55.5772 54.8704 55.7428 54.8591 55.9574ZM50.1206 49.5892C50.1432 49.4801 50.1808 49.3898 50.1808 49.2994C50.1808 46.8681 50.1846 44.4368 50.1695 42.0055C50.1658 41.4673 49.8459 41.1473 49.3867 41.1398C48.9125 41.1323 48.5963 41.471 48.5888 42.0469C48.5738 43.0894 48.585 44.1357 48.585 45.182C48.585 46.6385 48.585 48.0951 48.585 49.5892C49.1383 49.5892 49.6201 49.5892 50.1206 49.5892Z" fill="white"/>
<path d="M12.5105 39.1191C14.1176 39.1191 15.6306 39.1191 17.2226 39.1191C17.2226 39.424 17.2226 39.7025 17.2226 39.981C17.2226 44.234 17.2226 48.4907 17.2226 52.7436C17.2226 52.8377 17.2188 52.9318 17.2226 53.0296C17.2452 53.6055 17.535 53.9442 18.0129 53.948C18.4947 53.9517 18.7996 53.6205 18.8033 53.0409C18.8146 51.6747 18.8071 50.3047 18.8071 48.9385C18.8071 45.9013 18.8071 42.8602 18.8071 39.8229C18.8071 39.6159 18.8071 39.4089 18.8071 39.1493C20.3916 39.1493 21.9309 39.1493 23.5531 39.1493C23.5531 39.3788 23.5531 39.5971 23.5531 39.8192C23.5531 44.6254 23.5568 49.4278 23.5568 54.234C23.5568 55.4271 23.0073 55.9879 21.8293 55.9916C19.3039 55.9954 16.7785 56.0067 14.2531 55.9954C12.9998 55.9916 12.5255 55.5475 12.503 54.2754C12.4728 52.5102 12.5067 50.7451 12.5067 48.9762C12.5105 45.9389 12.5067 42.8979 12.5067 39.8606C12.5105 39.6348 12.5105 39.4089 12.5105 39.1191Z" fill="white"/>
<path d="M0.00376274 39.1075C0.519384 39.1075 1.00866 39.1075 1.49794 39.1075C3.85023 39.1037 6.20628 39.0962 8.55857 39.0962C8.86342 39.0962 9.16828 39.1037 9.46937 39.1338C10.4216 39.2392 10.8243 39.6269 10.8996 40.5904C10.9635 41.3845 10.9786 42.1824 10.9824 42.9803C10.9974 45.0879 11.0012 47.1956 11.0049 49.2995C11.0087 51.2491 10.5345 51.7308 8.5962 51.7421C7.32785 51.7496 6.05573 51.7421 4.66318 51.7421C4.66318 52.2238 4.66694 52.668 4.66318 53.1121C4.65941 53.91 4.6707 54.7079 4.6293 55.502C4.62178 55.6676 4.41854 55.9574 4.30187 55.9612C2.88673 55.995 1.46783 55.9837 0 55.9837C0.00376366 50.3571 0.00376274 44.7831 0.00376274 39.1075ZM4.68952 49.7172C4.9718 49.7172 5.19762 49.7285 5.42344 49.7135C5.97669 49.6834 6.25897 49.4161 6.25897 48.8516C6.27026 46.5783 6.27402 44.3051 6.2665 42.0318C6.26273 41.4522 5.9654 41.185 5.37827 41.1624C5.15998 41.1549 4.93793 41.1624 4.69329 41.1624C4.68952 44.0379 4.68952 46.8343 4.68952 49.7172Z" fill="white"/>
</svg>
