<svg width="112" height="56" viewBox="0 0 112 56" fill="none" xmlns="http://www.w3.org/2000/svg">
<path d="M71.6654 38.721C83.9479 33.8289 91.5985 31.0185 111.896 26.0742C100.862 26.8028 76.5576 28.4162 59.7992 31.7471C59.7472 31.695 71.4052 38.5649 71.6654 38.721Z" fill="white"/>
<path d="M33.4647 55.0115H49.5465C52.6692 50.2234 55.948 47.8294 59.5391 45.2272C56.7807 44.1342 53.9703 43.0933 51.1078 42.1045C40.855 46.5803 35.1301 52.6175 33.4647 55.0115Z" fill="white"/>
<path d="M36.6393 37.4722C22.3271 42.5725 14.3643 48.1933 9.00366 55.0112H26.6988C28.4163 52.5651 35.026 45.6432 47.4126 40.8551C43.9256 39.658 38.0445 37.8365 36.6393 37.4722Z" fill="white"/>
<path d="M44.0298 26.647H4.84021C44.3421 33.8291 63.3904 43.041 94.0967 56.0001C91.3904 54.0745 49.1302 29.1972 44.0298 26.647Z" fill="white"/>
<path d="M85.9255 3.90332C80.7211 3.90332 77.2861 6.97395 77.2861 11.5539C77.2861 15.9256 81.0333 19.2044 85.9255 19.2044C91.0259 19.2044 94.617 16.0297 94.617 11.5539C94.617 6.97395 91.13 3.90332 85.9255 3.90332ZM85.9255 15.4572C83.7397 15.4572 82.0222 13.6877 82.0222 11.5539C82.0222 9.42004 83.7917 7.65053 85.9255 7.65053C88.0594 7.65053 89.8289 9.42004 89.8289 11.5539C89.8289 13.6877 88.1114 15.4572 85.9255 15.4572Z" fill="white"/>
<path d="M68.4906 4.11152H65.3679V8.06691H67.5017C69.2192 8.06691 70.6244 9.5762 70.6244 11.3978C70.6244 13.6357 68.8029 14.7286 67.6058 14.7807H63.7545V0H58.9664V18.736H67.6058C71.4051 18.736 75.5166 15.8736 75.5166 11.5539C75.4125 6.92193 71.8735 4.11152 68.4906 4.11152Z" fill="white"/>
<path d="M25.2936 11.3978C25.2936 9.52417 26.8029 8.01487 28.6245 8.01487H32.4237L29.3531 13.1673H33.933L37.0037 8.37918V4.16357H27.8438C23.8364 4.16357 20.6096 7.44238 20.6096 11.4498C20.6096 15.4572 23.8364 18.7361 27.8438 18.7361H37.0037V14.7807H28.6245C26.8029 14.7807 25.2936 13.2714 25.2936 11.3978Z" fill="white"/>
<path d="M11.658 0H0V18.736H4.63197V4.11152H10.6691C12.3346 4.11152 14.1041 4.99628 14.1041 7.44237C14.1041 9.31598 12.7509 10.7732 10.9294 10.7732H6.29739V14.6766H9.5762C12.3866 14.7807 13.5836 16.0818 13.6357 18.8401V22.8476H18.5279V17.487C18.5279 14.6766 16.5502 13.2193 14.6245 12.7509C17.6431 11.71 19.1524 9.36802 19.1524 6.50557C18.9963 2.49814 15.197 0 11.658 0Z" fill="white"/>
<path d="M107.524 10.9294C110.751 9.94051 111.688 8.17099 111.688 4.63196V4.11152H106.952V4.89219C106.952 7.23419 105.963 8.95166 103.725 8.95166H101.487V0H96.6987V18.736H101.487V12.907H103.204C105.598 12.907 107.056 14.2602 107.056 16.4461V18.736H111.844V16.6022C111.844 13.7918 110.595 11.7621 107.524 10.9294Z" fill="white"/>
<path d="M43.9777 11.3976C43.9777 9.52396 45.487 8.01467 47.3086 8.01467H51.1078L48.0372 13.115H52.6171L55.6877 8.32694V4.11133H46.5279C42.5205 4.11133 39.2937 7.39014 39.2937 11.3976C39.2937 15.405 42.5205 18.6838 46.5279 18.6838H55.6877V14.7284H47.2565C45.487 14.7805 43.9777 13.2712 43.9777 11.3976Z" fill="white"/>
</svg>
