<svg width="44" height="44" viewBox="0 0 44 44" fill="none" xmlns="http://www.w3.org/2000/svg">
<path d="M43.9618 22.1336L30.2882 29.575C30.2882 29.575 27.8056 28.2012 26.6597 27.5906C29.5243 25.9115 36.6285 22.8205 36.6285 13.5473C36.6285 5.64787 29.9826 0 21.9618 0C13.941 0 7.29514 5.64787 7.29514 13.5473C7.29514 22.8205 14.3611 25.9115 17.2257 27.5906C16.0799 28.2012 13.5972 29.575 13.5972 29.575L0 22.1336V27.2853L8.9375 32.17L0 37.0546V42.2064L13.6354 34.765C13.6354 34.765 16.2708 36.2151 17.4549 36.8638C14.2847 38.8482 12.8333 40.9089 12.8333 44H17.7986C17.7986 41.6722 19.6701 39.8023 22 39.8023C24.3299 39.8023 26.2014 41.6722 26.2014 44H31.1667C31.1667 40.9089 29.6771 38.8482 26.5451 36.8638C27.7292 36.2151 30.3646 34.765 30.3646 34.765L44 42.2064V37.0546L35.0625 32.17L44 27.2853V22.1336H43.9618ZM21.9618 34.1544L18.3333 32.17L21.9618 30.1856L25.5903 32.17L21.9618 34.1544ZM21.9618 25.0338C15.7743 21.5993 12.3368 19.157 12.3368 13.3183C12.3368 7.63226 16.9201 4.08326 21.9618 4.08326C27.0035 4.08326 31.5868 7.67042 31.5868 13.3183C31.5868 19.157 28.1875 21.5993 21.9618 25.0338Z" fill="white"/>
</svg>
