<svg width="60" height="60" viewBox="0 0 60 60" fill="none" xmlns="http://www.w3.org/2000/svg">
<path d="M41.5852 25.2002C40.9252 25.2002 40.326 25.4394 39.8468 25.8228C39.2726 24.9628 38.2946 24.3944 37.1852 24.3944C36.5212 24.3944 35.9042 24.5982 35.3924 24.9458C34.954 23.7006 33.7784 22.8004 32.3852 22.8004C31.475 22.8004 30.6574 23.1866 30.0742 23.7986C29.4962 23.084 28.6234 22.6172 27.6348 22.6172H27.4692C25.732 22.6172 24.3188 24.0304 24.3188 25.7676V27.1954L21.459 28.9648C21.3316 29.0438 21.229 29.157 21.1626 29.2914L19.1146 33.4438C18.4708 34.75 18.2712 36.256 18.5528 37.6848C18.811 38.9938 19.4462 40.1782 20.3746 41.0962L26.7852 47.7712V53.2004C26.7852 53.6422 27.1434 54.0004 27.5852 54.0004H42.7852C43.227 54.0004 43.5852 53.6422 43.5852 53.2004V49.9434C43.5852 49.3066 43.6282 48.666 43.7134 48.0384L44.1462 44.8274C44.3048 43.6474 44.3852 42.4474 44.3852 41.2602V31.9934V28.0004V27.6004C44.3852 27.442 44.3272 27.3028 44.2478 27.1786C43.894 26.0372 42.841 25.2002 41.5852 25.2002ZM41.5852 26.8002C42.247 26.8002 42.7852 27.3384 42.7852 28.0002V31.9932C42.7852 32.655 42.247 33.1932 41.5852 33.1932C40.9234 33.1932 40.3852 32.655 40.3852 31.9932V31.6002V28.0002C40.3852 27.3386 40.9234 26.8002 41.5852 26.8002ZM37.1852 25.9944C38.0676 25.9944 38.7852 26.712 38.7852 27.5944V28.0002V31.6002C38.7852 32.4826 38.0676 33.2002 37.1852 33.2002C36.3028 33.2002 35.5852 32.4826 35.5852 31.6002V27.5944C35.5852 26.712 36.3028 25.9944 37.1852 25.9944ZM32.3852 24.4002C33.2676 24.4002 33.9852 25.1178 33.9852 26.0002V27.5944V31.6002C33.9852 32.2814 33.5556 32.8604 32.9546 33.0908L33.0106 32.9838C33.2102 32.603 33.0728 32.1322 32.6996 31.9186L30.7852 30.822V26.0002C30.7852 25.1178 31.5028 24.4002 32.3852 24.4002ZM27.4692 24.217H27.6348C28.4898 24.217 29.1852 24.9124 29.1852 25.7674V26.0002V29.9054L25.9188 28.0344V27.8836C25.988 27.704 25.989 27.5094 25.9188 27.3226V25.7674C25.9188 24.9124 26.614 24.217 27.4692 24.217ZM42.5602 44.6136L42.1274 47.8238C42.0332 48.5222 41.9852 49.2352 41.9852 49.9434V52.4004H28.3852V47.4492C28.3852 47.2426 28.3052 47.0442 28.1622 46.895L21.5142 39.9732C20.7998 39.267 20.3184 38.3686 20.1224 37.3752C19.9084 36.2892 20.0602 35.1444 20.5498 34.1518L22.493 30.212C22.5502 30.1946 22.609 30.1864 22.6632 30.1552L24.5316 29.0838L31.2362 32.9244L31.1998 32.9936C30.3334 34.6476 28.4146 35.4846 26.7376 34.9428C26.0412 34.7178 25.5512 34.3194 25.24 33.7256C25.035 33.3338 24.5518 33.1826 24.1604 33.388C23.769 33.5926 23.6178 34.0762 23.8228 34.4676C24.3306 35.4376 25.1458 36.1098 26.245 36.4648C26.7474 36.6276 27.2638 36.705 27.7778 36.705C28.7646 36.705 29.7416 36.417 30.5926 35.8952C30.6202 35.9022 30.6426 35.9192 30.6716 35.9232C32.5606 36.1946 33.9852 37.7458 33.9852 39.5314V43.9822C33.9852 44.424 34.3434 44.7822 34.7852 44.7822C35.227 44.7822 35.5852 44.424 35.5852 43.9822V39.5314C35.5852 37.48 34.3058 35.6504 32.4364 34.795C33.3756 34.7798 34.2088 34.354 34.7852 33.6942C35.3722 34.3662 36.225 34.8002 37.1852 34.8002C38.0868 34.8002 38.899 34.4224 39.481 33.8204C39.9948 34.4112 40.7426 34.7932 41.5852 34.7932C42.0162 34.7932 42.42 34.6872 42.7852 34.5124V41.26C42.7852 42.376 42.7094 43.5046 42.5602 44.6136Z" fill="white" stroke="white" stroke-width="0.5"/>
<path d="M9.21387 21.96H9.21484L18.0146 28.3604V28.3594C18.0316 28.3717 18.0378 28.393 18.0332 28.4121L18.0254 28.4297L18.0244 28.4307C18.0194 28.4375 18.0147 28.4424 18.0088 28.4453C18.002 28.4487 17.9931 28.4502 17.9844 28.4502C17.979 28.4502 17.9739 28.4496 17.9697 28.4482L17.9561 28.4414L17.9551 28.4404L9.15527 22.041C9.13849 22.0288 9.13156 22.008 9.13574 21.9893L9.14453 21.9707C9.15641 21.9544 9.17733 21.9468 9.19629 21.9512L9.21387 21.96Z" fill="white" stroke="white" stroke-width="1.5"/>
<path d="M13.2095 13.957L13.2241 13.9697H13.2251L21.2251 24.3701C21.2376 24.3866 21.2383 24.4081 21.229 24.4248L21.2163 24.4395L21.2153 24.4404C21.2102 24.4444 21.2057 24.4469 21.2017 24.4482C21.1973 24.4497 21.1919 24.4501 21.186 24.4502C21.178 24.4502 21.1693 24.4485 21.1626 24.4453L21.146 24.4307L13.146 14.0312C13.1331 14.0145 13.1324 13.9924 13.1421 13.9756L13.1548 13.9609C13.1713 13.9482 13.1928 13.9475 13.2095 13.957Z" fill="white" stroke="white" stroke-width="1.5"/>
<path d="M21.6875 7.59961H21.6885C21.7071 7.59463 21.7272 7.60053 21.7393 7.61621L21.748 7.63574L25.2334 20.3867C25.2404 20.4125 25.2257 20.4401 25.1992 20.4482C25.1914 20.4503 25.1866 20.4502 25.1846 20.4502C25.1754 20.4502 25.1641 20.4478 25.1543 20.4404L25.1367 20.4131L21.6514 7.66211C21.646 7.64242 21.6534 7.62168 21.6689 7.60938L21.6875 7.59961Z" fill="white" stroke="white" stroke-width="1.5"/>
<path d="M31.5806 6.75L31.5884 6.75098C31.6092 6.75243 31.6261 6.7659 31.6323 6.78418L31.6343 6.80371L30.8345 19.6035C30.8328 19.63 30.811 19.6504 30.7856 19.6504H30.7817C30.7679 19.6494 30.7559 19.6431 30.7476 19.6338L30.7349 19.5977L31.5347 6.79785C31.5356 6.78264 31.5427 6.77009 31.5532 6.76074C31.5583 6.75622 31.563 6.75333 31.5669 6.75195L31.5806 6.75Z" fill="white" stroke="white" stroke-width="1.5"/>
<path d="M41.4941 9.36816V9.36914C41.5128 9.37788 41.5233 9.3965 41.5225 9.41602L41.5186 9.43457L41.5176 9.43555L36.4307 20.4209C36.4261 20.4309 36.4195 20.4377 36.4121 20.4424C36.4036 20.4475 36.3937 20.4502 36.3848 20.4502C36.3814 20.4502 36.3782 20.4499 36.375 20.4492C36.3718 20.4485 36.3677 20.4474 36.3633 20.4453H36.3643C36.3456 20.4367 36.3342 20.418 36.335 20.3984L36.3398 20.3789L41.4277 9.39355C41.4387 9.36986 41.4678 9.35666 41.4941 9.36816Z" fill="white" stroke="white" stroke-width="1.5"/>
<path d="M49.2036 14.7539L49.2202 14.7646C49.2348 14.7792 49.2382 14.8004 49.231 14.8184L49.2202 14.835L42.02 22.0352C42.0144 22.0408 42.0092 22.0439 42.0044 22.0459C41.9989 22.0481 41.9918 22.0498 41.9849 22.0498C41.978 22.0498 41.9718 22.0481 41.9663 22.0459L41.9497 22.0352C41.9351 22.0206 41.9317 21.9994 41.939 21.9814L41.9497 21.9648L49.1499 14.7646C49.1645 14.7501 49.1856 14.7466 49.2036 14.7539Z" fill="white" stroke="white" stroke-width="1.5"/>
<path d="M10.5142 43.7852L10.5308 43.7959C10.5453 43.8105 10.5487 43.8316 10.5415 43.8496L10.5308 43.8662L8.8335 45.5635C8.82772 45.5693 8.82283 45.5731 8.81787 45.5752C8.81234 45.5774 8.80527 45.5781 8.79834 45.5781C8.79161 45.5781 8.78521 45.5773 8.77979 45.5752L8.76318 45.5635C8.74864 45.5488 8.74514 45.5277 8.75244 45.5098L8.76318 45.4932L10.4604 43.7959C10.4751 43.7813 10.4962 43.7779 10.5142 43.7852Z" fill="white" stroke="white" stroke-width="1.5"/>
<path d="M14.4736 39.8252L14.4902 39.8359C14.5048 39.8505 14.5082 39.8717 14.501 39.8896L14.4902 39.9062L12.793 41.6035C12.7872 41.6093 12.7823 41.6132 12.7773 41.6152C12.7718 41.6175 12.7647 41.6182 12.7578 41.6182C12.7509 41.6182 12.7445 41.6173 12.7393 41.6152L12.7227 41.6035C12.7081 41.5889 12.7046 41.5678 12.7119 41.5498L12.7227 41.5332L14.4199 39.8359C14.4345 39.8214 14.4557 39.8179 14.4736 39.8252Z" fill="white" stroke="white" stroke-width="1.5"/>
<path d="M12.9644 43.9727L12.981 43.9834L14.6919 45.6943C14.7064 45.7088 14.7107 45.7301 14.7036 45.748L14.6919 45.7646C14.6861 45.7704 14.6812 45.7743 14.6763 45.7764C14.6707 45.7786 14.6637 45.7793 14.6567 45.7793C14.65 45.7793 14.6436 45.7785 14.6382 45.7764L14.6216 45.7646L12.9106 44.0537C12.8961 44.0391 12.8926 44.018 12.8999 44L12.9106 43.9834C12.9252 43.9688 12.9464 43.9654 12.9644 43.9727Z" fill="white" stroke="white" stroke-width="1.5"/>
<path d="M8.81689 39.8252L8.8335 39.8359L10.5308 41.5332C10.5503 41.5527 10.5503 41.584 10.5308 41.6035C10.5249 41.6094 10.5192 41.6132 10.5142 41.6152C10.5087 41.6174 10.5023 41.6182 10.4956 41.6182C10.4889 41.6182 10.4825 41.6174 10.4771 41.6152L10.4604 41.6035L8.76318 39.9062C8.74864 39.8916 8.74515 39.8705 8.75244 39.8525L8.76318 39.8359C8.77777 39.8214 8.79892 39.818 8.81689 39.8252Z" fill="white" stroke="white" stroke-width="1.5"/>
<path d="M48.8042 7.22559C49.6535 6.96831 50.5524 7.40429 50.8872 8.20605L50.9458 8.37109C51.2029 9.22019 50.7673 10.1188 49.9653 10.4541L49.8003 10.5127C49.6341 10.5629 49.4666 10.5869 49.3032 10.5869C48.611 10.5867 47.9677 10.1643 47.7056 9.50293L47.6587 9.36719C47.542 8.98161 47.5622 8.57988 47.7144 8.21387L47.7876 8.05859C47.9776 7.70368 48.2765 7.43439 48.6431 7.2832L48.8042 7.22559ZM49.3013 7.25098C49.1837 7.25101 49.0656 7.26473 48.9487 7.29102L48.8325 7.32129C48.471 7.43076 48.165 7.65993 47.9585 7.96875L47.8765 8.10547V8.10645C47.6986 8.43879 47.6428 8.81703 47.7153 9.18262L47.7544 9.33789V9.33887C48.0136 10.1924 48.9186 10.6778 49.7729 10.417L49.772 10.416C50.5728 10.173 51.0469 9.36388 50.8901 8.56055L50.8501 8.40039V8.39941C50.6377 7.70005 49.994 7.25098 49.3013 7.25098Z" fill="white" stroke="white" stroke-width="1.5"/>
<path d="M51.2207 32.9805L51.2373 32.9912C51.2514 33.0053 51.2553 33.0269 51.248 33.0449L51.2373 33.0615L50.0928 34.2061L50.623 34.7363L51.2373 35.3496C51.2519 35.3642 51.2551 35.3855 51.248 35.4033L51.2373 35.4199C51.2314 35.4258 51.2257 35.4296 51.2207 35.4316C51.2153 35.4338 51.2089 35.4345 51.2021 35.4346C51.1952 35.4346 51.1882 35.4339 51.1826 35.4316L51.167 35.4199L50.5537 34.8066L50.0225 34.2764L48.8789 35.4199C48.8731 35.4257 48.8682 35.4296 48.8633 35.4316C48.8577 35.4339 48.8507 35.4346 48.8438 35.4346C48.837 35.4346 48.8306 35.4338 48.8252 35.4316L48.8086 35.4199L48.7939 35.3848C48.794 35.3784 48.7954 35.3722 48.7979 35.3662L48.8086 35.3496L49.9521 34.2061L49.4219 33.6758L48.8086 33.0615C48.794 33.0468 48.7906 33.0257 48.7979 33.0078L48.8086 32.9912C48.8232 32.9766 48.8443 32.9732 48.8623 32.9805L48.8789 32.9912L49.4922 33.6045L50.0225 34.1357L51.167 32.9912C51.1817 32.9767 51.2027 32.9731 51.2207 32.9805Z" fill="white" stroke="white" stroke-width="1.5"/>
</svg>
