<svg width="40" height="40" viewBox="0 0 40 40" fill="none" xmlns="http://www.w3.org/2000/svg">
<path d="M27.5 21.25C27.5 20.9875 27.3375 20.7562 27.1 20.6687L23.6188 19.3438C20.4563 18.1438 17.9875 15.5438 16.85 12.2125L15.5938 8.55C15.5063 8.29375 15.2688 8.125 15 8.125C14.7312 8.125 14.4937 8.29375 14.4062 8.55L13.15 12.2125C12.0125 15.5438 9.54375 18.1438 6.38125 19.3438L2.9 20.6687C2.6625 20.7562 2.5 20.9875 2.5 21.25C2.5 21.5125 2.6625 21.7438 2.9 21.8313L6.38125 23.1562C9.54375 24.3562 12.0125 26.9562 13.15 30.2875L14.4062 33.95C14.4937 34.2062 14.7312 34.375 15 34.375C15.2688 34.375 15.5063 34.2062 15.5938 33.95L16.85 30.2875C17.9875 26.9562 20.4563 24.3562 23.6188 23.1562L27.1 21.8313C27.3375 21.7438 27.5 21.5125 27.5 21.25Z" fill="white"/>
<path d="M24.1625 9.9625L25.9938 10.625C27.575 11.1938 28.8063 12.425 29.375 14.0063L30.0375 15.8375C30.125 16.0875 30.3625 16.25 30.625 16.25C30.8875 16.25 31.125 16.0875 31.2125 15.8375L31.875 14.0063C32.4438 12.425 33.675 11.1938 35.2563 10.625L37.0875 9.9625C37.3375 9.875 37.5 9.6375 37.5 9.375C37.5 9.1125 37.3375 8.875 37.0875 8.7875L35.2563 8.125C33.675 7.55625 32.4438 6.325 31.875 4.74375L31.2125 2.9125C31.125 2.6625 30.8875 2.5 30.625 2.5C30.3625 2.5 30.125 2.6625 30.0375 2.9125L29.375 4.74375C28.8063 6.325 27.575 7.55625 25.9938 8.125L24.1625 8.7875C23.9125 8.875 23.75 9.1125 23.75 9.375C23.75 9.6375 23.9125 9.875 24.1625 9.9625ZM26.4188 9.3C28.35 8.60625 29.8563 7.1 30.55 5.16875L30.625 4.96875L30.7 5.16875C31.3937 7.1 32.9 8.60625 34.8312 9.3L35.0312 9.375L34.8312 9.45C32.9 10.1437 31.3937 11.65 30.7 13.5812L30.625 13.7812L30.55 13.5812C29.8563 11.65 28.35 10.1437 26.4188 9.45L26.2188 9.375L26.4188 9.3Z" fill="white"/>
<path d="M37.0875 30.6625L35.4375 30.0688C34.7375 29.8125 34.1125 29.4125 33.6 28.9C33.0875 28.3875 32.6875 27.7625 32.4312 27.0625L31.8375 25.4125C31.75 25.1625 31.5125 25 31.25 25C30.9875 25 30.75 25.1625 30.6625 25.4125L30.0688 27.0625C29.5625 28.4625 28.4625 29.5625 27.0625 30.0688L25.4125 30.6625C25.1625 30.75 25 30.9875 25 31.25C25 31.5125 25.1625 31.75 25.4125 31.8375L27.0625 32.4312C28.4625 32.9375 29.5625 34.0375 30.0688 35.4375L30.6625 37.0875C30.75 37.3375 30.9875 37.5 31.25 37.5C31.5125 37.5 31.75 37.3375 31.8375 37.0875L32.4312 35.4375C32.9375 34.0375 34.0375 32.9375 35.4375 32.4312L37.0875 31.8375C37.3375 31.75 37.5 31.5125 37.5 31.25C37.5 30.9875 37.3375 30.75 37.0875 30.6625Z" fill="white"/>
</svg>
