<svg width="41" height="40" viewBox="0 0 41 40" fill="none" xmlns="http://www.w3.org/2000/svg">
<path d="M8.71985 6.69812H1.20014C0.537237 6.69812 0 6.16053 0 5.49799C0 4.83545 0.537237 4.29785 1.20014 4.29785H8.71985C9.38275 4.29785 9.91999 4.83545 9.91999 5.49799C9.91999 6.16053 9.38275 6.69812 8.71985 6.69812Z" fill="white"/>
<path d="M13.0173 10.9945C9.98598 10.9945 7.52002 8.52859 7.52002 5.49759C7.52002 2.46596 9.98598 0 13.0173 0C16.0485 0 18.5145 2.46596 18.5145 5.49759C18.5145 8.52868 16.0485 10.9945 13.0173 10.9945ZM13.0173 2.40036C11.3095 2.40036 9.92029 3.78989 9.92029 5.49759C9.92029 7.20529 11.3095 8.59419 13.0173 8.59419C14.725 8.59419 16.1142 7.20529 16.1142 5.49759C16.1142 3.78989 14.725 2.40036 13.0173 2.40036Z" fill="white"/>
<path d="M39.6047 6.69812H21.6674C21.0045 6.69812 20.4673 6.16053 20.4673 5.49799C20.4673 4.83545 21.0045 4.29785 21.6674 4.29785H39.6046C40.2675 4.29785 40.8047 4.83545 40.8047 5.49799C40.8047 6.16053 40.2676 6.69812 39.6047 6.69812Z" fill="white"/>
<path d="M29.1305 25.4969C26.0992 25.4969 23.6333 23.0309 23.6333 19.9999C23.6333 16.9689 26.0993 14.5029 29.1305 14.5029C32.1618 14.5029 34.6278 16.9689 34.6278 19.9999C34.6278 23.0309 32.1619 25.4969 29.1305 25.4969ZM29.1305 16.9033C27.4228 16.9033 26.0336 18.2922 26.0336 19.9999C26.0336 21.7076 27.4228 23.0965 29.1305 23.0965C30.8382 23.0965 32.2275 21.7076 32.2275 19.9999C32.2275 18.2922 30.8382 16.9033 29.1305 16.9033Z" fill="white"/>
<path d="M20.4803 21.2001H1.20014C0.537237 21.2001 0 20.6625 0 19.9999C0 19.3374 0.537237 18.7998 1.20014 18.7998H20.4803C21.1432 18.7998 21.6805 19.3374 21.6805 19.9999C21.6805 20.6625 21.1432 21.2001 20.4803 21.2001Z" fill="white"/>
<path d="M39.6052 21.2001H33.4282C32.7653 21.2001 32.228 20.6625 32.228 19.9999C32.228 19.3374 32.7653 18.7998 33.4282 18.7998H39.6052C40.2681 18.7998 40.8053 19.3374 40.8053 19.9999C40.8053 20.6625 40.2681 21.2001 39.6052 21.2001Z" fill="white"/>
<path d="M11.6745 39.9994C8.64321 39.9994 6.17725 37.5335 6.17725 34.5018C6.17725 31.4708 8.64321 29.0049 11.6745 29.0049C14.7057 29.0049 17.1717 31.4708 17.1717 34.5018C17.1717 37.5335 14.7057 39.9994 11.6745 39.9994ZM11.6745 31.4052C9.96677 31.4052 8.57752 32.7941 8.57752 34.5018C8.57752 36.2095 9.96677 37.5991 11.6745 37.5991C13.3822 37.5991 14.7714 36.2095 14.7714 34.5018C14.7714 32.7941 13.3822 31.4052 11.6745 31.4052Z" fill="white"/>
<path d="M39.6049 35.702H20.3246C19.6617 35.702 19.1245 35.1644 19.1245 34.5019C19.1245 33.8394 19.6617 33.3018 20.3246 33.3018H39.6049C40.2678 33.3018 40.805 33.8394 40.805 34.5019C40.805 35.1644 40.2678 35.702 39.6049 35.702Z" fill="white"/>
<path d="M7.37716 35.7021H1.20014C0.537237 35.7021 0 35.1645 0 34.5019C0 33.8394 0.537237 33.3018 1.20014 33.3018H7.37716C8.04006 33.3018 8.5773 33.8394 8.5773 34.5019C8.5773 35.1645 8.04006 35.7021 7.37716 35.7021Z" fill="white"/>
</svg>
