<svg width="40" height="40" viewBox="0 0 40 40" fill="none" xmlns="http://www.w3.org/2000/svg">
<path d="M36.9912 10.853L36.9899 10.8219C36.9725 10.4377 36.9609 10.0312 36.9539 9.57891C36.9213 7.37341 35.168 5.54907 32.9622 5.42578C28.3633 5.16913 24.8055 3.6695 21.7657 0.706556L21.7397 0.681837C20.7482 -0.227279 19.2526 -0.227279 18.2607 0.681837L18.2348 0.706556C15.195 3.6695 11.6372 5.16913 7.03824 5.42609C4.83274 5.54907 3.07921 7.37341 3.04656 9.57921C3.03984 10.0284 3.02794 10.4349 3.01054 10.8219L3.00871 10.8942C2.9193 15.5838 2.80821 21.4203 4.76072 26.7178C5.83433 29.631 7.4603 32.1634 9.59317 34.245C12.0224 36.6156 15.2041 38.4976 19.0499 39.8385C19.175 39.8822 19.3051 39.9176 19.4375 39.9441C19.6243 39.9813 19.8123 40 20.0002 40C20.1882 40 20.3765 39.9813 20.563 39.9441C20.6954 39.9176 20.8264 39.8819 20.9521 39.8379C24.7933 38.4945 27.9717 36.6116 30.3988 34.2413C32.5307 32.1591 34.1567 29.6262 35.2312 26.7123C37.1911 21.3989 37.0803 15.5515 36.9912 10.853ZM33.0291 25.9003C30.9698 31.4838 26.766 35.3183 20.1775 37.6223C20.1541 37.6303 20.129 37.6373 20.1031 37.6425C20.035 37.6559 19.9658 37.6559 19.8968 37.6422C19.8712 37.637 19.8461 37.6303 19.8229 37.6223C13.2275 35.3225 9.02096 31.4902 6.96317 25.9064C5.16355 21.0233 5.26548 15.6656 5.35551 10.9391L5.35612 10.9128C5.37443 10.5066 5.38664 10.0812 5.39335 9.6137C5.408 8.63439 6.18803 7.82415 7.16916 7.76953C9.77169 7.62426 12.0581 7.12133 14.1589 6.23205C16.257 5.34399 18.1204 4.09217 19.855 2.40516C19.9432 2.3307 20.0576 2.33039 20.1455 2.40516C21.8804 4.09217 23.7438 5.34399 25.8416 6.23205C27.9424 7.12133 30.2288 7.62426 32.8316 7.76953C33.8128 7.82415 34.5928 8.63439 34.6071 9.614C34.6142 10.084 34.6264 10.5094 34.6447 10.9128C34.7344 15.6449 34.8339 21.0068 33.0291 25.9003Z" fill="white"/>
<path d="M19.9998 10.0322C14.503 10.0322 10.0312 14.5043 10.0312 20.0008C10.0312 25.4976 14.503 29.9696 19.9998 29.9696C25.4963 29.9696 29.9683 25.4976 29.9683 20.0008C29.9683 14.5043 25.4963 10.0322 19.9998 10.0322ZM19.9998 27.6222C15.7972 27.6222 12.3784 24.2033 12.3784 20.0008C12.3784 15.7982 15.7972 12.3793 19.9998 12.3793C24.202 12.3793 27.6209 15.7982 27.6209 20.0008C27.6209 24.2033 24.202 27.6222 19.9998 27.6222Z" fill="white"/>
<path d="M22.8648 16.9055L18.2347 21.5356L16.978 20.2789C16.5196 19.8206 15.7765 19.8206 15.3182 20.2789C14.8601 20.7373 14.8601 21.4804 15.3182 21.9385L17.4049 24.0253C17.6341 24.2544 17.9344 24.3689 18.2347 24.3689C18.535 24.3689 18.8353 24.2544 19.0645 24.0253L24.5247 18.5651C24.9827 18.1067 24.9827 17.3636 24.5247 16.9055C24.0663 16.4469 23.3232 16.4469 22.8648 16.9055Z" fill="white"/>
</svg>
