<svg width="28" height="28" viewBox="0 0 28 28" fill="none" xmlns="http://www.w3.org/2000/svg">
<g clip-path="url(#clip0_3917_2435)">
<path d="M27.7496 14.7518C26.7287 13.9152 24.6048 12.3024 22.5123 11.497C24.1723 9.52747 24.7339 5.5558 24.9039 3.84294C24.9242 3.63846 24.8519 3.43552 24.7067 3.29016C24.5614 3.1448 24.3587 3.07223 24.1541 3.09246C22.4422 3.26232 18.4716 3.82352 16.5012 5.48258C15.6951 3.39177 14.0843 1.27066 13.2484 0.250632C13.1182 0.0916562 12.9232 -0.000109277 12.7177 9.76613e-08C12.5123 0.000109472 12.3178 0.0920937 12.1877 0.250961C11.3068 1.32601 9.56595 3.62288 8.81268 5.81874C7.41843 4.78383 5.87602 3.97375 4.98735 3.54249C4.80262 3.45285 4.58693 3.45138 4.40056 3.53756C4.21413 3.62375 4.07604 3.78885 4.02442 3.98759C3.57117 5.73375 2.66396 9.95683 3.76192 12.335C3.85855 12.5445 3.96661 12.7507 4.0837 12.9534C2.57329 13.5824 1.07398 14.6947 0.25547 15.3545C0.0939784 15.4847 0.000134861 15.6811 0.000244236 15.8885C0.000298924 16.0959 0.0943612 16.2921 0.255962 16.4223C1.44487 17.3806 4.06942 19.2933 6.07853 19.2933C6.54972 19.2933 7.03069 19.2338 7.50379 19.1293L3.90044 22.7327C3.52397 23.1091 3.52397 23.7195 3.90044 24.0959C4.27691 24.4723 4.88717 24.4723 5.26363 24.0959L8.87289 20.4866C8.76707 20.9629 8.70692 21.4472 8.70692 21.9217C8.70692 23.9308 10.6196 26.5553 11.5779 27.7443C11.7081 27.9058 11.9043 27.9998 12.1117 28C12.3191 28.0001 12.5155 27.9063 12.6457 27.7448C13.3055 26.9263 14.4178 25.427 15.0468 23.9165C15.2494 24.0337 15.4558 24.1416 15.6652 24.2384C18.0434 25.3363 22.2665 24.4291 24.0126 23.9759C24.2115 23.9242 24.3766 23.7861 24.4627 23.5997C24.5489 23.4133 24.5474 23.1977 24.4577 23.0129C24.0265 22.1242 23.2164 20.5818 22.1815 19.1876C24.3773 18.4344 26.6742 16.6935 27.7492 15.8126C27.9081 15.6825 28.0001 15.4879 28.0002 15.2826C28.0001 15.0772 27.9085 14.882 27.7496 14.7518Z" fill="white"/>
</g>
<defs>
<clipPath id="clip0_3917_2435">
<rect width="28" height="28" fill="white"/>
</clipPath>
</defs>
</svg>
