<svg width="33" height="33" viewBox="0 0 33 33" fill="none" xmlns="http://www.w3.org/2000/svg">
<path d="M19.0752 24.3969C21.0553 22.555 22.3829 20.8094 22.9586 18.7291C22.5492 18.7312 18.4486 18.7337 18.4486 18.7337L17.1299 21.0178C17.4074 21.5004 19.0752 24.3969 19.0752 24.3969Z" fill="white"/>
<path d="M16.5105 15.2328C17.061 14.2821 18.5816 11.6436 19.0767 10.7879C16.663 9.61884 13.9041 9.56507 11.5923 11.2559C12.1116 12.1546 13.3867 14.3655 13.9228 15.2945L16.5105 15.2328Z" fill="white"/>
<path d="M7.99717 18.0007C8.98614 18.0039 10.89 17.9965 11.8997 17.9979L13.2184 15.7138C12.671 14.7693 11.4809 12.6929 10.9655 11.8093C9.4556 13.3371 8.59914 15.3727 7.99717 18.0007Z" fill="white"/>
<path d="M20.9508 12.1377C20.595 11.7849 20.2031 11.4705 19.7817 11.1995C19.7817 11.1995 17.4804 15.183 17.2155 15.6444L18.4559 17.9162C19.5424 17.9187 22.0651 17.9165 23.1166 17.9188C23.3759 15.5701 22.4805 13.681 20.9508 12.1377Z" fill="white"/>
<path d="M16.4262 21.4257L13.8386 21.4873C13.5611 21.9654 11.2723 25.9322 11.2723 25.9322C13.964 27.3501 16.3754 26.4803 18.4377 24.9181C18.4377 24.9181 16.6982 21.8979 16.4262 21.4257Z" fill="white"/>
<path d="M13.1343 21.0823L11.8939 18.8105C11.8939 18.8105 8.25582 18.8133 7.86364 18.8147C7.53076 21.379 7.98441 23.912 10.568 25.5272C11.0922 24.6191 12.5874 22.0299 13.1343 21.0823Z" fill="white"/>
<path d="M17.7471 18.3185L16.5104 16.0485L13.9259 16.1123L12.6011 18.4069L13.8383 20.6767L16.4223 20.6131L17.7471 18.3185Z" fill="white"/>
<path d="M10.2423 11.4635C11.5041 10.119 13.2368 9.31415 15.0781 9.21729C14.745 8.71926 14.3071 8.30003 13.795 7.98895C13.283 7.67787 12.7091 7.48246 12.1136 7.41638C10.368 7.23975 8.61464 7.66748 7.14649 8.6281C6.91365 8.8059 6.74222 9.05204 6.65618 9.33208C6.57014 9.61212 6.57379 9.91206 6.66663 10.1899C6.75947 10.4678 6.93685 10.7097 7.17395 10.8817C7.41105 11.0538 7.69602 11.1475 7.98897 11.1496C8.75095 11.1497 9.50925 11.2554 10.2423 11.4635Z" fill="white"/>
<path d="M7.63654 16.3577C7.22069 16.3291 4.58208 16.2674 3.00351 19.8726L2.579 20.9905C2.47681 21.2672 2.46997 21.5701 2.55957 21.8511C2.64917 22.1321 2.83007 22.3752 3.07355 22.5417C3.31704 22.7081 3.60916 22.7885 3.90354 22.7701C4.19793 22.7516 4.47771 22.6353 4.69848 22.4397C5.86332 21.3827 6.59579 21.0583 7.04085 20.9957C6.98574 20.2692 7.00574 19.5389 7.10053 18.8165C7.21288 17.9838 7.39213 17.1616 7.63654 16.3577Z" fill="white"/>
<path d="M20.6764 23.8841C19.6251 25.0543 18.3622 26.0154 16.9541 26.7169C17.1809 27.252 17.1581 28.1788 16.8818 29.4715C16.8199 29.7442 16.8475 30.0296 16.9606 30.2854C17.0737 30.5412 17.2662 30.7537 17.5095 30.8914C17.7815 31.0491 18.1008 31.1046 18.4101 31.0479C18.7193 30.9913 18.9982 30.8262 19.1966 30.5824L19.9591 29.6362C22.3331 26.4197 20.8545 24.1372 20.6764 23.8841Z" fill="white"/>
<path d="M27.6191 20.4501C27.8149 17.4779 26.0331 13.9625 23.143 13.8757C23.9791 15.5191 24.1484 17.4217 23.6156 19.1868C24.1633 19.7168 24.634 20.3208 25.0142 20.9812C25.1355 21.1899 25.3093 21.3631 25.5184 21.4838C25.7191 21.5977 25.9447 21.6609 26.1755 21.6677C26.4062 21.6745 26.6351 21.6248 26.8423 21.5229C27.0494 21.4209 27.2285 21.2699 27.3639 21.0829C27.4993 20.896 27.5869 20.6787 27.6191 20.4501Z" fill="white"/>
<path d="M18.3461 9.66383C19.6289 10.1041 20.7857 10.8494 21.7169 11.8356C22.5569 11.1785 23.8394 9.89326 23.7649 8.24764C23.7286 6.27642 21.3487 4.9193 19.6407 5.86663C18.1728 6.6264 17.7031 8.37613 17.554 9.43215C17.8223 9.49367 18.0868 9.57103 18.3461 9.66383Z" fill="white"/>
</svg>
