<svg width="44" height="44" viewBox="0 0 44 44" fill="none" xmlns="http://www.w3.org/2000/svg">
<path d="M39.7043 26.4563C37.8781 24.9957 36.3688 22.007 36.3538 21.9768C36.2722 21.8133 36.1044 21.71 35.9218 21.71H34.5541C33.5326 20.8025 32.069 18.8915 30.6521 17.0411C29.456 15.4795 28.3233 14.0008 27.4956 13.179C27.4475 12.9907 27.2925 12.8548 27.1071 12.8242C26.7722 12.5493 26.5076 12.4287 26.2538 12.4287C25.429 12.4287 24.8828 13.0498 24.6767 13.4388C24.1023 14.2875 22.8458 15.3805 22.3215 15.8195L21.8294 15.5735C21.59 15.4536 21.3003 15.5503 21.1808 15.7897C20.9411 16.2694 18.8894 18.8134 17.4063 20.6066C16.2528 18.9782 15.0799 18.6163 14.2655 18.6163C13.3088 18.6163 12.3118 20.3844 11.9133 21.1763C8.90352 25.679 4.35313 29.1202 4.3075 29.1544C4.16613 29.2604 4.09403 29.4351 4.11921 29.6099C4.14404 29.7848 4.26255 29.9315 4.42772 29.994C5.05713 30.2296 5.67648 30.3495 6.26799 30.3495C8.02369 30.3495 9.08683 29.3236 9.47458 28.8644H10.5629C12.5773 31.1458 15.2421 31.5503 15.3573 31.5664C15.3801 31.5701 15.4029 31.5715 15.4257 31.5715C16.354 31.5715 16.8766 31.3452 17.1307 31.1847H19.6796C19.835 31.1847 19.981 31.1099 20.0717 30.984C20.1627 30.8581 20.1875 30.6959 20.1381 30.5483C19.6846 29.1874 18.0945 29.0689 17.793 29.0585C16.8322 28.8852 16.0853 28.1487 15.5687 27.4297C16.3236 27.6989 16.9306 27.7043 16.9725 27.7043C17.1679 27.7043 17.3445 27.5865 17.419 27.4058C17.4938 27.2255 17.4526 27.0174 17.3142 26.8791C14.5595 24.1244 14.0308 21.6769 13.9757 21.3814C13.9801 21.1615 14.0194 20.9816 14.0747 20.8362C16.2342 26.345 24.5232 30.1984 24.8918 30.3676C24.9552 30.3961 25.024 30.4112 25.0935 30.4112H30.8943C31.1384 30.4112 31.3445 30.2293 31.374 29.9869C31.4043 29.7445 31.2485 29.5179 31.0115 29.4588C29.8345 29.1644 27.6844 27.4785 26.9549 26.8535C26.7636 26.6894 26.4772 26.7004 26.2986 26.879C25.5634 27.6142 25.0814 27.7686 24.8072 27.7686C24.3993 27.7686 24.1607 27.3994 24.0609 27.1966C24.4121 26.0062 24.4168 24.5769 24.4168 24.5138C24.4168 24.2895 24.2627 24.0948 24.0445 24.0431C24.0351 24.0411 24.0253 24.039 24.0156 24.0374C24.6434 23.258 25.151 22.4986 25.4816 21.9722C26.7512 23.5557 29.4962 24.1825 29.6292 24.2123C29.8574 24.2609 30.0877 24.1445 30.179 23.93C30.27 23.7162 30.1961 23.4674 30.0024 23.3381C28.3209 22.2173 26.9053 17.5129 26.4094 15.4315C26.676 15.2113 26.8784 14.973 27.0318 14.739C28.4417 17.8227 32.2273 22.5438 33.9608 24.6288C34.213 24.9837 34.4969 25.32 34.8065 25.6289C34.9005 25.7232 35.0243 25.7705 35.1482 25.7705H35.1556C35.4231 25.7705 35.639 25.5539 35.639 25.2871C35.639 25.1394 35.5735 25.0078 35.4691 24.9189C35.3705 24.8034 35.112 24.501 34.7464 24.0612C36.17 25.3376 38.7848 27.0143 39.1426 27.2419C39.3592 27.3793 39.6461 27.3245 39.7952 27.115C39.945 26.9062 39.9044 26.6168 39.7043 26.4563Z" fill="white"/>
</svg>
